<svg width="48" height="48" fill="none" xmlns="http://www.w3.org/2000/svg"><path d="M34.54 18.25a.96.96 0 0 0-.96-.96H28.8v-4.8a.96.96 0 0 0-.96-.95h-7.66a.96.96 0 0 0-.96.96v4.79h-4.8a.96.96 0 0 0-.95.96v7.66a.96.96 0 0 0 .96.96h4.79v4.8a.96.96 0 0 0 .96.95h7.66a.96.96 0 0 0 .96-.96v-4.79h4.8a.96.96 0 0 0 .95-.96v-7.66Z" stroke="#0052D9" stroke-width="3" stroke-linecap="round" stroke-linejoin="round"/><path d="M3.88 8.23v14.64a23.6 23.6 0 0 0 15.75 21.98l2.15.8c1.43.52 3 .52 4.44 0l2.15-.8a23.6 23.6 0 0 0 15.75-21.98V8.23a2.94 2.94 0 0 0-1.79-2.7A46.49 46.49 0 0 0 24 1.97 46.49 46.49 0 0 0 5.67 5.54a2.94 2.94 0 0 0-1.8 2.7Z" stroke="#0052D9" stroke-width="3" stroke-linecap="round" stroke-linejoin="round"/></svg>