<svg width="64" height="64" viewBox="0 0 64 64" fill="none" xmlns="http://www.w3.org/2000/svg">
<g id="Frame 1000007205" clip-path="url(#clip0_4924_8457)">
<g id="psycho-analysis-2--Streamline-Ultimate" clip-path="url(#clip1_4924_8457)">
<path id="Vector" d="M29.7882 50.1077C40.7127 50.1077 49.5687 41.2518 49.5687 30.3273C49.5687 19.4029 40.7127 10.5469 29.7882 10.5469C18.8638 10.5469 10.0078 19.4029 10.0078 30.3273C10.0078 41.2518 18.8638 50.1077 29.7882 50.1077Z" stroke="#0052D9" stroke-width="3" stroke-linecap="round" stroke-linejoin="round"/>
<path id="Vector_2" d="M44.1992 43.8672L54.0253 53.4793" stroke="#0052D9" stroke-width="3" stroke-linecap="round" stroke-linejoin="round"/>
<path id="Vector_3" d="M22.133 41.755V34.8055C20.6003 33.3856 19.5314 31.5365 19.0659 29.4996C18.6003 27.4628 18.7598 25.3329 19.5234 23.3881C20.2871 21.4433 21.6195 19.774 23.3465 18.5981C25.0736 17.4223 27.1151 16.7945 29.2045 16.7969C37.1235 16.7969 38.8328 23.317 41.6557 30.6403C41.7041 30.7663 41.7211 30.9023 41.7053 31.0365C41.6895 31.1705 41.6413 31.2987 41.5649 31.4101C41.4885 31.5213 41.3861 31.6125 41.2667 31.6755C41.1473 31.7385 41.0143 31.7715 40.8793 31.7717H38.7718V35.0995C38.7718 35.9821 38.4212 36.8284 37.7971 37.4526C37.1731 38.0766 36.3267 38.4272 35.444 38.4272H33.7801V41.755" stroke="#0052D9" stroke-width="3" stroke-linecap="round" stroke-linejoin="round"/>
<path id="Vector_4" d="M26.1992 25.7966C26.1992 24.2589 27.4294 22.875 29.1209 22.875C30.6586 22.875 32.0427 24.1051 32.0427 25.7966C32.0427 27.3344 30.8124 28.7183 29.1209 28.7183V30.0152" stroke="#0052D9" stroke-width="3" stroke-miterlimit="10" stroke-linecap="round" stroke-linejoin="round"/>
<path id="Vector_5" d="M29.1206 34.2812C28.9196 34.2812 28.7188 34.4823 28.7188 34.6833C28.7188 34.8843 28.9196 35.0851 29.1206 35.0851" stroke="#0052D9" stroke-width="3" stroke-miterlimit="10" stroke-linecap="round" stroke-linejoin="round"/>
<path id="Vector_6" d="M29.1211 34.2812C29.3221 34.2812 29.5231 34.4823 29.5231 34.6833C29.5231 34.8843 29.3221 35.0851 29.1211 35.0851" stroke="#0052D9" stroke-width="3" stroke-miterlimit="10" stroke-linecap="round" stroke-linejoin="round"/>
</g>
</g>
<defs>
<clipPath id="clip0_4924_8457">
<rect width="64" height="64" fill="white"/>
</clipPath>
<clipPath id="clip1_4924_8457">
<rect width="48.0023" height="48.0023" fill="white" transform="translate(8.01562 8.01562)"/>
</clipPath>
</defs>
</svg>
