<svg width="64" height="64" viewBox="0 0 64 64" fill="none" xmlns="http://www.w3.org/2000/svg">
<g id="Frame 1000007205" clip-path="url(#clip0_4924_8362)">
<g id="brain-head-1--Streamline-Ultimate" clip-path="url(#clip1_4924_8362)">
<g id="Group">
<path id="Vector" d="M25.304 55.0022V49.002H23.0839C21.4925 49.002 19.9663 48.3698 18.841 47.2445C17.7158 46.1192 17.0836 44.593 17.0836 43.0017V37.0014H11.7033C11.5433 37.0006 11.3856 36.9622 11.2432 36.8892C11.1007 36.8163 10.9774 36.7108 10.8833 36.5814C10.7921 36.4562 10.7318 36.3111 10.7075 36.1582C10.6831 36.0052 10.6954 35.8486 10.7433 35.7013C14.8835 22.8607 17.7636 9.00001 33.8044 9.00001C37.9175 8.99517 41.9266 10.2923 45.2573 12.7055C48.588 15.1188 51.0695 18.5243 52.3461 22.4342C53.6228 26.3442 53.6292 30.5578 52.3643 34.4716C51.0995 38.3854 48.6284 41.7984 45.305 44.2217V55.0022" stroke="#0052D9" stroke-width="3" stroke-linecap="round" stroke-linejoin="round"/>
<path id="Vector_2" d="M45.2451 22.2962C45.0728 20.829 44.3653 19.477 43.2582 18.499C42.151 17.521 40.722 16.9858 39.2448 16.9959C38.3357 17.0015 37.4398 17.2135 36.6247 17.616C36.178 16.8018 35.5126 16.1288 34.7036 15.6728C33.8946 15.2169 32.9742 14.9962 32.0465 15.0358C31.1187 15.0753 30.2204 15.3734 29.4531 15.8965C28.6858 16.4196 28.0801 17.1468 27.7043 17.996C27.0476 17.9697 26.3922 18.073 25.7755 18.3001C25.1588 18.5271 24.5929 18.8733 24.11 19.3191C23.6271 19.7648 23.2367 20.3013 22.9612 20.8979C22.6856 21.4945 22.5303 22.1396 22.504 22.7962C22.4777 23.4529 22.5811 24.1082 22.8081 24.7249C23.0351 25.3417 23.3814 25.9076 23.8271 26.3905C24.2729 26.8734 24.8093 27.2637 25.4059 27.5393C26.0026 27.8149 26.6476 27.9702 27.3042 27.9965C27.8489 27.9865 28.3887 27.8921 28.9043 27.7164C29.4308 28.7836 30.2696 29.6651 31.3093 30.2439C32.349 30.8227 33.5402 31.0713 34.7246 30.9566C35.15 32.3832 36.0155 33.6388 37.1973 34.544C38.3791 35.4492 39.8168 35.9577 41.3049 35.9968C43.2273 35.9291 45.0442 35.1011 46.3567 33.6949C47.6692 32.2886 48.37 30.419 48.3052 28.4965C48.3218 27.2946 48.053 26.106 47.5211 25.0282C46.9891 23.9504 46.2091 23.0141 45.2451 22.2962Z" stroke="#0052D9" stroke-width="3" stroke-linecap="round" stroke-linejoin="round"/>
<path id="Vector_3" d="M28.9023 27.7203L29.4824 26.0002C29.9369 24.6389 30.8767 23.4926 32.1225 22.78L33.3026 22" stroke="#0052D9" stroke-width="3" stroke-linecap="round" stroke-linejoin="round"/>
<path id="Vector_4" d="M44.4649 20C40.2447 21.0601 39.6247 23.1402 39.3047 24.0002" stroke="#0052D9" stroke-width="3" stroke-linecap="round" stroke-linejoin="round"/>
<path id="Vector_5" d="M44.383 35.2406C43.9898 33.1589 42.9381 31.2587 41.3828 29.8203" stroke="#0052D9" stroke-width="3" stroke-linecap="round" stroke-linejoin="round"/>
</g>
</g>
</g>
<defs>
<clipPath id="clip0_4924_8362">
<rect width="64" height="64" fill="white"/>
</clipPath>
<clipPath id="clip1_4924_8362">
<rect width="48.0023" height="48.0023" fill="white" transform="translate(8.00391 8)"/>
</clipPath>
</defs>
</svg>
