<svg width="48" height="48" fill="none" xmlns="http://www.w3.org/2000/svg"><path d="m6.25 6.75 4.08 6.08c-8.1 8.97 4.54 33.22 14.13 33.22 9.58 0 23.46-24.83 14.28-33.85l2.85-7.5" stroke="#0052D9" stroke-width="3" stroke-linecap="round" stroke-linejoin="round"/><path d="M21.47 1.96v4.6c-2.21.02-4.36.76-6.11 2.1l-3.3-4.78M35.21 2.92 33.3 8.08a10.23 10.23 0 0 0-5.08-1.52v-4.6M8.13 24.67c8.53-2.09 5.75-.69 12.4-7.82M17.18 20.5l2.05 3.5" stroke="#0052D9" stroke-width="3" stroke-linecap="round" stroke-linejoin="round"/><path d="m30.34 6.85-1.2 1.82a4.81 4.81 0 0 0 .15 5.75M41.73 21.13h-4.2a6.88 6.88 0 0 0-4.5 1.6l-2.61 2.23M34.46 39.33l-2.4-.4a6.44 6.44 0 0 1-4.23-2.63l-2.38-3.67M11.06 33.43l8.97 1.11" stroke="#0052D9" stroke-width="3" stroke-linecap="round" stroke-linejoin="round"/></svg>