<svg width="48" height="48" fill="none" xmlns="http://www.w3.org/2000/svg"><path d="M15 36c1.38-.54 2.72-1.2 4-2" stroke="#0052D9" stroke-width="3" stroke-linecap="round" stroke-linejoin="round"/><path d="M2 39a7 7 0 1 0 14 0 7 7 0 0 0-14 0Z" stroke="#0052D9" stroke-width="3" stroke-linecap="round" stroke-linejoin="round"/><path d="M7 39a2 2 0 1 0 4 0 2 2 0 0 0-4 0ZM42.5 44.85l-.84 1.31-9.62-5.72a4.56 4.56 0 0 1-1.87-2.6c-.3-1.07-.2-2.21.25-3.22.46-1.01 1.26-1.8 2.25-2.25.99-.44 2.1-.49 3.12-.14L46.17 36l-.67 1.85M25.98 29.38C31.28 25.48 40 18.11 40 11.78A9.33 9.33 0 0 0 22 7.9a9.33 9.33 0 0 0-18 3.88c0 9.1 17.27 19.88 18 20.34 2.35 1.5 6.72 3.3 7.85 2.79" stroke="#0052D9" stroke-width="3" stroke-linecap="round" stroke-linejoin="round"/></svg>