<svg width="64" height="64" viewBox="0 0 64 64" fill="none" xmlns="http://www.w3.org/2000/svg">
<g id="Frame 1000007206" clip-path="url(#clip0_5202_11441)">
<g id="Blood-Drops-Positive--Streamline-Ultimate">
<path id="Vector" d="M25.4207 25.4318C23.624 21.8914 21.6069 18.4673 19.3813 15.1796C19.2939 15.0475 19.1752 14.9392 19.0357 14.8642C18.8962 14.7892 18.7404 14.75 18.582 14.75C18.4237 14.75 18.2678 14.7892 18.1283 14.8642C17.9889 14.9392 17.8701 15.0475 17.7828 15.1796C15.6457 18.4091 9.95703 27.1702 9.95703 31.04C9.95693 32.346 10.2534 33.635 10.8242 34.8098C11.3949 35.9845 12.225 37.0143 13.2518 37.8214C14.2785 38.6286 15.4752 39.192 16.7515 39.4692C18.0278 39.7464 19.3504 39.7301 20.6194 39.4216" stroke="#0052D9" stroke-width="3" stroke-linecap="round" stroke-linejoin="round"/>
<path id="Vector_2" d="M38.5781 25.4318C40.3748 21.8914 42.3919 18.4673 44.6175 15.1796C44.7049 15.0475 44.8236 14.9392 44.9631 14.8642C45.1026 14.7892 45.2585 14.75 45.4168 14.75C45.5751 14.75 45.731 14.7892 45.8705 14.8642C46.01 14.9392 46.1287 15.0475 46.216 15.1796C48.3531 18.4091 54.0418 27.1702 54.0418 31.04C54.0419 32.346 53.7454 33.635 53.1747 34.8098C52.6039 35.9845 51.7738 37.0143 50.7471 37.8214C49.7203 38.6286 48.5236 39.192 47.2473 39.4692C45.971 39.7464 44.6485 39.7301 43.3794 39.4216" stroke="#0052D9" stroke-width="3" stroke-linecap="round" stroke-linejoin="round"/>
<path id="Vector_3" d="M32 33.9141V41.5807" stroke="#0052D9" stroke-width="3" stroke-linecap="round" stroke-linejoin="round"/>
<path id="Vector_4" d="M28.168 37.75H35.8346" stroke="#0052D9" stroke-width="3" stroke-linecap="round" stroke-linejoin="round"/>
<path id="Vector_5" d="M43.5 37.7519C43.5 40.8019 42.2884 43.7269 40.1317 45.8836C37.9751 48.0403 35.05 49.2519 32 49.2519C28.95 49.2519 26.0249 48.0403 23.8683 45.8836C21.7116 43.7269 20.5 40.8019 20.5 37.7519C20.5 32.4235 28.596 20.0476 31.2027 16.1376C31.2902 16.0064 31.4088 15.8987 31.5478 15.8243C31.6869 15.7499 31.8422 15.7109 32 15.7109C32.1578 15.7109 32.3131 15.7499 32.4522 15.8243C32.5912 15.8987 32.7098 16.0064 32.7973 16.1376C35.4021 20.0476 43.5 32.4216 43.5 37.7519Z" stroke="#0052D9" stroke-width="3" stroke-linecap="round" stroke-linejoin="round"/>
</g>
</g>
<defs>
<clipPath id="clip0_5202_11441">
<rect width="64" height="64" fill="white"/>
</clipPath>
</defs>
</svg>
