<svg width="48" height="48" fill="none" xmlns="http://www.w3.org/2000/svg"><g clip-path="url(#a)" stroke="#0052D9" stroke-width="3" stroke-linecap="round" stroke-linejoin="round"><path d="M32.13 44.69a12.48 12.48 0 1 0 0-24.97 12.48 12.48 0 0 0 0 24.97ZM40.95 41.02l5.74 5.75"/><path d="M19.64 32.72h5.17l3.1-4.13 4.13 7.23 3.1-4.13h3.1M17.47 18.61a8.41 8.41 0 1 0 0-16.82 8.41 8.41 0 0 0 0 16.82ZM19.2 42.16H2.33v-1.83a15.17 15.17 0 0 1 14.45-15"/></g><defs><clipPath id="a"><path fill="#fff" d="M0 0h48v48H0z"/></clipPath></defs></svg>