<svg xmlns="http://www.w3.org/2000/svg" width="538" height="612" opacity="0.5" fill="none"><g fill="#fff" clip-path="url(#a)"><path d="M396.3 141.3a2.2 2.2 0 1 0 0-4.4 2.2 2.2 0 0 0 0 4.4ZM402 510.1a4.2 4.2 0 1 0 .001-8.399A4.2 4.2 0 0 0 402 510.1ZM190.6 414.6a4.2 4.2 0 1 0 .001-8.399 4.2 4.2 0 0 0-.001 8.399ZM167.6 345.6a4.2 4.2 0 1 0 .001-8.399 4.2 4.2 0 0 0-.001 8.399ZM131.9 514.3a4.2 4.2 0 1 0 .001-8.399 4.2 4.2 0 0 0-.001 8.399ZM302.6 406.3a4.2 4.2 0 1 0 .001-8.399 4.2 4.2 0 0 0-.001 8.399ZM105.1 435.2a4.2 4.2 0 1 0 0-8.4 4.2 4.2 0 0 0 0 8.4ZM52.6 353.9a4.2 4.2 0 1 0 0-8.4 4.2 4.2 0 0 0 0 8.4ZM148.4 77.2a4.2 4.2 0 1 0 0-8.4 4.2 4.2 0 0 0 0 8.4ZM123.6 239.7a2.5 2.5 0 1 0 0-5 2.5 2.5 0 0 0 0 5ZM208.5 242.2a2.5 2.5 0 1 0 0-5 2.5 2.5 0 0 0 0 5ZM258.8 202.3a2.5 2.5 0 1 0 0-5 2.5 2.5 0 0 0 0 5ZM114.8 364.1a2.5 2.5 0 1 0 0-5 2.5 2.5 0 0 0 0 5ZM87.7 303.6a2.5 2.5 0 1 0 0-5 2.5 2.5 0 0 0 0 5ZM41.6 210.5a2.5 2.5 0 1 0 0-5 2.5 2.5 0 0 0 0 5ZM445.8 576.2a2.5 2.5 0 1 0 0-5 2.5 2.5 0 0 0 0 5ZM443.3 530.2a2.5 2.5 0 1 0 0-5 2.5 2.5 0 0 0 0 5ZM357.6 53.1a2.5 2.5 0 1 0 0-5 2.5 2.5 0 0 0 0 5ZM148.4 516.7a2.5 2.5 0 1 0 0-5 2.5 2.5 0 0 0 0 5ZM300.2 492.6a2.5 2.5 0 1 0 0-5 2.5 2.5 0 0 0 0 5ZM389.1 604a2.5 2.5 0 1 0 0-5 2.5 2.5 0 0 0 0 5ZM58 402a1.2 1.2 0 1 0 0-2.4 1.2 1.2 0 0 0 0 2.4ZM499.6 552a1.2 1.2 0 1 0 0-2.4 1.2 1.2 0 0 0 0 2.4ZM267.8 611a1.2 1.2 0 1 0 0-2.4 1.2 1.2 0 0 0 0 2.4ZM394.1 558a1.2 1.2 0 1 0 0-2.4 1.2 1.2 0 0 0 0 2.4ZM455.1 149.8a1.2 1.2 0 1 0 0-2.4 1.2 1.2 0 0 0 0 2.4ZM319.5 63.6a1.2 1.2 0 1 0 0-2.4 1.2 1.2 0 0 0 0 2.4ZM159.4 79.6a1.2 1.2 0 1 0 0-2.4 1.2 1.2 0 0 0 0 2.4ZM79.3 228.5a1.2 1.2 0 1 0 0-2.4 1.2 1.2 0 0 0 0 2.4ZM59.1 507.1a1.2 1.2 0 1 0 0-2.4 1.2 1.2 0 0 0 0 2.4Z"/><path d="M373.2 542.7a4.2 4.2 0 1 0 0-8.4 4.2 4.2 0 0 0 0 8.4ZM131.9 147.5a4.2 4.2 0 1 0 .001-8.399 4.2 4.2 0 0 0-.001 8.399ZM287.6 249.9a4.2 4.2 0 1 0 .001-8.399 4.2 4.2 0 0 0-.001 8.399ZM265.5 13.5a4.2 4.2 0 1 0 0-8.4 4.2 4.2 0 0 0 0 8.4ZM33.3 137a4.2 4.2 0 1 0 0-8.4 4.2 4.2 0 0 0 0 8.4ZM100.9 402.1a2.4 2.4 0 1 0-.001-4.801 2.4 2.4 0 0 0 .001 4.801ZM302.6 328.4a2.4 2.4 0 1 0 .001-4.799 2.4 2.4 0 0 0-.001 4.799ZM439.1 9.4a4.2 4.2 0 1 0 0-8.4 4.2 4.2 0 0 0 0 8.4ZM392.1 125.7a4.2 4.2 0 1 0 0-8.4 4.2 4.2 0 0 0 0 8.4ZM351.4 283a4.2 4.2 0 1 0 .001-8.399A4.2 4.2 0 0 0 351.4 283ZM275.6 132.8a4.2 4.2 0 1 0 .001-8.399 4.2 4.2 0 0 0-.001 8.399ZM402 492a1.9 1.9 0 1 0 0-3.8 1.9 1.9 0 0 0 0 3.8ZM21.4 295a1.9 1.9 0 1 0 0-3.8 1.9 1.9 0 0 0 0 3.8ZM121.1 214.3a1.9 1.9 0 1 0 0-3.8 1.9 1.9 0 0 0 0 3.8Z" opacity=".6"/><path d="M347.5 509.8a4.2 4.2 0 1 0 0-8.4 4.2 4.2 0 0 0 0 8.4ZM247.2 466.8a4.2 4.2 0 1 0 .001-8.399 4.2 4.2 0 0 0-.001 8.399ZM471.7 538.6a4.2 4.2 0 1 0 0-8.4 4.2 4.2 0 0 0 0 8.4ZM341.1 598.9a4.2 4.2 0 1 0 .001-8.399 4.2 4.2 0 0 0-.001 8.399ZM109.2 598.9a4.2 4.2 0 1 0 .001-8.399 4.2 4.2 0 0 0-.001 8.399ZM533 147.5a4.2 4.2 0 1 0 0-8.4 4.2 4.2 0 0 0 0 8.4ZM484.6 70.8a4.2 4.2 0 1 0 0-8.4 4.2 4.2 0 0 0 0 8.4ZM5 470.9a4.2 4.2 0 1 0 0-8.4 4.2 4.2 0 0 0 0 8.4ZM143.7 89.3a4.2 4.2 0 1 0 0-8.4 4.2 4.2 0 0 0 0 8.4ZM37.5 332.7a2.5 2.5 0 1 0 0-5 2.5 2.5 0 0 0 0 5ZM351.4 565.2a4.2 4.2 0 1 0-.002-8.402 4.2 4.2 0 0 0 .002 8.402ZM269.6 546.2a1.9 1.9 0 1 0 0-3.8 1.9 1.9 0 0 0 0 3.8ZM103.2 179.5a1.9 1.9 0 1 0 0-3.8 1.9 1.9 0 0 0 0 3.8ZM484.6 286.7a1.9 1.9 0 1 0 0-3.8 1.9 1.9 0 0 0 0 3.8ZM493.4 420.1a1.9 1.9 0 1 0 0-3.8 1.9 1.9 0 0 0 0 3.8ZM473.6 241.6a1.9 1.9 0 1 0 0-3.8 1.9 1.9 0 0 0 0 3.8ZM380.7 313.6a1.9 1.9 0 1 0 0-3.8 1.9 1.9 0 0 0 0 3.8ZM247.2 306.3a1.9 1.9 0 1 0 0-3.8 1.9 1.9 0 0 0 0 3.8ZM426.8 308.1a1.9 1.9 0 1 0 0-3.8 1.9 1.9 0 0 0 0 3.8Z" opacity=".2"/></g><defs><clipPath id="a"><path fill="#fff" d="M0 0h538v612H0z"/></clipPath></defs></svg>