<?xml version="1.0" standalone="no"?><!DOCTYPE svg PUBLIC "-//W3C//DTD SVG 1.1//EN" "http://www.w3.org/Graphics/SVG/1.1/DTD/svg11.dtd"><svg t="1712751742671" class="icon" viewBox="0 0 1331 1024" version="1.1" xmlns="http://www.w3.org/2000/svg" p-id="8599" width="20.796875" height="16" xmlns:xlink="http://www.w3.org/1999/xlink"><path d="M296.96 1024c194.56 0 296.96-92.16 296.96-286.72 0-184.32-92.16-276.48-276.48-276.48 30.72-112.64 102.4-194.56 194.56-256V0C174.08 102.4 0 327.68 0 686.08 0 911.36 102.4 1024 296.96 1024z m737.28 0C1228.8 1024 1331.2 931.84 1331.2 737.28c0-184.32-92.16-276.48-266.24-276.48 30.72-112.64 92.16-194.56 194.56-245.76V0c-348.16 102.4-512 327.68-512 686.08-10.24 225.28 92.16 337.92 286.72 337.92z" fill="#333" p-id="8600"></path></svg>