<svg xmlns="http://www.w3.org/2000/svg" width="22" height="22"><path d="M13.256 0H8.744C3.949 0 0 3.581 0 7.93v6.14C0 18.419 3.949 22 8.744 22h4.512C18.051 22 22 18.419 22 14.07V7.93C22 3.581 18.051 0 13.256 0ZM8.744 20.465a7.847 7.847 0 0 1-1.918-.256c.62-4.707 1.748-6.395 4.174-6.395s3.554 1.74 4.174 6.395a8.231 8.231 0 0 1-1.918.256H8.744ZM7.334 8.953c0-1.841 1.635-3.325 3.666-3.325 2.03 0 3.667 1.484 3.667 3.325 0 1.842-1.636 3.326-3.667 3.326-2.03 0-3.667-1.484-3.667-3.326Zm12.974 5.117c0 2.353-1.41 4.4-3.498 5.525-.282-2.148-.846-5.116-2.99-6.497 1.524-.87 2.483-2.354 2.483-4.093 0-2.66-2.426-4.86-5.36-4.86-2.933 0-5.358 2.2-5.358 4.86 0 1.74 1.015 3.274 2.538 4.093-1.918 1.279-2.595 3.888-2.933 6.548-2.087-1.176-3.498-3.223-3.498-5.576V7.93c0-3.53 3.16-6.395 7.052-6.395h4.512c3.893 0 7.052 2.865 7.052 6.395v6.14Z"/></svg>