<svg xmlns="http://www.w3.org/2000/svg" width="24" height="24" class="icon" viewBox="0 0 1024 1024"><path d="m742.955 267.435-51.2-76.502a117.12 117.12 0 0 0-97.408-52.266H429.653a117.12 117.12 0 0 0-97.621 52.266l-51.2 76.502A202.923 202.923 0 0 0 96 469.333v213.334a202.923 202.923 0 0 0 202.667 202.666h426.666A202.923 202.923 0 0 0 928 682.667V469.333a202.923 202.923 0 0 0-185.045-201.898zM864 682.667a138.837 138.837 0 0 1-138.667 138.666H298.667A138.837 138.837 0 0 1 160 682.667V469.333a138.837 138.837 0 0 1 138.667-138.666 31.957 31.957 0 0 0 26.624-14.251l59.989-89.984a53.205 53.205 0 0 1 44.373-23.765h164.694a53.205 53.205 0 0 1 44.373 23.765l59.99 89.984a31.957 31.957 0 0 0 26.623 14.25A138.837 138.837 0 0 1 864 469.334zm-352-288a160 160 0 1 0 160 160 160.17 160.17 0 0 0-160-160zm0 256a96 96 0 1 1 96-96 96.085 96.085 0 0 1-96 96zm298.667-224A42.667 42.667 0 1 1 768 384a42.667 42.667 0 0 1 42.667 42.667z"/></svg>