<?xml version="1.0" standalone="no"?><!DOCTYPE svg PUBLIC "-//W3C//DTD SVG 1.1//EN" "http://www.w3.org/Graphics/SVG/1.1/DTD/svg11.dtd"><svg t="1711524560643" class="icon" viewBox="0 0 1024 1024" version="1.1" xmlns="http://www.w3.org/2000/svg" p-id="5252" xmlns:xlink="http://www.w3.org/1999/xlink" width="24" height="24"><path d="M705.28 404.053333a31.957333 31.957333 0 0 1 0 45.226667l-213.333333 213.333333a31.914667 31.914667 0 0 1-45.226667 0l-128-128a32 32 0 0 1 45.226667-45.226666L469.333333 594.730667l190.72-190.677334a31.957333 31.957333 0 0 1 45.226667 0zM928 512A416 416 0 1 1 512 96 416.469333 416.469333 0 0 1 928 512z m-64 0A352 352 0 1 0 512 864 352.384 352.384 0 0 0 864 512z" p-id="5253"></path></svg>