<?xml version="1.0" standalone="no"?><!DOCTYPE svg PUBLIC "-//W3C//DTD SVG 1.1//EN" "http://www.w3.org/Graphics/SVG/1.1/DTD/svg11.dtd"><svg t="1711524601728" class="icon" viewBox="0 0 1024 1024" version="1.1" xmlns="http://www.w3.org/2000/svg" p-id="5722" xmlns:xlink="http://www.w3.org/1999/xlink" width="24" height="24"><path d="M512 96A416 416 0 1 0 928 512 416.469333 416.469333 0 0 0 512 96z m0 768A352 352 0 1 1 864 512 352.384 352.384 0 0 1 512 864z m150.613333-417.28a31.957333 31.957333 0 0 1 0 45.226667l-128 128a31.914667 31.914667 0 0 1-45.226666 0l-128-128a32 32 0 0 1 45.226666-45.226667L512 552.064l105.386667-105.344a31.957333 31.957333 0 0 1 45.226666 0z" fill="#41416E" p-id="5723"></path></svg>