<?xml version="1.0" standalone="no"?><!DOCTYPE svg PUBLIC "-//W3C//DTD SVG 1.1//EN" "http://www.w3.org/Graphics/SVG/1.1/DTD/svg11.dtd"><svg t="1711596989586" class="icon" viewBox="0 0 1024 1024" version="1.1" xmlns="http://www.w3.org/2000/svg" p-id="4624" xmlns:xlink="http://www.w3.org/1999/xlink" width="24" height="24"><path d="M906.112 263.552l-145.664-145.664a74.069333 74.069333 0 0 0-52.778667-21.888H469.333333A160.170667 160.170667 0 0 0 309.333333 256v10.666667H256A160.170667 160.170667 0 0 0 96 426.666667v341.333333A160.170667 160.170667 0 0 0 256 928h298.666667A160.170667 160.170667 0 0 0 714.666667 768v-10.666667H768A160.170667 160.170667 0 0 0 928 597.333333V316.330667a74.069333 74.069333 0 0 0-21.888-52.778667zM757.333333 205.269333l61.397334 61.397334h-16.085334a45.397333 45.397333 0 0 1-45.312-45.312zM650.666667 768A96.085333 96.085333 0 0 1 554.666667 864H256A96.085333 96.085333 0 0 1 160 768v-341.333333A96.085333 96.085333 0 0 1 256 330.666667h53.333333V597.333333A160.170667 160.170667 0 0 0 469.333333 757.333333h181.333334zM768 693.333333h-298.666667A96.085333 96.085333 0 0 1 373.333333 597.333333V256A96.085333 96.085333 0 0 1 469.333333 160h224v61.354667a109.44 109.44 0 0 0 109.312 109.312h61.354667V597.333333A96.085333 96.085333 0 0 1 768 693.333333z" p-id="4625"></path></svg>