<?xml version="1.0" standalone="no"?><!DOCTYPE svg PUBLIC "-//W3C//DTD SVG 1.1//EN" "http://www.w3.org/Graphics/SVG/1.1/DTD/svg11.dtd"><svg t="1710820830479" class="icon" viewBox="0 0 1024 1024" version="1.1" xmlns="http://www.w3.org/2000/svg" p-id="5812" xmlns:xlink="http://www.w3.org/1999/xlink" width="24" height="24"><path d="M730.368 407.850667a53.589333 53.589333 0 0 1 0-47.701334l108.928-217.856A32 32 0 0 0 810.666667 96H384A202.922667 202.922667 0 0 0 181.333333 298.666667v595.541333a32 32 0 0 0 64 0V672H810.666667a32 32 0 0 0 28.629333-46.293333zM245.333333 608V298.666667A138.837333 138.837333 0 0 1 384 160h374.912l-85.802667 171.52a117.930667 117.930667 0 0 0 0 104.96l85.802667 171.52z" fill="#41416E" p-id="5813"></path></svg>