<svg xmlns="http://www.w3.org/2000/svg" width="31.992" height="24" viewBox="0 0 1365 1024"><path d="M619.605 865.621c23.552 0 37.718 19.798 37.718 39.595 0 24.747-18.774 39.595-37.718 39.595-23.552 0-37.717-19.798-37.717-39.595s14.165-39.595 37.717-39.595zm617.472-252.416c-23.552 0-37.717-19.797-37.717-39.594s18.859-39.595 37.717-39.595c23.638 0 37.718 19.797 37.718 39.595s-18.774 39.594-37.718 39.594zm0-168.277c-65.962 0-122.538 59.392-122.538 128.683 0 14.848 0 29.696 4.693 39.594l-400.64 222.72a121.344 121.344 0 0 0-98.987-54.442c-47.104 0-89.6 29.696-108.373 69.29L153.002 652.8c-37.717-19.797-66.047-89.088-61.354-148.48 0-29.696 14.165-54.443 28.33-64.341a38.485 38.485 0 0 1 33.025 0h4.693c94.293 54.442 410.112 222.72 419.499 232.618 18.773 9.899 33.024 14.848 65.962-4.949l645.803-351.403a33.45 33.45 0 0 0 18.773-29.696c0-19.797-18.773-29.696-18.773-29.696-37.717-19.797-94.293-44.544-146.176-74.24-117.76-59.392-249.77-123.733-311.04-153.429-51.883-29.696-89.6-4.95-98.987 0l-14.25 4.95C454.656 172.713 101.12 355.84 82.26 365.738c-37.717 24.746-56.576 69.29-61.269 123.733-4.779 89.088 37.717 183.125 103.595 217.77l381.781 207.873C515.755 979.456 567.723 1024 624.213 1024c66.048 0 122.624-54.443 122.624-123.733l419.499-237.568c23.552 19.797 47.104 24.746 75.35 24.746 66.047 0 122.623-59.392 122.623-128.682-9.386-59.392-61.269-113.835-127.317-113.835z"/></svg>