<?xml version="1.0" standalone="no"?><!DOCTYPE svg PUBLIC "-//W3C//DTD SVG 1.1//EN" "http://www.w3.org/Graphics/SVG/1.1/DTD/svg11.dtd"><svg t="1711524573791" class="icon" viewBox="0 0 1024 1024" version="1.1" xmlns="http://www.w3.org/2000/svg" p-id="5410" xmlns:xlink="http://www.w3.org/1999/xlink" width="24" height="24"><path d="M904.021333 373.418667A413.269333 413.269333 0 0 0 571.733333 100.138667a430.122667 430.122667 0 0 0-119.125333 0 412.970667 412.970667 0 0 0-332.330667 273.066666 412.288 412.288 0 0 0 0 277.333334 413.269333 413.269333 0 0 0 332.458667 273.066666 429.738667 429.738667 0 0 0 59.733333 4.266667 423.210667 423.210667 0 0 0 59.733334-4.266667 412.970667 412.970667 0 0 0 332.330666-273.066666 412.288 412.288 0 0 0 0-277.333334z m-78.677333-21.333334H695.466667a690.432 690.432 0 0 0-61.568-169.685333 348.373333 348.373333 0 0 1 191.445333 169.642667zM864 512a345.130667 345.130667 0 0 1-13.696 96.042667h-143.061333A702.037333 702.037333 0 0 0 714.666667 512a699.178667 699.178667 0 0 0-7.381334-95.957333h143.061334A345.173333 345.173333 0 0 1 864 512zM381.354667 608.042667A634.112 634.112 0 0 1 373.333333 512a634.837333 634.837333 0 0 1 8.021334-95.957333h261.333333A638.976 638.976 0 0 1 650.666667 512a635.477333 635.477333 0 0 1-8.021334 96.042667z m-207.658667 0a343.296 343.296 0 0 1 0-192h143.061333A694.613333 694.613333 0 0 0 309.333333 512a700.970667 700.970667 0 0 0 7.424 96.042667z m374.528-445.525334a631.466667 631.466667 0 0 1 81.578667 189.525334H394.154667a632.149333 632.149333 0 0 1 81.621333-189.525334A360.917333 360.917333 0 0 1 512 160a360.064 360.064 0 0 1 36.224 2.517333z m-158.208 19.84A693.632 693.632 0 0 0 328.533333 352.042667H198.656a348.16 348.16 0 0 1 191.36-169.685334zM198.698667 672.042667H328.533333a695.466667 695.466667 0 0 0 61.525334 169.6 348.16 348.16 0 0 1-191.36-169.6z m277.077333 189.44a632.490667 632.490667 0 0 1-81.578667-189.44h235.605334a631.722667 631.722667 0 0 1-81.578667 189.44 366.933333 366.933333 0 0 1-72.448 0z m158.208-19.84a693.376 693.376 0 0 0 61.482667-169.6h129.792a348.074667 348.074667 0 0 1-191.274667 169.6z" fill="#41416E" p-id="5411"></path></svg>