<?xml version="1.0" standalone="no"?><!DOCTYPE svg PUBLIC "-//W3C//DTD SVG 1.1//EN" "http://www.w3.org/Graphics/SVG/1.1/DTD/svg11.dtd"><svg t="1710820818945" class="icon" viewBox="0 0 1024 1024" version="1.1" xmlns="http://www.w3.org/2000/svg" p-id="5514" xmlns:xlink="http://www.w3.org/1999/xlink" width="24" height="24"><path d="M858.026667 238.933333a266.496 266.496 0 0 0-208.298667-100.266666A288.213333 288.213333 0 0 0 512 173.141333a288.213333 288.213333 0 0 0-137.728-34.474666A266.496 266.496 0 0 0 165.973333 238.933333a313.130667 313.130667 0 0 0-64.213333 256.554667c41.557333 213.333333 258.688 362.069333 350.122667 416.170667a118.016 118.016 0 0 0 120.277333 0c91.392-54.101333 308.522667-203.008 349.866667-416.170667a313.130667 313.130667 0 0 0-64-256.554667z m1.408 244.309334c-36.608 187.733333-235.904 323.626667-320 373.333333a53.802667 53.802667 0 0 1-55.04 0c-84.010667-49.706667-283.306667-185.642667-320-373.333333A248.490667 248.490667 0 0 1 215.381333 279.466667a203.434667 203.434667 0 0 1 158.890667-76.8 222.976 222.976 0 0 1 120.490667 34.56 32.085333 32.085333 0 0 0 34.474666 0 222.976 222.976 0 0 1 120.490667-34.56 203.434667 203.434667 0 0 1 158.890667 76.8 248.490667 248.490667 0 0 1 50.816 203.605333z" fill="#41416E" p-id="5515"></path></svg>