<svg xmlns="http://www.w3.org/2000/svg" width="24" height="24" class="icon" viewBox="0 0 1024 1024"><path d="M852.395 312.021 639.06 140.544a204.075 204.075 0 0 0-254.122 0L171.605 312.021A201.472 201.472 0 0 0 96 469.888v255.445A202.795 202.795 0 0 0 298.667 927.83H416V725.333a96 96 0 0 1 192 0v202.454h117.333A202.795 202.795 0 0 0 928 725.333V469.717a201.472 201.472 0 0 0-75.605-157.696zM864 725.333A138.71 138.71 0 0 1 725.333 863.83H672V725.333a160 160 0 0 0-320 0v138.454h-53.333A138.71 138.71 0 0 1 160 725.333V469.717A137.728 137.728 0 0 1 211.67 361.9L425.002 190.42a139.819 139.819 0 0 1 173.994 0L812.331 361.9A137.728 137.728 0 0 1 864 469.717z"/></svg>