<?xml version="1.0" standalone="no"?><!DOCTYPE svg PUBLIC "-//W3C//DTD SVG 1.1//EN" "http://www.w3.org/Graphics/SVG/1.1/DTD/svg11.dtd"><svg t="1710820816182" class="icon" viewBox="0 0 1024 1024" version="1.1" xmlns="http://www.w3.org/2000/svg" p-id="5366" xmlns:xlink="http://www.w3.org/1999/xlink" width="24" height="24"><path d="M725.333333 138.666667H298.666667A202.922667 202.922667 0 0 0 96 341.333333v341.333334a199.765333 199.765333 0 0 0 5.76 46.037333 30.976 30.976 0 0 0 1.834667 5.845333A202.410667 202.410667 0 0 0 298.666667 885.333333h426.666666A202.922667 202.922667 0 0 0 928 682.666667V341.333333A202.922667 202.922667 0 0 0 725.333333 138.666667zM298.666667 202.666667h426.666666A138.837333 138.837333 0 0 1 864 341.333333v221.397334L692.906667 391.68a74.88 74.88 0 0 0-105.813334 0L384 594.730667l-32.426667-32.384a74.88 74.88 0 0 0-105.813333 0l-85.76 85.717333V341.333333A138.837333 138.837333 0 0 1 298.666667 202.666667z m426.666666 618.666666H298.666667a138.496 138.496 0 0 1-129.877334-91.733333l122.197334-122.026667a9.301333 9.301333 0 0 1 15.36 0l40.106666 40.106667a53.12 53.12 0 0 0 75.093334 0l210.773333-210.773333a11.050667 11.050667 0 0 1 15.36 0l216.32 216.362666V682.666667A138.837333 138.837333 0 0 1 725.333333 821.333333zM298.666667 384a42.666667 42.666667 0 1 1 42.666666 42.666667 42.666667 42.666667 0 0 1-42.666666-42.666667z" p-id="5367"></path></svg>