<?xml version="1.0" standalone="no"?><!DOCTYPE svg PUBLIC "-//W3C//DTD SVG 1.1//EN" "http://www.w3.org/Graphics/SVG/1.1/DTD/svg11.dtd"><svg t="1710820821928" class="icon" viewBox="0 0 1024 1024" version="1.1" xmlns="http://www.w3.org/2000/svg" p-id="5664" xmlns:xlink="http://www.w3.org/1999/xlink" width="24" height="24"><path d="M869.034667 439.04l-78.464 78.506667a32 32 0 1 1-45.269334-45.226667l78.506667-78.549333a137.130667 137.130667 0 0 0 0-193.664 140.202667 140.202667 0 0 0-193.621333 0l-143.317334 143.36a98.133333 98.133333 0 0 0-12.8 15.232 136.021333 136.021333 0 0 0 12.8 178.474666 32 32 0 1 1-45.269333 45.226667 198.997333 198.997333 0 0 1-20.224-260.010667 154.666667 154.666667 0 0 1 20.224-24.149333l143.317333-143.36a200.917333 200.917333 0 1 1 284.117334 284.16z m-331.904 2.56a31.957333 31.957333 0 0 0 0 45.226667 135.338667 135.338667 0 0 1 31.957333 143.061333 130.901333 130.901333 0 0 1-31.957333 50.645333L393.813333 823.893333a140.202667 140.202667 0 0 1-193.621333 0 137.130667 137.130667 0 0 1 0-193.664l78.506667-78.549333a32 32 0 1 0-45.269334-45.226667l-78.464 78.506667a200.917333 200.917333 0 1 0 284.117334 284.16l143.317333-143.36a193.962667 193.962667 0 0 0 47.146667-74.922667 201.045333 201.045333 0 0 0-47.146667-209.066666 32 32 0 0 0-45.269333-0.170667z" fill="#41416E" p-id="5665"></path></svg>