<svg xmlns="http://www.w3.org/2000/svg" width="24" height="24" class="icon" viewBox="0 0 1024 1024"><path fill="#41416E" d="M544 896a32 32 0 0 1-32 32H341.333a202.923 202.923 0 0 1-202.666-202.667V298.667A202.923 202.923 0 0 1 341.333 96H512a32 32 0 0 1 0 64H341.333a138.837 138.837 0 0 0-138.666 138.667v426.666A138.837 138.837 0 0 0 341.333 864H512a32 32 0 0 1 32 32zm331.947-406.613L705.28 318.72a32 32 0 1 0-45.227 45.27L776.064 480H426.667a32 32 0 0 0 0 64h349.397l-116.01 116.053a32 32 0 0 0 45.226 45.27l170.667-170.667a32 32 0 0 0 0-45.27z"/></svg>