<svg xmlns="http://www.w3.org/2000/svg" width="24" height="24" class="icon" viewBox="0 0 1024 1024"><path d="M242.347 158.464a42.667 42.667 0 1 0 0 85.333h548.565a42.667 42.667 0 1 0 0-85.333H242.347zm-30.379 292.139a42.667 42.667 0 0 0-1.195 74.368l94.848 55.296a42.667 42.667 0 0 0 64.128-36.182l1.707-107.52a42.667 42.667 0 0 0-62.933-38.186l-96.555 52.181zm231.51 43.093a42.667 42.667 0 0 1 42.666-42.667h304.768a42.667 42.667 0 1 1 0 85.334H486.144a42.667 42.667 0 0 1-42.667-42.667zM242.346 743.68a42.667 42.667 0 1 0 0 85.333h548.565a42.667 42.667 0 1 0 0-85.333H242.347z"/></svg>