<?xml version="1.0" standalone="no"?><!DOCTYPE svg PUBLIC "-//W3C//DTD SVG 1.1//EN" "http://www.w3.org/Graphics/SVG/1.1/DTD/svg11.dtd"><svg t="1710820839304" class="icon" viewBox="0 0 1024 1024" version="1.1" xmlns="http://www.w3.org/2000/svg" p-id="5960" xmlns:xlink="http://www.w3.org/1999/xlink" width="24" height="24"><path d="M746.666667 512a42.666667 42.666667 0 1 1-42.666667-42.666667 42.666667 42.666667 0 0 1 42.666667 42.666667zM512 469.333333a42.666667 42.666667 0 1 0 42.666667 42.666667 42.666667 42.666667 0 0 0-42.666667-42.666667z m-192 0a42.666667 42.666667 0 1 0 42.666667 42.666667 42.666667 42.666667 0 0 0-42.666667-42.666667z m608 42.666667A416 416 0 1 1 512 96 416.469333 416.469333 0 0 1 928 512z m-64 0A352 352 0 1 0 512 864 352.384 352.384 0 0 0 864 512z" fill="#41416E" p-id="5961"></path></svg>