<?xml version="1.0" standalone="no"?><!DOCTYPE svg PUBLIC "-//W3C//DTD SVG 1.1//EN" "http://www.w3.org/Graphics/SVG/1.1/DTD/svg11.dtd"><svg t="1710820807387" class="icon" viewBox="0 0 1024 1024" version="1.1" xmlns="http://www.w3.org/2000/svg" p-id="5068" xmlns:xlink="http://www.w3.org/1999/xlink" width="24" height="24"><path d="M876.330667 621.226667l-214.528 215.04a315.221333 315.221333 0 0 1-221.866667 91.648A299.306667 299.306667 0 0 1 226.133333 840.533333a309.674667 309.674667 0 0 1 4.266667-436.608l244.352-245.077333a213.76 213.76 0 0 1 302.933333 0 215.168 215.168 0 0 1 0 303.36l-245.76 246.058667a125.824 125.824 0 0 1-174.037333 0 123.733333 123.733333 0 0 1 0-174.250667l215.68-216.32a32.042667 32.042667 0 0 1 45.354667 45.226667l-215.68 216.448a59.477333 59.477333 0 0 0 0 83.882666 60.202667 60.202667 0 0 0 83.370666 0l245.546667-246.272a150.997333 150.997333 0 0 0 0-212.906666 153.216 153.216 0 0 0-212.096 0l-244.394667 245.034666a248.618667 248.618667 0 0 0-4.010666 346.112 235.733333 235.733333 0 0 0 168.362666 68.778667 250.794667 250.794667 0 0 0 176.469334-72.874667l214.528-215.125333a32 32 0 0 1 45.312 45.226667z" fill="#41416E" p-id="5069"></path></svg>