<?xml version="1.0" standalone="no"?><!DOCTYPE svg PUBLIC "-//W3C//DTD SVG 1.1//EN" "http://www.w3.org/Graphics/SVG/1.1/DTD/svg11.dtd"><svg t="1711524540825" class="icon" viewBox="0 0 1024 1024" version="1.1" xmlns="http://www.w3.org/2000/svg" p-id="4936" xmlns:xlink="http://www.w3.org/1999/xlink" width="24" height="24"><path d="M640 96H384A288.341333 288.341333 0 0 0 96 384v256A288.341333 288.341333 0 0 0 384 928h256A288.341333 288.341333 0 0 0 928 640V384A288.341333 288.341333 0 0 0 640 96zM864 640A224.256 224.256 0 0 1 640 864H384A224.256 224.256 0 0 1 160 640V384A224.256 224.256 0 0 1 384 160h256A224.256 224.256 0 0 1 864 384z m-149.333333-128a32 32 0 0 1-32 32h-138.666667V682.666667a32 32 0 0 1-64 0v-138.666667H341.333333a32 32 0 0 1 0-64h138.666667V341.333333a32 32 0 0 1 64 0v138.666667H682.666667a32 32 0 0 1 32 32z" fill="#41416E" p-id="4937"></path></svg>