<svg xmlns="http://www.w3.org/2000/svg" width="24" height="24"><path d="M3.542 12.561h16.903a.552.552 0 0 0 .555-.555.541.541 0 0 0-.555-.542H3.542a.538.538 0 0 0-.542.542c0 .303.24.555.542.555Zm8.452-2.396a.55.55 0 0 0 .555-.543V3.555A.552.552 0 0 0 11.994 3a.541.541 0 0 0-.543.555v6.067a.53.53 0 0 0 .543.543Zm0 3.658a.541.541 0 0 0-.543.555v6.067c0 .303.24.542.543.542a.55.55 0 0 0 .555-.542v-6.067a.552.552 0 0 0-.555-.555Zm2.813 0a.541.541 0 0 0-.543.555v6.067c0 .303.24.542.543.542a.55.55 0 0 0 .555-.542v-6.067a.544.544 0 0 0-.555-.555Zm2.812 0a.541.541 0 0 0-.542.555v1.816c0 .303.24.543.542.543a.55.55 0 0 0 .555-.543v-1.816a.552.552 0 0 0-.555-.555Zm0 3.822a.541.541 0 0 0-.542.555v2.232c0 .303.24.543.542.543a.55.55 0 0 0 .555-.543V18.2a.552.552 0 0 0-.555-.555Zm2.813-3.822a.541.541 0 0 0-.542.555v6.067c0 .303.24.542.542.542a.55.55 0 0 0 .555-.542v-6.067a.544.544 0 0 0-.555-.555ZM4.211 10.127h4.642c.668 0 1.21-.543 1.21-1.211V4.274c0-.669-.542-1.21-1.21-1.21H4.21C3.542 3.063 3 3.604 3 4.273v4.642c0 .668.542 1.21 1.21 1.21ZM19.789 3.05h-4.642c-.668 0-1.21.543-1.21 1.211v4.642c0 .669.542 1.211 1.21 1.211h4.642c.669 0 1.211-.542 1.211-1.21V4.26a1.22 1.22 0 0 0-1.21-1.21ZM8.853 13.873H4.21c-.669 0-1.211.543-1.211 1.211v4.642c0 .669.542 1.21 1.21 1.21h4.643c.668 0 1.21-.541 1.21-1.21v-4.642a1.195 1.195 0 0 0-1.21-1.21Z"/></svg>