<svg xmlns="http://www.w3.org/2000/svg" width="23" height="23"><path d="M10.044 6.127c.288-.943 1.624-.943 1.912 0l.624 2.039a1 1 0 0 0 .956.707h2.14c.955 0 1.367 1.209.612 1.792l-1.834 1.416a1 1 0 0 0-.346 1.084l.676 2.209c.285.932-.796 1.68-1.567 1.084l-1.606-1.24a1 1 0 0 0-1.222 0l-1.606 1.24c-.771.596-1.852-.152-1.567-1.084l.676-2.21a1 1 0 0 0-.346-1.083l-1.834-1.416c-.755-.583-.343-1.792.611-1.792h2.141a1 1 0 0 0 .956-.707l.624-2.039Z"/><path d="M13.415.5H8.902C4.107.5.158 4.081.158 8.43v6.14c0 4.349 3.949 7.93 8.744 7.93h4.513c4.794 0 8.743-3.581 8.743-7.93V8.43c0-4.349-3.949-7.93-8.743-7.93Zm7.05 14.07c0 2.353-1.41 4.4-3.497 5.525C13 21.5 10 21.5 5.348 20.147c-2.087-1.177-3.497-3.224-3.497-5.577V8.43c0-3.53 3.158-6.395 7.05-6.395h4.514c3.892 0 7.05 2.865 7.05 6.395v6.14Z"/></svg>