<?xml version="1.0" standalone="no"?><!DOCTYPE svg PUBLIC "-//W3C//DTD SVG 1.1//EN" "http://www.w3.org/Graphics/SVG/1.1/DTD/svg11.dtd"><svg t="1711524543356" class="icon" viewBox="0 0 1024 1024" version="1.1" xmlns="http://www.w3.org/2000/svg" p-id="5094" xmlns:xlink="http://www.w3.org/1999/xlink" width="24" height="24"><path d="M512 672A160 160 0 1 1 672 512 160.170667 160.170667 0 0 1 512 672z m0-256A96 96 0 1 0 608 512 96.085333 96.085333 0 0 0 512 416z m21.333333 512h-42.666666a96.085333 96.085333 0 0 1-96-96 15.488 15.488 0 0 0-9.386667-14.506667h-0.341333a14.08 14.08 0 0 0-15.36 3.072 97.749333 97.749333 0 0 1-136.533334 0.896l-29.866666-30.122666a96.042667 96.042667 0 0 1 0-135.978667 15.616 15.616 0 0 0 3.285333-16.768 14.378667 14.378667 0 0 0-13.184-9.130667A96.341333 96.341333 0 0 1 96 533.333333v-42.666666A96.085333 96.085333 0 0 1 192 394.666667a15.36 15.36 0 0 0 14.464-9.386667v-0.341333a14.165333 14.165333 0 0 0-3.072-15.36 96 96 0 0 1-0.896-136.533334l30.250667-30.250666a98.133333 98.133333 0 0 1 135.765333 0 15.616 15.616 0 0 0 17.066667 3.669333 14.250667 14.250667 0 0 0 9.045333-13.141333A96.341333 96.341333 0 0 1 490.666667 96h42.666666a96.085333 96.085333 0 0 1 96 96 14.592 14.592 0 0 0 8.96 14.208 15.445333 15.445333 0 0 0 16.341334-2.688 95.616 95.616 0 0 1 68.266666-28.842667 95.36 95.36 0 0 1 67.882667 28.117334l30.122667 30.08a96 96 0 0 1 0 135.765333 14.634667 14.634667 0 0 0-3.882667 16.426667l0.256 0.597333a14.165333 14.165333 0 0 0 13.098667 8.96A96.341333 96.341333 0 0 1 928 490.666667v42.666666a96.085333 96.085333 0 0 1-96 96 14.592 14.592 0 0 0-14.208 8.96 15.573333 15.573333 0 0 0 2.688 16.341334 96 96 0 0 1 0.725333 136.533333l-29.866666 30.122667a98.133333 98.133333 0 0 1-135.765334 0 14.677333 14.677333 0 0 0-16.426666-3.882667 15.061333 15.061333 0 0 0-9.557334 13.354667A96.341333 96.341333 0 0 1 533.333333 928z m-119.850666-167.765333a79.658667 79.658667 0 0 1 45.184 70.570666 32.298667 32.298667 0 0 0 32 33.194667h42.666666a32 32 0 0 0 32-32 79.829333 79.829333 0 0 1 49.28-73.770667 77.824 77.824 0 0 1 85.034667 17.066667 32.213333 32.213333 0 0 0 46.165333 0.896l30.122667-29.866667a32.085333 32.085333 0 0 0 0-45.354666 79.957333 79.957333 0 0 1-17.621333-85.76v-0.597334l0.298666-0.725333a77.696 77.696 0 0 1 72.149334-48.213333 32.256 32.256 0 0 0 33.109333-32v-42.666667a32 32 0 0 0-32-32 78.421333 78.421333 0 0 1-73.344-48.213333 78.336 78.336 0 0 1 16.64-86.528 32.682667 32.682667 0 0 0 10.282667-23.552 31.701333 31.701333 0 0 0-9.386667-22.613334l-29.866667-30.122666a32 32 0 0 0-22.656-9.344 31.573333 31.573333 0 0 0-22.656 9.429333 80.128 80.128 0 0 1-85.76 17.621333h-0.597333l-0.725333-0.298666a77.696 77.696 0 0 1-48.213334-72.149334 32.256 32.256 0 0 0-32-33.109333h-42.666666a32 32 0 0 0-32 32 78.421333 78.421333 0 0 1-48.981334 73.429333A79.402667 79.402667 0 0 1 324.266667 248.832a32.298667 32.298667 0 0 0-46.08-0.896l-30.250667 30.250667a32 32 0 0 0 0 45.269333A78.421333 78.421333 0 0 1 265.770667 409.6a39.765333 39.765333 0 0 1-2.005334 4.266667 79.658667 79.658667 0 0 1-70.570666 44.8 32.298667 32.298667 0 0 0-33.194667 32v42.666666a32 32 0 0 0 32 32 78.208 78.208 0 0 1 73.301333 48.384l0.256 0.554667v0.597333a79.786667 79.786667 0 0 1-17.066666 85.333334 32.042667 32.042667 0 0 0-0.64 45.866666l30.122666 29.866667a32.768 32.768 0 0 0 45.269334 0 78.464 78.464 0 0 1 86.357333-17.706667 39.765333 39.765333 0 0 1 3.882667 2.005334z" fill="#41416D" p-id="5095"></path></svg>