<svg xmlns="http://www.w3.org/2000/svg" width="24" height="24" class="icon" viewBox="0 0 1024 1024"><path d="M362.667 160a138.667 138.667 0 0 0-134.571 106.667H128a32 32 0 0 0 0 64h100.096A138.496 138.496 0 1 0 362.666 160zm0 213.333a74.667 74.667 0 1 1 74.666-74.666 74.752 74.752 0 0 1-74.666 74.666zM608 298.667a32 32 0 0 1 32-32h256a32 32 0 0 1 0 64H640a32 32 0 0 1-32-32zm288 394.666H795.904a138.667 138.667 0 1 0 0 64H896a32 32 0 0 0 0-64zM661.333 800A74.667 74.667 0 1 1 736 725.333 74.752 74.752 0 0 1 661.333 800zM416 725.333a32 32 0 0 1-32 32H128a32 32 0 0 1 0-64h256a32 32 0 0 1 32 32z"/></svg>