<svg xmlns="http://www.w3.org/2000/svg" width="24" height="24" class="icon" viewBox="0 0 1024 1024"><path d="M586.667 768a32 32 0 0 1-32 32h-85.334a32 32 0 0 1 0-64h85.334a32 32 0 0 1 32 32zm256-469.333v426.666A202.923 202.923 0 0 1 640 928H384a202.923 202.923 0 0 1-202.667-202.667V298.667A202.923 202.923 0 0 1 384 96h256a202.923 202.923 0 0 1 202.667 202.667zm-64 0A138.837 138.837 0 0 0 640 160H384a138.837 138.837 0 0 0-138.667 138.667v426.666A138.837 138.837 0 0 0 384 864h256a138.837 138.837 0 0 0 138.667-138.667z"/></svg>