<?xml version="1.0" standalone="no"?><!DOCTYPE svg PUBLIC "-//W3C//DTD SVG 1.1//EN" "http://www.w3.org/Graphics/SVG/1.1/DTD/svg11.dtd"><svg t="1713506539208" class="icon" viewBox="0 0 1024 1024" version="1.1" xmlns="http://www.w3.org/2000/svg" p-id="5745" width="24" height="24" xmlns:xlink="http://www.w3.org/1999/xlink"><path d="M934.180175 30.80394h-71.60986a15.21997 15.21997 0 1 0 0 30.43994h71.60986c32.741936 0 59.379884 26.637948 59.379884 59.379884V730.218574c0 32.741936-26.637948 59.379884-59.379884 59.379884H514.214996c-32.743936 0-59.379884-26.637948-59.379884-59.379884V120.621764c0-32.741936 26.637948-59.379884 59.379884-59.379884h297.625418a15.21997 15.21997 0 1 0 0-30.43994H514.214996c-49.527903 0-89.819825 40.291921-89.819825 89.819824v609.59481c0 49.527903 40.291921 89.819825 89.819825 89.819824h419.965179c49.527903 0 89.819825-40.291921 89.819825-89.819824V120.621764c-0.002-49.525903-40.293921-89.817825-89.819825-89.817824zM390.177238 203.963602H89.819825c-49.527903 0-89.819825 40.291921-89.819825 89.819824v400.973217a15.21997 15.21997 0 1 0 30.439941 0V293.783426c0-32.743936 26.637948-59.379884 59.381884-59.379884H390.179238a15.21997 15.21997 0 1 0-0.002-30.43994z" p-id="5746"></path><path d="M584.384859 838.976361a15.21997 15.21997 0 0 0-15.219971 15.219971v49.181904c0 32.743936-26.637948 59.379884-59.379884 59.379884H89.819825c-32.743936 0-59.381884-26.639948-59.381884-59.379884v-157.887692a15.21997 15.21997 0 1 0-30.437941 0v157.887692c0 49.527903 40.291921 89.819825 89.819825 89.819824h419.965179c49.527903 0 89.819825-40.291921 89.819825-89.819824v-49.181904a15.21997 15.21997 0 0 0-15.21997-15.219971zM861.246318 425.419169l55.343892-95.859813a15.21997 15.21997 0 0 0-13.179974-22.829955H792.718452l-55.343892-95.859813a15.21797 15.21797 0 0 0-26.359949 0l-55.343892 95.859813h-110.689783a15.21997 15.21997 0 0 0-13.179975 22.829955l55.343892 95.859813-55.343892 95.859813a15.21997 15.21997 0 0 0 13.179975 22.829955h110.689783l55.343892 95.859813a15.21997 15.21997 0 0 0 26.359949 0l55.343892-95.859813h110.691784a15.21997 15.21997 0 0 0 13.179974-22.829955l-55.343892-95.859813z m15.805969-88.251828l-33.377935 57.811888-33.377935-57.811888h66.75587z m-152.855701-88.249827l33.377934 57.811887h-66.757869l33.379935-57.811887z m-152.855702 88.249827h66.75787l-33.377935 57.811888-33.379935-57.811888z m0 176.501656l33.377935-57.811887 33.377935 57.811887h-66.75587z m152.855702 88.251827l-33.377935-57.811887h66.757869l-33.379934 57.811887z m50.9499-88.251827h-101.903801l-50.9519-88.249828 50.9519-88.249828h101.903801l50.951901 88.249828-50.951901 88.249828z m35.147931 0l33.377935-57.811887 33.377935 57.811887h-66.75587zM613.602802 139.297728h-21.305959V117.98977a15.21997 15.21997 0 0 0-30.43994 0v21.305958h-21.305959a15.21997 15.21997 0 0 0 0 30.43994h21.305959v21.305959a15.21997 15.21997 0 1 0 30.43994 0V169.735668h21.305959a15.21997 15.21997 0 1 0 0-30.43794zM907.840227 681.10067h-21.305959v-21.305959a15.21997 15.21997 0 1 0-30.43994 0v21.305959h-21.305958a15.21997 15.21997 0 1 0 0 30.43994h21.305958v21.305959a15.21997 15.21997 0 1 0 30.43994 0v-21.305959h21.305959a15.21997 15.21997 0 1 0 0-30.43994zM189.20963 312.45739H167.903672v-21.305959a15.21997 15.21997 0 1 0-30.43994 0v21.305959H116.157773a15.21997 15.21997 0 1 0 0 30.43994h21.305959v21.305959a15.21997 15.21997 0 1 0 30.43994 0v-21.305959h21.305958a15.21997 15.21997 0 1 0 0-30.43994z" p-id="5747"></path><path d="M483.445056 854.264332H462.139097V832.958373a15.21997 15.21997 0 1 0-30.43994 0v21.305959h-21.305959a15.21997 15.21997 0 1 0 0 30.43994h21.305959v21.305958a15.21997 15.21997 0 1 0 30.43994 0v-21.305958h21.305959a15.21997 15.21997 0 1 0 0-30.43994zM387.571243 731.834571c-62.863877 41.505919-147.215712 32.901936-200.569608-20.45396-62.199879-62.199879-62.199879-163.405681 0-225.60756 18.667964-18.667964 41.11392-32.097937 65.469872-39.643922-0.579999 0.559999-1.153998 1.123998-1.723997 1.693996-55.087892 55.087892-55.087892 144.721717 0 199.80961a141.083724 141.083724 0 0 0 153.063701 31.033939 15.21997 15.21997 0 1 0-11.439977-28.203944 110.707784 110.707784 0 0 1-120.103766-24.349953c-43.219916-43.219916-43.219916-113.543778 0-156.765694a110.599784 110.599784 0 0 1 52.479898-29.403942 15.21997 15.21997 0 0 0-1.685997-29.909942c-58.509886-7.177986-115.951774 12.581975-157.583692 54.213894-35.87993 35.87993-55.639891 83.583837-55.639892 134.325738 0 50.741901 19.759961 98.447808 55.639892 134.325738 36.607929 36.607929 85.467833 55.519892 134.633737 55.519891 36.163929 0 72.497858-10.23598 104.229796-31.187939a15.21597 15.21597 0 0 0 4.313992-21.085959 15.21397 15.21397 0 0 0-21.083959-4.309991z" p-id="5748"></path></svg>