<?xml version="1.0" standalone="no"?><!DOCTYPE svg PUBLIC "-//W3C//DTD SVG 1.1//EN" "http://www.w3.org/Graphics/SVG/1.1/DTD/svg11.dtd"><svg t="1711524535347" class="icon" viewBox="0 0 1024 1024" version="1.1" xmlns="http://www.w3.org/2000/svg" p-id="4780" xmlns:xlink="http://www.w3.org/1999/xlink" width="24" height="24"><path d="M662.613333 406.613333L557.269333 512l105.344 105.386667a32 32 0 1 1-45.226666 45.226666L512 557.269333 406.613333 662.613333a32 32 0 0 1-45.226666-45.226666L466.730667 512 361.386667 406.613333a32 32 0 0 1 45.226666-45.226666L512 466.730667l105.386667-105.344a32 32 0 0 1 45.226666 45.226666zM928 384v256A288.341333 288.341333 0 0 1 640 928H384A288.341333 288.341333 0 0 1 96 640V384A288.341333 288.341333 0 0 1 384 96h256A288.341333 288.341333 0 0 1 928 384z m-64 0A224.256 224.256 0 0 0 640 160H384A224.256 224.256 0 0 0 160 384v256A224.256 224.256 0 0 0 384 864h256A224.256 224.256 0 0 0 864 640z" fill="#41416E" p-id="4781"></path></svg>