<?xml version="1.0" standalone="no"?><!DOCTYPE svg PUBLIC "-//W3C//DTD SVG 1.1//EN" "http://www.w3.org/Graphics/SVG/1.1/DTD/svg11.dtd"><svg t="1711524525900" class="icon" viewBox="0 0 1024 1024" version="1.1" xmlns="http://www.w3.org/2000/svg" p-id="4624" xmlns:xlink="http://www.w3.org/1999/xlink" width="24" height="24"><path d="M512 544A224 224 0 1 0 288 320 224.256 224.256 0 0 0 512 544z m0-384A160 160 0 1 1 352 320 160.170667 160.170667 0 0 1 512 160z m330.666667 606.592v43.136a160.810667 160.810667 0 0 1-41.002667 107.605333 32 32 0 1 1-47.701333-42.666666 97.194667 97.194667 0 0 0 24.704-64.938667v-43.136a139.050667 139.050667 0 0 0-104.234667-135.893333 43.136 43.136 0 0 0-31.829333 4.266666 269.098667 269.098667 0 0 1-260.949334 0 43.221333 43.221333 0 0 0-32.042666-4.266666 139.178667 139.178667 0 0 0-104.277334 135.893333v43.136a97.194667 97.194667 0 0 0 24.704 64.938667 32 32 0 1 1-47.701333 42.666666 160.810667 160.810667 0 0 1-41.002667-107.605333v-43.136a203.050667 203.050667 0 0 1 152.618667-197.973333 107.904 107.904 0 0 1 79.104 10.538666 204.8 204.8 0 0 0 198.144 0 107.733333 107.733333 0 0 1 78.890667-10.410666 203.050667 203.050667 0 0 1 152.576 197.845333z" fill="#41416E" p-id="4625"></path></svg>