<svg class="icon" viewBox="0 0 1024 1024" xmlns="http://www.w3.org/2000/svg" width="24" height="24"><path d="M661.33 842.67H362.67c-116.95 0-181.34-64.39-181.34-181.34V362.67c0-116.95 64.39-181.34 181.34-181.34h298.66c116.95 0 181.34 64.39 181.34 181.34v298.66c0 116.95-64.39 181.34-181.34 181.34zM362.67 245.33c-82.22 0-117.34 35.12-117.34 117.34v298.66c0 82.26 35.12 117.34 117.34 117.34h298.66c82.26 0 117.34-35.12 117.34-117.34V362.67c0-82.22-35.08-117.34-117.34-117.34z"/><path d="M341.33 117.33a32.21 32.21 0 0 1-32-32 32.21 32.21 0 0 1 32-32h341.34a32.21 32.21 0 0 1 32 32 32.21 32.21 0 0 1-32 32zm0 853.34a32.21 32.21 0 0 1-32-32 32.21 32.21 0 0 1 32-32h341.34a32.21 32.21 0 0 1 32 32 32.21 32.21 0 0 1-32 32zm149.34-405.34a32.21 32.21 0 0 1-32-32v-128a32.21 32.21 0 0 1 32-32 32.21 32.21 0 0 1 32 32v96h96a32 32 0 0 1 0 64z"/></svg>