<svg width="112" height="96" viewBox="0 0 112 96" fill="none" xmlns="http://www.w3.org/2000/svg">
<g clip-path="url(#clip0_362_1493)">
<path d="M92.8566 81.3943C93.028 81.3697 93.1927 21.2422 93.3686 21.2243C96.1016 20.9527 98.8343 21.7431 101 23.4315C103.166 25.1199 104.6 27.5769 105.004 30.2935L111.643 75.0008C111.849 76.3897 111.779 77.8057 111.438 79.1677C111.097 80.5298 110.491 81.8114 109.655 82.9393C108.819 84.0672 107.768 85.0192 106.564 85.7412C105.36 86.4631 104.025 86.9408 102.636 87.1469L49.6921 95.0082C46.8988 95.4227 44.0549 94.7155 41.7811 93.041C39.5073 91.3665 37.9881 88.8606 37.555 86.0701C37.555 86.0477 37.5483 84.9048 37.5449 84.8813" fill="#CCCCCC"/>
<path d="M83.8301 85.0939H30.3056C27.0252 85.0903 23.8803 83.7857 21.5606 81.4662C19.2409 79.1467 17.936 76.0018 17.9321 72.7215V44.4247C17.9321 43.979 18.1092 43.5515 18.4244 43.2363C18.7396 42.9211 19.1671 42.744 19.6129 42.744C20.0586 42.744 20.4861 42.9211 20.8013 43.2363C21.1165 43.5515 21.2936 43.979 21.2936 44.4247V72.7215C21.2966 75.1106 22.247 77.401 23.9365 79.0903C25.626 80.7796 27.9165 81.7297 30.3056 81.7324H83.8301C86.2191 81.7294 88.5093 80.7791 90.1985 79.0899C91.8878 77.4007 92.8381 75.1104 92.8411 72.7215V27.52C92.8384 25.1309 91.8882 22.8403 90.199 21.1509C88.5097 19.4614 86.2193 18.5109 83.8301 18.5079H45.4647C45.0189 18.5079 44.5914 18.3309 44.2762 18.0157C43.961 17.7005 43.784 17.273 43.784 16.8272C43.784 16.3815 43.961 15.954 44.2762 15.6388C44.5914 15.3236 45.0189 15.1465 45.4647 15.1465H83.8301C87.1105 15.1503 90.2554 16.4552 92.5749 18.7749C94.8943 21.0946 96.199 24.2396 96.2025 27.52V72.7215C96.199 76.0017 94.8943 79.1466 92.5748 81.4661C90.2553 83.7856 87.1104 85.0903 83.8301 85.0939Z" fill="#999999"/>
<path d="M20.9461 38.4966C31.1128 38.4966 39.3545 30.2548 39.3545 20.0881C39.3545 9.92143 31.1128 1.67969 20.9461 1.67969C10.7793 1.67969 2.5376 9.92143 2.5376 20.0881C2.5376 30.2548 10.7793 38.4966 20.9461 38.4966Z" stroke="#999999" stroke-width="3" stroke-linecap="round"/>
<path d="M27.8513 21.0387H14.0458C13.7941 21.0387 13.5527 20.9387 13.3747 20.7608C13.1967 20.5828 13.0967 20.3414 13.0967 20.0897C13.0967 19.838 13.1967 19.5966 13.3747 19.4186C13.5527 19.2406 13.7941 19.1406 14.0458 19.1406H27.8513C28.103 19.1406 28.3444 19.2406 28.5224 19.4186C28.7004 19.5966 28.8003 19.838 28.8003 20.0897C28.8003 20.3414 28.7004 20.5828 28.5224 20.7608C28.3444 20.9387 28.103 21.0387 27.8513 21.0387Z" fill="#999999" stroke="#999999"/>
<path d="M20.9466 27.9419C20.822 27.9419 20.6986 27.9173 20.5834 27.8696C20.4683 27.8219 20.3637 27.752 20.2756 27.6639C20.1874 27.5758 20.1175 27.4712 20.0698 27.356C20.0221 27.2409 19.9976 27.1175 19.9976 26.9928V13.1873C19.9976 12.9356 20.0976 12.6942 20.2756 12.5163C20.4535 12.3383 20.6949 12.2383 20.9466 12.2383C21.1983 12.2383 21.4397 12.3383 21.6177 12.5163C21.7957 12.6942 21.8956 12.9356 21.8956 13.1873V26.9928C21.8956 27.1175 21.8711 27.2409 21.8234 27.356C21.7757 27.4712 21.7058 27.5758 21.6177 27.6639C21.5296 27.752 21.425 27.8219 21.3098 27.8696C21.1947 27.9173 21.0712 27.9419 20.9466 27.9419Z" fill="#999999" stroke="#999999"/>
<path d="M34.8208 64.4626L46.6043 51.2928L56.3083 64.4626L70.1713 38.123L82.6479 64.4626H56.3083H34.8208Z" fill="#999999" stroke="#999999" stroke-width="3" stroke-linejoin="round"/>
</g>
<defs>
<clipPath id="clip0_362_1493">
<rect width="110.903" height="95.1269" fill="white" transform="translate(0.856934)"/>
</clipPath>
</defs>
</svg>
