<svg width="101" height="100" viewBox="0 0 101 100" fill="none" xmlns="http://www.w3.org/2000/svg">
<g id="Frame 1216471460" clip-path="url(#clip0_5258_9138)">
<rect width="100" height="100" transform="translate(0.125)" fill="white"/>
<circle id="Ellipse 25392" cx="50.125" cy="50" r="49.5" stroke="black"/>
<g id="Frame 1000007210" clip-path="url(#clip1_5258_9138)">
<path id="1min" d="M28.4178 58.8359V42.9429L29.1768 43.5409H24.5998V42.0459H30.1428V58.8359H28.4178ZM35.3412 58.8359V46.6459H36.7212V51.7749H36.4452C36.4452 50.6556 36.5985 49.6896 36.9052 48.8769C37.2272 48.0643 37.7025 47.4356 38.3312 46.9909C38.9599 46.5309 39.7572 46.3009 40.7232 46.3009H40.7922C41.7582 46.3009 42.5555 46.5233 43.1842 46.9679C43.8129 47.4126 44.2805 48.0413 44.5872 48.8539C44.8939 49.6666 45.0472 50.6403 45.0472 51.7749H44.4952C44.4952 50.6556 44.6485 49.6896 44.9552 48.8769C45.2772 48.0643 45.7525 47.4356 46.3812 46.9909C47.0252 46.5309 47.8302 46.3009 48.7962 46.3009H48.8652C49.8312 46.3009 50.6285 46.5233 51.2572 46.9679C51.9012 47.4126 52.3765 48.0413 52.6832 48.8539C53.0052 49.6666 53.1662 50.6403 53.1662 51.7749V58.8359H51.4412V51.3839C51.4412 50.3106 51.1805 49.4596 50.6592 48.8309C50.1379 48.2023 49.3865 47.8879 48.4052 47.8879C47.3932 47.8879 46.5882 48.2176 45.9902 48.8769C45.4075 49.5209 45.1162 50.3949 45.1162 51.4989V58.8359H43.3912V51.3839C43.3912 50.3106 43.1305 49.4596 42.6092 48.8309C42.0879 48.2023 41.3365 47.8879 40.3552 47.8879C39.3432 47.8879 38.5382 48.2176 37.9402 48.8769C37.3575 49.5209 37.0662 50.3949 37.0662 51.4989V58.8359H35.3412ZM58.1092 58.8359V46.6689H59.8112V58.8359H58.1092ZM56.1542 48.0489V46.6689H59.8112V48.0489H56.1542ZM58.4772 44.4149C58.0632 44.4149 57.7489 44.3076 57.5342 44.0929C57.3349 43.8629 57.2352 43.5793 57.2352 43.2419C57.2352 42.9046 57.3349 42.6286 57.5342 42.4139C57.7489 42.1839 58.0632 42.0689 58.4772 42.0689C58.8912 42.0689 59.1979 42.1839 59.3972 42.4139C59.5965 42.6286 59.6962 42.9046 59.6962 43.2419C59.6962 43.5793 59.5965 43.8629 59.3972 44.0929C59.1979 44.3076 58.8912 44.4149 58.4772 44.4149ZM64.3383 58.8359V46.6689H65.7183V51.7749H65.4423C65.4423 50.6403 65.6109 49.6666 65.9483 48.8539C66.2856 48.0413 66.7916 47.4126 67.4663 46.9679C68.1409 46.5233 68.9919 46.3009 70.0193 46.3009H70.0883C71.6216 46.3009 72.7639 46.7839 73.5153 47.7499C74.2666 48.7006 74.6423 50.0423 74.6423 51.7749V58.8359H72.9403V51.4069C72.9403 50.3489 72.6489 49.4979 72.0663 48.8539C71.4836 48.2099 70.6709 47.8879 69.6283 47.8879C68.5549 47.8879 67.6886 48.2253 67.0293 48.8999C66.3853 49.5593 66.0633 50.4333 66.0633 51.5219V58.8359H64.3383Z" fill="black"/>
</g>
</g>
<defs>
<clipPath id="clip0_5258_9138">
<rect width="100" height="100" fill="white" transform="translate(0.125)"/>
</clipPath>
<clipPath id="clip1_5258_9138">
<rect width="55" height="55" fill="white" transform="translate(22.625 22.5)"/>
</clipPath>
</defs>
</svg>
