<svg width="101" height="100" viewBox="0 0 101 100" fill="none" xmlns="http://www.w3.org/2000/svg">
<g id="Frame 1216471458" clip-path="url(#clip0_5258_9116)">
<rect width="100" height="100" transform="translate(0.625)" fill="white"/>
<circle id="Ellipse 25392" cx="50.625" cy="50" r="49.5" stroke="black"/>
<g id="Frame 1000007210" clip-path="url(#clip1_5258_9116)">
<rect id="Rectangle 16958" x="23.959" y="53.3359" width="53.3333" height="23.3333" rx="4" stroke="black" stroke-width="2"/>
<path id="Rectangle 16959" d="M35.6446 26.2654C36.1255 24.5341 37.7018 23.3359 39.4987 23.3359H61.7513C63.5482 23.3359 65.1245 24.5341 65.6054 26.2654L73.125 53.3359H28.125L35.6446 26.2654Z" stroke="black" stroke-width="2"/>
<g id="Frame 1216471459">
<line id="Line 148" x1="31.625" y1="60.1641" x2="31.625" y2="78.1641" stroke="black" stroke-width="2"/>
<line id="Line 150" x1="38.1523" y1="60.1641" x2="38.1523" y2="78.1641" stroke="black" stroke-width="2"/>
<line id="Line 151" x1="44.6797" y1="60.1641" x2="44.6797" y2="78.1641" stroke="black" stroke-width="2"/>
<line id="Line 152" x1="51.209" y1="60.1641" x2="51.209" y2="78.1641" stroke="black" stroke-width="2"/>
<line id="Line 153" x1="57.7363" y1="60.1641" x2="57.7363" y2="78.1641" stroke="black" stroke-width="2"/>
<line id="Line 154" x1="64.2637" y1="60.1641" x2="64.2637" y2="78.1641" stroke="black" stroke-width="2"/>
<line id="Line 149" x1="70.791" y1="60.1641" x2="70.791" y2="78.1641" stroke="black" stroke-width="2"/>
</g>
</g>
</g>
<defs>
<clipPath id="clip0_5258_9116">
<rect width="100" height="100" fill="white" transform="translate(0.625)"/>
</clipPath>
<clipPath id="clip1_5258_9116">
<rect width="55" height="55" fill="white" transform="translate(23.125 22.5)"/>
</clipPath>
</defs>
</svg>
