<svg width="101" height="100" viewBox="0 0 101 100" fill="none" xmlns="http://www.w3.org/2000/svg">
<g id="Frame 1216471463" clip-path="url(#clip0_5258_9163)">
<rect width="100" height="100" transform="translate(0.875)" fill="white"/>
<circle id="Ellipse 25392" cx="50.875" cy="50" r="49.5" stroke="black"/>
<g id="Frame 1000007210" clip-path="url(#clip1_5258_9163)">
<path id="24H" d="M23.3168 60.8359V56.9959C23.3168 56.0573 23.4448 55.2573 23.7008 54.5959C23.9781 53.9346 24.4474 53.3373 25.1088 52.8039C25.7701 52.2493 26.6661 51.7159 27.7968 51.2039L32.1808 49.1879C33.2474 48.6973 34.0901 48.0679 34.7088 47.2999C35.3274 46.5106 35.6368 45.4973 35.6368 44.2599C35.6368 42.7666 35.2208 41.6039 34.3888 40.7719C33.5568 39.9399 32.3834 39.5239 30.8688 39.5239C29.3754 39.5239 28.2021 39.9399 27.3488 40.7719C26.4954 41.6039 26.0688 42.7666 26.0688 44.2599H23.0608C23.0608 42.9159 23.3381 41.6786 23.8928 40.5479C24.4688 39.4173 25.3328 38.5213 26.4848 37.8599C27.6368 37.1773 29.0981 36.8359 30.8688 36.8359C32.6394 36.8359 34.0901 37.1773 35.2208 37.8599C36.3728 38.5213 37.2261 39.3959 37.7808 40.4839C38.3568 41.5719 38.6448 42.7559 38.6448 44.0359V44.4839C38.6448 46.1693 38.1541 47.5879 37.1728 48.7399C36.2128 49.8919 34.9114 50.8413 33.2688 51.5879L28.8848 53.6039C27.9034 54.0519 27.2421 54.4999 26.9008 54.9479C26.5594 55.3959 26.3888 55.9933 26.3888 56.7399V59.6839L25.5568 58.2119H38.9328V60.8359H23.3168ZM42.202 55.2999V51.5239L51.898 36.8999L54.042 38.5959L44.986 52.2919L45.274 52.8679H60.378V55.2999H42.202ZM54.394 60.8359V44.2919H57.274V60.8359H54.394ZM75.9813 60.8359V43.3159H77.8053V60.8359H75.9813ZM63.9333 60.8359V43.3159H65.7573V60.8359H63.9333ZM65.3493 52.9639V51.3319H76.3893V52.9639H65.3493Z" fill="black"/>
</g>
</g>
<defs>
<clipPath id="clip0_5258_9163">
<rect width="100" height="100" fill="white" transform="translate(0.875)"/>
</clipPath>
<clipPath id="clip1_5258_9163">
<rect width="55" height="55" fill="white" transform="translate(23.375 22.5)"/>
</clipPath>
</defs>
</svg>
