<svg width="101" height="100" viewBox="0 0 101 100" fill="none" xmlns="http://www.w3.org/2000/svg">
<g id="Frame 1216471461" clip-path="url(#clip0_5258_9144)">
<rect width="100" height="100" transform="translate(0.375)" fill="white"/>
<circle id="Ellipse 25392" cx="50.375" cy="50" r="49.5" stroke="black"/>
<g id="Frame 1000007210">
<path id="1440" d="M35.5052 55.8359V45.6059L36.1652 46.1159H33.0752V44.8859H36.9452V55.8359H35.5052ZM39.464 53.2409V51.4709L44.009 44.6159L45.014 45.4109L40.769 51.8309L40.904 52.1009H47.984V53.2409H39.464ZM45.179 55.8359V48.0809H46.529V55.8359H45.179ZM49.088 53.2409V51.4709L53.633 44.6159L54.638 45.4109L50.393 51.8309L50.528 52.1009H57.608V53.2409H49.088ZM54.803 55.8359V48.0809H56.153V55.8359H54.803ZM63.572 56.1059C62.752 56.1059 62.052 55.9659 61.472 55.6859C60.902 55.3959 60.437 55.0059 60.077 54.5159C59.727 54.0259 59.472 53.4609 59.312 52.8209C59.152 52.1709 59.072 51.4859 59.072 50.7659V49.9559C59.072 48.9459 59.227 48.0359 59.537 47.2259C59.857 46.4159 60.347 45.7759 61.007 45.3059C61.677 44.8259 62.532 44.5859 63.572 44.5859C64.612 44.5859 65.462 44.8259 66.122 45.3059C66.782 45.7759 67.267 46.4159 67.577 47.2259C67.897 48.0359 68.057 48.9459 68.057 49.9559V50.7659C68.057 51.4859 67.977 52.1709 67.817 52.8209C67.657 53.4609 67.397 54.0259 67.037 54.5159C66.687 55.0059 66.227 55.3959 65.657 55.6859C65.087 55.9659 64.392 56.1059 63.572 56.1059ZM63.572 54.7859C64.612 54.7859 65.372 54.4359 65.852 53.7359C66.342 53.0259 66.587 51.9059 66.587 50.3759C66.587 48.7759 66.337 47.6309 65.837 46.9409C65.347 46.2509 64.592 45.9059 63.572 45.9059C62.542 45.9059 61.777 46.2509 61.277 46.9409C60.787 47.6309 60.542 48.7659 60.542 50.3459C60.542 51.8859 60.787 53.0109 61.277 53.7209C61.767 54.4309 62.532 54.7859 63.572 54.7859Z" fill="black"/>
<path id="Ellipse 25395" d="M62.4577 28.7526C57.8744 25.8359 53.6954 25.8359 50.3744 25.8359C37.4877 25.8359 27.041 36.2826 27.041 49.1693C27.041 62.0559 37.4877 72.5026 50.3744 72.5026C63.261 72.5026 73.7077 62.0559 73.7077 49.1693C73.7077 47.8443 73.5972 46.5451 73.3851 45.2804" stroke="black" stroke-width="2" stroke-linecap="round"/>
<path id="Line 155" d="M62.4277 24.2422L63.8949 29.5888" stroke="black" stroke-width="2" stroke-linecap="round"/>
<path id="Line 156" d="M58.709 31.1016L63.8962 29.5893" stroke="black" stroke-width="2" stroke-linecap="round"/>
</g>
</g>
<defs>
<clipPath id="clip0_5258_9144">
<rect width="100" height="100" fill="white" transform="translate(0.375)"/>
</clipPath>
</defs>
</svg>
