<svg width="81" height="80" viewBox="0 0 81 80" fill="none" xmlns="http://www.w3.org/2000/svg">
<g id="Frame 1000007207">
<rect x="0.666016" width="80" height="80" rx="16" fill="#C7DCFF"/>
<g id="chat-consultation-phone--Streamline-Ultimate" clip-path="url(#clip0_5242_8462)">
<path id="Vector" d="M32 35H22C19.7909 35 18 36.7269 18 38.8571V58.143C18 60.2733 19.7909 62 22 62H32H37H41.9999C44.2091 62 46 60.2733 46 58.143V48.5001" stroke="#0052D9" stroke-width="3" stroke-linecap="round" stroke-linejoin="round"/>
<path id="Vector_2" d="M18 49.143H24.806L28.8895 44L34.3345 53L38.418 47.8572H46" stroke="#0052D9" stroke-width="3" stroke-linecap="round" stroke-linejoin="round"/>
<path id="Vector_3" d="M46.3675 40.6412L35.7441 43.6766L37.2619 34.5707V20.754C37.2619 19.949 37.5817 19.177 38.1509 18.6078C38.7201 18.0385 39.492 17.7188 40.297 17.7188H60.0264C60.8314 17.7188 61.6035 18.0385 62.1727 18.6078C62.7419 19.177 63.0615 19.949 63.0615 20.754V37.6059C63.0615 38.4109 62.7417 39.1829 62.1725 39.7522C61.6035 40.3214 60.8314 40.6412 60.0264 40.6412H46.3675Z" stroke="#0052D9" stroke-width="3" stroke-linecap="round" stroke-linejoin="round"/>
<path id="Jun" d="M43.333 33.209C42.7243 33.209 42.1963 33.0953 41.749 32.868C41.309 32.6333 40.968 32.296 40.726 31.856C40.4913 31.416 40.374 30.8807 40.374 30.25V29.843H42.156V30.349C42.156 30.701 42.2587 30.987 42.464 31.207C42.6767 31.4197 42.9663 31.526 43.333 31.526C43.6923 31.526 43.9747 31.4197 44.18 31.207C44.3927 30.987 44.499 30.701 44.499 30.349V26.323H46.303V30.25C46.303 30.8807 46.182 31.416 45.94 31.856C45.7053 32.296 45.3643 32.6333 44.917 32.868C44.477 33.0953 43.949 33.209 43.333 33.209ZM41.309 26.543V24.97H46.303V26.543H41.309ZM49.9064 33.187C49.2097 33.187 48.6744 32.9633 48.3004 32.516C47.9264 32.0613 47.7394 31.3793 47.7394 30.47V26.972H49.4994V30.558C49.4994 30.8807 49.591 31.1373 49.7744 31.328C49.9577 31.5187 50.2034 31.614 50.5114 31.614C50.8267 31.614 51.0834 31.515 51.2814 31.317C51.4794 31.119 51.5784 30.8513 51.5784 30.514V26.972H53.3384V33H51.9414V30.459H52.0624C52.0624 31.0677 51.9817 31.5773 51.8204 31.988C51.6664 32.3913 51.4354 32.692 51.1274 32.89C50.8194 33.088 50.438 33.187 49.9834 33.187H49.9064ZM54.9612 33V26.972H56.3582V29.557H56.2592C56.2592 28.941 56.3362 28.4277 56.4902 28.017C56.6515 27.6063 56.8935 27.2983 57.2162 27.093C57.5389 26.8877 57.9312 26.785 58.3932 26.785H58.4702C59.1742 26.785 59.7095 27.016 60.0762 27.478C60.4502 27.9327 60.6372 28.6257 60.6372 29.557V33H58.8772V29.458C58.8772 29.1353 58.7819 28.8713 58.5912 28.666C58.4005 28.4607 58.1439 28.358 57.8212 28.358C57.4912 28.358 57.2235 28.4643 57.0182 28.677C56.8202 28.8823 56.7212 29.1537 56.7212 29.491V33H54.9612Z" fill="#0052D9"/>
</g>
</g>
<defs>
<clipPath id="clip0_5242_8462">
<rect width="48.0023" height="48.0023" fill="white" transform="translate(16.6699 16)"/>
</clipPath>
</defs>
</svg>
