<svg width="101" height="100" viewBox="0 0 101 100" fill="none" xmlns="http://www.w3.org/2000/svg">
<g id="Frame 1216471459" clip-path="url(#clip0_5258_9184)">
<rect width="100" height="100" transform="translate(0.375)" fill="white"/>
<circle id="Ellipse 25392" cx="50.375" cy="50" r="49.5" stroke="black"/>
<g id="Frame 1000007210" clip-path="url(#clip1_5258_9184)">
<rect id="Rectangle 16958" x="23.709" y="53.3359" width="53.3333" height="23.3333" rx="4" stroke="black" stroke-width="2"/>
<path id="Rectangle 16959" d="M35.3946 26.2654C35.8755 24.5341 37.4518 23.3359 39.2487 23.3359H61.5013C63.2982 23.3359 64.8745 24.5341 65.3554 26.2654L72.875 53.3359H27.875L35.3946 26.2654Z" stroke="black" stroke-width="2"/>
<g id="Frame 1216471459_2">
<line id="Line 148" x1="31.375" y1="60.1641" x2="31.375" y2="78.1641" stroke="black" stroke-width="2"/>
<line id="Line 150" x1="37.9023" y1="60.1641" x2="37.9023" y2="78.1641" stroke="black" stroke-width="2"/>
<line id="Line 151" x1="44.4297" y1="60.1641" x2="44.4297" y2="78.1641" stroke="black" stroke-width="2"/>
<line id="Line 152" x1="50.959" y1="60.1641" x2="50.959" y2="78.1641" stroke="black" stroke-width="2"/>
<line id="Line 153" x1="57.4863" y1="60.1641" x2="57.4863" y2="78.1641" stroke="black" stroke-width="2"/>
<line id="Line 154" x1="64.0137" y1="60.1641" x2="64.0137" y2="78.1641" stroke="black" stroke-width="2"/>
<line id="Line 149" x1="70.541" y1="60.1641" x2="70.541" y2="78.1641" stroke="black" stroke-width="2"/>
</g>
</g>
</g>
<defs>
<clipPath id="clip0_5258_9184">
<rect width="100" height="100" fill="white" transform="translate(0.375)"/>
</clipPath>
<clipPath id="clip1_5258_9184">
<rect width="55" height="55" fill="white" transform="translate(22.875 22.5)"/>
</clipPath>
</defs>
</svg>
