<svg width="101" height="100" viewBox="0 0 101 100" fill="none" xmlns="http://www.w3.org/2000/svg">
<g id="Frame 1216471460" clip-path="url(#clip0_5258_9131)">
<rect width="100" height="100" transform="translate(0.875)" fill="white"/>
<circle id="Ellipse 25392" cx="50.875" cy="50" r="49.5" stroke="black"/>
<g id="Frame 1000007210" clip-path="url(#clip1_5258_9131)">
<path id="Ellipse 25393" d="M70.7077 51.8103C70.7077 62.6781 61.8345 71.5 50.8743 71.5C39.9142 71.5 31.041 62.6781 31.041 51.8103C31.041 49.2253 32.2323 46.1546 34.1557 42.9212C36.0647 39.7119 38.6247 36.4573 41.2073 33.532C43.7865 30.6107 46.3688 28.0397 48.3078 26.1979C49.2767 25.2776 50.0836 24.5408 50.6471 24.0349C50.728 23.9624 50.8038 23.8946 50.8743 23.8317C50.9449 23.8946 51.0207 23.9624 51.1016 24.0349C51.6651 24.5408 52.472 25.2776 53.4409 26.1979C55.3799 28.0397 57.9622 30.6107 60.5414 33.532C63.124 36.4573 65.684 39.7119 67.593 42.9212C69.5163 46.1546 70.7077 49.2253 70.7077 51.8103Z" stroke="black" stroke-width="2"/>
<path id="Ellipse 25394" d="M71.7077 65.8359C71.7077 71.819 62.3803 76.6693 50.8743 76.6693C44.9164 76.6693 39.5425 75.3688 35.7454 73.2839C32.2096 71.3424 30.041 68.7209 30.041 65.8359" stroke="black" stroke-width="2"/>
</g>
</g>
<defs>
<clipPath id="clip0_5258_9131">
<rect width="100" height="100" fill="white" transform="translate(0.875)"/>
</clipPath>
<clipPath id="clip1_5258_9131">
<rect width="55" height="55" fill="white" transform="translate(23.375 22.5)"/>
</clipPath>
</defs>
</svg>
