<svg width="25" height="24" viewBox="0 0 25 24" fill="none" xmlns="http://www.w3.org/2000/svg">
<g id="Frame">
<rect width="24.6316" height="24" rx="12" fill="#F3BA2F"/>
<path id="Vector" d="M8.89279 10.7235L12.0005 7.61615L15.1091 10.7248L16.9173 8.91685L12.0005 4L7.08487 8.91529L8.89279 10.7232M4 12.0005L5.80823 10.1919L7.61615 12.0005L5.80792 13.8078L4 12.0005ZM8.89279 13.2771L12.0005 16.3842L15.1091 13.2755L16.9183 15.0825L12.0005 20.0009L7.08487 15.085L7.08237 15.0822L8.89279 13.2768M16.3842 12.0005L18.1921 10.1926L20.0009 12.0005L18.193 13.8084L16.3842 12.0005Z" fill="white"/>
<path id="Vector_2" d="M13.8333 12.0001L12.0001 10.1641L10.6438 11.5198L10.4875 11.676L10.1666 11.997L10.1641 11.9995L10.1666 12.002L12.0001 13.8352L13.8346 12.0007H13.833" fill="white"/>
</g>
</svg>
