<svg width="65" height="64" xmlns="http://www.w3.org/2000/svg"><path d="M16.53 25.36c0-1.1.9-2 2-2 1.1.02 1.99.9 2 2v10.67a2 2 0 0 1-4 0V25.36ZM37.87 25.36c0-1.1.9-2 2-2 1.1.02 1.98.9 2 2v10.67a2 2 0 0 1-4 0V25.36ZM29.2 23.36a2 2 0 0 0-2 2v10.67a2 2 0 0 0 4 0V25.36a2.03 2.03 0 0 0-2-2Z"/><path fill-rule="evenodd" clip-rule="evenodd" d="M51.81 20.7h1.39c2.5 0 4.53 1.98 4.59 4.48v10.98a4.59 4.59 0 0 1-4.67 4.48h-1.39A10.67 10.67 0 0 1 41.63 48H16.67C10.77 48 6 43.23 6 37.34V24c0-5.89 4.78-10.66 10.67-10.66h24.96A10.67 10.67 0 0 1 51.8 20.7ZM46.38 42.1a6.67 6.67 0 0 0 2-4.72l-.09-13.36a6.67 6.67 0 0 0-6.66-6.67H16.67A6.67 6.67 0 0 0 10 24.03v13.33a6.67 6.67 0 0 0 6.67 6.67h24.96a6.67 6.67 0 0 0 4.75-1.92Zm7.49-5.9c0 .25-.27.49-.67.49h-.9v-12h.82c.4 0 .67.24.67.48l.08 11.04Z"/></svg>