<svg width="40" height="40" viewBox="0 0 40 40" fill="none" xmlns="http://www.w3.org/2000/svg">
<g id="devices/watch">
<rect width="40" height="40" rx="8" fill="#B7EDFF"/>
<g id="Icon">
<path d="M16.8546 15.1967C17.1355 15.1967 17.4045 15.3092 17.6005 15.5087L20.19 18.0626C20.388 18.2587 20.4994 18.5247 20.4997 18.8022V20.7421C20.4997 21.3201 20.0271 21.7887 19.4441 21.7887C18.8612 21.7887 18.3886 21.3201 18.3886 20.7421V19.2348L16.1087 16.988C15.6972 16.5793 15.6972 15.9173 16.1087 15.5087C16.3048 15.3092 16.5737 15.1967 16.8546 15.1967Z" fill="#0052D9"/>
<path fill-rule="evenodd" clip-rule="evenodd" d="M27.8882 16.9042V16.2483C27.8945 14.1771 26.678 12.2939 24.778 11.4336V7.79115C24.778 6.24964 23.5178 5 21.9633 5H16.939C15.3845 5 14.1243 6.24964 14.1243 7.79115V11.4336C12.2164 12.2869 10.9926 14.1728 11 16.2483V22.4307C10.9981 24.5201 12.2399 26.4137 14.1666 27.2594V31.2089C14.1666 32.7504 15.4267 34 16.9813 34H21.9633C23.5178 34 24.778 32.7504 24.778 31.2089V27.2594C26.6998 26.408 27.9392 24.5179 27.9445 22.4307V21.7887C28.5243 21.7812 28.9924 21.317 29 20.7421V17.9509C29.0004 17.6634 28.8815 17.3883 28.6712 17.1903C28.4609 16.9924 28.1778 16.8889 27.8882 16.9042ZM16.3339 7.79115C16.3339 7.42889 16.63 7.13523 16.9953 7.13523H21.9633C22.3286 7.13523 22.6247 7.42889 22.6247 7.79115V10.9731H16.3339V7.79115ZM22.0055 31.8648C22.3708 31.8648 22.6669 31.5711 22.6669 31.2089L22.6106 27.706H16.2776V31.2089C16.2776 31.5711 16.5737 31.8648 16.939 31.8648H22.0055ZM25.8757 22.4307C25.8757 23.2894 25.5317 24.1129 24.9194 24.7201C24.3071 25.3273 23.4766 25.6684 22.6106 25.6684H16.3339C14.5306 25.6684 13.0688 24.2189 13.0688 22.4307V16.2483C13.0766 14.4656 14.5361 13.0245 16.3339 13.0245H22.5684C24.3662 13.0245 25.8257 14.4656 25.8335 16.2483L25.8757 22.4307Z" fill="#0052D9"/>
</g>
</g>
</svg>
