<svg width="64" height="64" xmlns="http://www.w3.org/2000/svg"><path fill-rule="evenodd" clip-rule="evenodd" d="M26.67 21.34h10.66a5.33 5.33 0 0 1 5.34 5.33v10.67a5.33 5.33 0 0 1-5.34 5.33H26.67a5.33 5.33 0 0 1-5.34-5.33V26.67a5.33 5.33 0 0 1 5.34-5.33Zm10.66 17.33c.74 0 1.34-.6 1.34-1.33V26.67c0-.74-.6-1.33-1.34-1.33H26.67c-.74 0-1.34.6-1.34 1.33v10.67c0 .73.6 1.33 1.34 1.33h10.66Z"/><path fill-rule="evenodd" clip-rule="evenodd" d="M50.67 35.34h8a2 2 0 0 1 0 4h-8V40c0 5.9-4.78 10.67-10.67 10.67h-.67v8a2 2 0 0 1-4 0v-8h-6.66v8a2 2 0 0 1-4 0v-8H24c-5.89 0-10.67-4.78-10.67-10.67v-.66h-8a2 2 0 1 1 0-4h8v-6.67h-8a2 2 0 0 1 0-4h8V24c0-5.89 4.78-10.66 10.67-10.66h.67v-8a2 2 0 1 1 4 0v8h6.66v-8a2 2 0 1 1 4 0v8H40c5.9 0 10.67 4.77 10.67 10.66v.67h8a2 2 0 1 1 0 4h-8v6.67ZM40 46.67A6.67 6.67 0 0 0 46.67 40V24A6.67 6.67 0 0 0 40 17.34H24A6.67 6.67 0 0 0 17.33 24v16A6.67 6.67 0 0 0 24 46.67h16Z"/></svg>