<svg width="65" height="64" xmlns="http://www.w3.org/2000/svg"><path d="M27.43 24.82c.53 0 1.04.21 1.41.6l4.9 4.88a2 2 0 0 1 .6 1.4v3.72a2 2 0 1 1-4 0v-2.88L26 28.24a2 2 0 0 1 1.42-3.42Z"/><path fill-rule="evenodd" clip-rule="evenodd" d="M48.33 28.08v-1.25c.02-3.96-2.29-7.56-5.89-9.2v-6.96a5.33 5.33 0 0 0-5.33-5.33h-9.52a5.33 5.33 0 0 0-5.34 5.33v6.96a10.05 10.05 0 0 0-5.92 9.2v11.81c0 4 2.35 7.61 6 9.23v7.55a5.33 5.33 0 0 0 5.34 5.33h9.44a5.33 5.33 0 0 0 5.33-5.33v-7.55a10.13 10.13 0 0 0 6-9.23v-1.22c1.1-.02 1.99-.9 2-2v-5.34a2 2 0 0 0-2.1-2ZM26.44 10.67c0-.7.56-1.25 1.25-1.25h9.42c.69 0 1.25.56 1.25 1.25v6.08H26.44v-6.08Zm10.75 46c.69 0 1.25-.56 1.25-1.25l-.1-6.7h-12v6.7c0 .69.56 1.25 1.25 1.25h9.6Zm7.33-18.03a6.19 6.19 0 0 1-6.19 6.19H26.44a6.19 6.19 0 0 1-6.19-6.19V26.83a6.19 6.19 0 0 1 6.2-6.16h11.8c3.41 0 6.18 2.75 6.2 6.16l.07 11.81Z"/></svg>