<svg width="81" height="80" fill="none" xmlns="http://www.w3.org/2000/svg"><rect x=".67" width="80" height="80" rx="16" fill="#D0E2FF"/><path d="m34.55 25.43 8.77 5.07v10.13l-8.77 5.07-8.78-5.07V30.5l8.78-5.07Z" stroke="#317EFE" stroke-width="3" stroke-linejoin="round"/><path d="m43.34 40.53 8.78 5.07v10.13l-8.78 5.07-8.77-5.07V45.6l8.77-5.07Z" stroke="#317EFE" stroke-width="3" stroke-linejoin="round"/><path d="m52.14 25.43 8.78 5.07v10.13l-8.78 5.07-8.77-5.07V30.5l8.77-5.07Z" stroke="#317EFE" stroke-width="3" stroke-linejoin="round"/><path d="M52.07 25.49v-7.11M55.96 37.78v-4.9M44.27 55.44l-4.52-2.9M34.86 39.75l3.75-2.12M34.6 55.93l-8.46 5.27M25.9 30.59l-6.53-3.35M52.5 55.85l7.36 4.77" stroke="#317EFE" stroke-width="3" stroke-linecap="round" stroke-linejoin="round"/></svg>