<svg width="80" height="80" fill="none" xmlns="http://www.w3.org/2000/svg"><rect width="80" height="80" rx="16" fill="#FFDAD0"/><g clip-path="url(#a)"><path d="M30.85 27.02h-10.4a2.72 2.72 0 0 0-2.72 2.72v29.88c0 1.5 1.22 2.72 2.72 2.72H42.2c1.5 0 2.71-1.22 2.71-2.72V46.95M29.28 54.9h4.07" stroke="#FC873F" stroke-width="3" stroke-linecap="round" stroke-linejoin="round"/><path d="m45.7 40.64-10.62 3.04 1.52-9.1V20.74a3.04 3.04 0 0 1 3.03-3.03h19.73a3.04 3.04 0 0 1 3.04 3.03v16.86a3.04 3.04 0 0 1-3.04 3.03H45.7Z" stroke="#FC873F" stroke-width="3" stroke-linecap="round" stroke-linejoin="round"/><path d="m41.66 34 2.89-8.76h3.18l3 8.76h-2.04l-2.43-7.4.63.25h-1.55l.65-.25-2.37 7.4h-1.96Zm2.2-2.17.6-1.63h3.42l.62 1.63h-4.65ZM51.88 34v-8.76h1.97V34H51.9Z" fill="#FC873F"/></g><defs><clipPath id="a"><path fill="#fff" d="M16 16h48v48H16z"/></clipPath></defs></svg>