<svg width="80" height="80" fill="none" xmlns="http://www.w3.org/2000/svg"><rect width="80" height="80" rx="16" fill="#FBD5D5"/><path d="M46.73 28.23V21.5a3.36 3.36 0 0 0-3.36-3.37h-6.73a3.36 3.36 0 0 0-3.37 3.37v6.73M46.73 51.78v6.73a3.36 3.36 0 0 1-3.36 3.37h-6.73a3.37 3.37 0 0 1-3.37-3.37v-6.73M48.41 28.23H31.6a3.36 3.36 0 0 0-3.36 3.36v16.82c0 1.86 1.5 3.37 3.36 3.37h16.82c1.86 0 3.37-1.5 3.37-3.37V31.6c0-1.86-1.5-3.36-3.37-3.36Z" stroke="#FF6262" stroke-width="3" stroke-linecap="round" stroke-linejoin="round"/><path d="M28.23 40.54h5.72l3.44-4.3 4.58 7.52 3.43-4.3h6.38" stroke="#FF6262" stroke-width="3" stroke-linecap="round" stroke-linejoin="round"/></svg>