<svg width="81" height="80" fill="none" xmlns="http://www.w3.org/2000/svg"><rect x=".33" width="80" height="80" rx="16" fill="#F4D5FB"/><g clip-path="url(#a)" stroke="#CD4FFF" stroke-width="3" stroke-linecap="round" stroke-linejoin="round"><path d="M51.85 26.6a.96.96 0 0 0-.96-.96h-6.7v-6.71a.96.96 0 0 0-.97-.96h-5.75a.96.96 0 0 0-.96.96v6.7h-6.7a.96.96 0 0 0-.96.96v5.75a.96.96 0 0 0 .96.96h6.7v6.71a.96.96 0 0 0 .96.96h5.75a.96.96 0 0 0 .96-.96v-6.7h6.7a.96.96 0 0 0 .97-.97V26.6ZM24.05 62.05l-3.85-4.79a8.62 8.62 0 0 1-1.91-5.38v-9.95a2.87 2.87 0 0 1 3.99-2.66 2.88 2.88 0 0 1 1.77 2.66v7.42"/><path d="M32.68 61.78v-5.75c0-1.7-.5-3.36-1.46-4.77l-2.18-3.3a2.7 2.7 0 0 0-4.74 2.6l2.63 4.3M56.64 62.05l3.83-4.83a8.63 8.63 0 0 0 1.92-5.38v-9.91a2.88 2.88 0 1 0-5.75 0v7.44"/><path d="M48.01 61.78v-5.75c0-1.7.5-3.36 1.46-4.77l2.18-3.3a2.7 2.7 0 0 1 4.74 2.6l-2.63 4.3"/></g><defs><clipPath id="a"><path fill="#fff" d="M16.35 16h48v48h-48z"/></clipPath></defs></svg>