<svg width="80" height="80" fill="none" xmlns="http://www.w3.org/2000/svg"><rect width="80" height="80" rx="16" fill="#D7FBD5"/><g clip-path="url(#a)" stroke="#21D536" stroke-linecap="round" stroke-linejoin="round"><path d="M24.9 22.78h12.82M42.3 22.78H55.1M35.2 22.78v23.5a3.9 3.9 0 1 1-7.79 0v-23.5M52.6 22.78v23.5a3.9 3.9 0 0 1-7.8 0v-23.5" stroke-width="3"/><path d="M57.96 29.28h1.91v27.9H20.14v-27.9h2.4" stroke-width="3"/><path d="M17.86 57.19h44.3" stroke-width="2"/><path d="M27.6 36.21c3.52-.55 4.72.9 7.3.8M45.3 41.85c3.52-.61 4.72 1 7.3.9" stroke-width="3"/></g><defs><clipPath id="a"><path fill="#fff" d="M16 16.02h48v48H16z"/></clipPath></defs></svg>