<svg xmlns="http://www.w3.org/2000/svg" width="65" height="64" fill="none"><path fill="#F1F1F1" d="M2.747 30.961c0 7.22 3.135 14.143 8.714 19.248 5.58 5.105 13.148 7.973 21.039 7.973 7.89 0 15.459-2.868 21.038-7.973 5.58-5.105 8.715-12.029 8.715-19.248 0-7.22-3.135-14.143-8.715-19.248S40.391 3.74 32.5 3.74 17.04 6.608 11.46 11.713c-5.58 5.105-8.714 12.029-8.714 19.248Z"/><path stroke="#45413C" stroke-linecap="round" stroke-width="2" d="M26.935 26.023c-1.044-2.203-4.313-6.261-9.044-4.87M40.152 26.023c1.044-2.203 4.313-6.261 9.044-4.87"/><circle cx="23.456" cy="29.216" r="2.783" fill="#45413C"/><circle cx="43.63" cy="29.216" r="2.783" fill="#45413C"/><path stroke="#45413C" stroke-linecap="round" stroke-width="2" d="M25.544 40.347c.58-2.203 3.13-6.609 7.304-6.609s6.608 4.406 7.652 6.609"/><path fill="#C1C1C1" d="M32.5 53.114c-16.839 0-28.368-10.842-29.626-24.688a27.972 27.972 0 0 0-.127 2.532c0 15.034 11.901 27.22 29.753 27.22s29.753-12.186 29.753-27.22c0-.855-.05-1.698-.127-2.532C60.868 42.272 49.34 53.115 32.5 53.115Z"/><path fill="#fff" d="M24.27 6.908c0 .167.213.331.627.485.414.154 1.02.294 1.784.411.764.118 1.671.211 2.67.275.998.064 2.068.097 3.15.097 1.08 0 2.15-.033 3.148-.097a30.798 30.798 0 0 0 2.67-.275c.764-.117 1.37-.257 1.784-.41.414-.155.627-.32.627-.486 0-.166-.213-.331-.627-.485-.413-.154-1.02-.293-1.784-.411a30.79 30.79 0 0 0-2.67-.275 49.99 49.99 0 0 0-3.149-.096c-1.08 0-2.15.032-3.15.096a30.79 30.79 0 0 0-2.67.275c-.763.118-1.37.257-1.783.411-.414.154-.627.319-.627.485Z"/><path stroke="#45413C" stroke-miterlimit="10" stroke-width="2" d="M2.747 30.963c0 7.22 3.135 14.143 8.715 19.248s13.147 7.973 21.038 7.973S47.96 55.316 53.54 50.21c5.58-5.105 8.714-12.029 8.714-19.248 0-7.22-3.135-14.143-8.714-19.248C47.959 6.61 40.39 3.742 32.5 3.742c-7.89 0-15.459 2.868-21.038 7.973-5.58 5.105-8.715 12.029-8.715 19.248Z"/></svg>