<svg xmlns="http://www.w3.org/2000/svg" width="65" height="64" fill="none"><path fill="#F1F1F1" d="M3 32.09c0 7.185 3.12 14.075 8.673 19.156 5.553 5.08 13.084 7.934 20.937 7.934 7.853 0 15.385-2.854 20.937-7.934 5.553-5.08 8.673-11.971 8.673-19.156 0-7.185-3.12-14.075-8.673-19.155C47.995 7.855 40.463 5 32.61 5c-7.853 0-15.384 2.854-20.937 7.935C6.12 18.015 3 24.905 3 32.09Z"/><path fill="#C1C1C1" d="M32.61 54.14c-16.758 0-28.232-10.793-29.484-24.57-.08.837-.122 1.678-.126 2.52 0 14.962 11.844 27.09 29.61 27.09s29.61-12.128 29.61-27.09c0-.852-.049-1.69-.126-2.52-1.252 13.778-12.726 24.57-29.484 24.57Z"/><path fill="#fff" d="M24.42 8.154c0 .334.863.655 2.399.891 1.536.237 3.619.37 5.79.37 2.173 0 4.256-.133 5.792-.37 1.536-.236 2.4-.557 2.4-.89 0-.336-.864-.656-2.4-.893-1.536-.236-3.62-.37-5.79-.37-2.173 0-4.256.134-5.792.37-1.536.237-2.4.557-2.4.892Z"/><path stroke="#45413C" stroke-miterlimit="10" stroke-width="2" d="M3 32.09c0 7.185 3.12 14.075 8.673 19.156 5.553 5.08 13.084 7.934 20.937 7.934 7.853 0 15.385-2.854 20.937-7.934 5.553-5.08 8.673-11.971 8.673-19.156 0-7.185-3.12-14.075-8.673-19.155C47.995 7.855 40.463 5 32.61 5c-7.853 0-15.384 2.854-20.937 7.935C6.12 18.015 3 24.905 3 32.09Z"/><path stroke="#45413C" stroke-linecap="round" stroke-linejoin="round" stroke-width="2" d="M37.98 35.963s-1.343-1.638-5.37-1.638-5.369 1.638-5.369 1.638"/><path fill="#45413C" d="M24.262 30.003c1.537 0 2.783-1.557 2.783-3.478 0-1.92-1.246-3.478-2.783-3.478s-2.783 1.557-2.783 3.478c0 1.92 1.246 3.478 2.783 3.478ZM40.958 30.003c1.537 0 2.783-1.557 2.783-3.478 0-1.92-1.246-3.478-2.783-3.478s-2.783 1.557-2.783 3.478c0 1.92 1.246 3.478 2.783 3.478Z"/></svg>