<svg xmlns="http://www.w3.org/2000/svg" width="64" height="64" fill="none"><path fill="#F1F1F1" d="M2.247 32c0 7.22 3.135 14.143 8.715 19.248S24.108 59.221 32 59.221s15.459-2.868 21.039-7.973c5.58-5.105 8.714-12.028 8.714-19.248 0-7.22-3.135-14.143-8.714-19.248C47.459 7.647 39.89 4.78 32 4.78c-7.89 0-15.459 2.868-21.038 7.973C5.382 17.857 2.247 24.781 2.247 32Z"/><path fill="#C1C1C1" d="M32 54.157c-16.839 0-28.368-10.846-29.626-24.688A27.931 27.931 0 0 0 2.247 32c0 15.034 11.901 27.22 29.753 27.22s29.753-12.186 29.753-27.22c0-.856-.05-1.699-.127-2.532C60.368 43.31 48.84 54.157 32 54.157Z"/><path fill="#fff" d="M23.77 7.947c0 .167.213.331.627.485.414.154 1.02.294 1.784.411.764.118 1.671.211 2.67.275.998.064 2.068.097 3.15.097 1.08 0 2.15-.033 3.148-.097a30.794 30.794 0 0 0 2.67-.275c.764-.117 1.37-.257 1.784-.41.414-.155.627-.32.627-.486 0-.166-.213-.331-.627-.485-.413-.154-1.02-.293-1.784-.411a30.794 30.794 0 0 0-2.67-.275A49.99 49.99 0 0 0 32 6.68c-1.08 0-2.15.032-3.15.096-.998.064-1.905.157-2.67.275-.763.118-1.37.257-1.783.411-.414.154-.627.319-.627.485Z"/><path fill="#45413C" d="M37.78 21.583a2.216 2.216 0 1 0 4.43 0 2.216 2.216 0 0 0-4.43 0ZM21.742 21.583a2.216 2.216 0 1 0 4.433 0 2.216 2.216 0 0 0-4.433 0Z"/><path stroke="#45413C" stroke-linecap="round" stroke-linejoin="round" stroke-width="2" d="M16.818 18.78a9.313 9.313 0 0 0 5.453-3.9m24.489 3.853a9.313 9.313 0 0 1-5.518-3.806M38.584 33.9a5.723 5.723 0 0 1 5.722-5.723m-25.079 0A5.723 5.723 0 0 1 24.95 33.9"/><path stroke="#45413C" stroke-linecap="round" stroke-linejoin="round" stroke-width="2" d="M39.589 30.206a16.877 16.877 0 0 0-7.8-1.796 16.865 16.865 0 0 0-7.8 1.797"/><path fill="#C1C1C1" d="M8.607 34.732c0 .548.123 1.09.363 1.597.24.506.59.966 1.033 1.353.443.388.969.695 1.547.905.579.21 1.198.317 1.825.317.626 0 1.246-.108 1.824-.317a4.862 4.862 0 0 0 1.547-.905 4.183 4.183 0 0 0 1.034-1.353c.24-.506.363-1.049.363-1.597 0-.547-.124-1.09-.363-1.596a4.183 4.183 0 0 0-1.034-1.354 4.866 4.866 0 0 0-1.547-.904 5.367 5.367 0 0 0-1.824-.317c-.627 0-1.246.108-1.825.317a4.866 4.866 0 0 0-1.547.904 4.183 4.183 0 0 0-1.033 1.354 3.724 3.724 0 0 0-.363 1.596ZM45.857 34.732c0 1.107.503 2.168 1.397 2.95.894.783 2.107 1.222 3.371 1.222 1.265 0 2.478-.44 3.372-1.222.894-.782 1.396-1.843 1.396-2.95 0-1.106-.502-2.167-1.396-2.95-.894-.782-2.107-1.221-3.372-1.221-1.264 0-2.477.44-3.371 1.221-.894.783-1.397 1.844-1.397 2.95Z"/><path stroke="#45413C" stroke-miterlimit="10" stroke-width="2" d="M2.247 32c0 7.22 3.135 14.143 8.715 19.248S24.108 59.221 32 59.221s15.459-2.868 21.039-7.973c5.58-5.105 8.714-12.028 8.714-19.248 0-7.22-3.135-14.143-8.714-19.248C47.459 7.647 39.89 4.78 32 4.78c-7.89 0-15.459 2.868-21.038 7.973C5.382 17.857 2.247 24.781 2.247 32Z"/></svg>