<svg xmlns="http://www.w3.org/2000/svg" width="65" height="64" fill="none"><path fill="#F1F1F1" d="M2.89 32c0 7.185 3.12 14.075 8.672 19.156 5.553 5.08 13.085 7.934 20.938 7.934 7.853 0 15.384-2.854 20.937-7.934C58.99 46.076 62.11 39.185 62.11 32c0-7.185-3.12-14.075-8.673-19.155C47.884 7.765 40.353 4.91 32.5 4.91c-7.853 0-15.385 2.854-20.938 7.935C6.01 17.925 2.89 24.815 2.89 32Z"/><path fill="#C1C1C1" d="M32.5 54.05c-16.758 0-28.232-10.793-29.484-24.57A27.59 27.59 0 0 0 2.89 32c0 14.962 11.844 27.09 29.61 27.09S62.11 46.962 62.11 32c0-.852-.05-1.69-.126-2.52C60.732 43.258 49.258 54.05 32.5 54.05Z"/><path fill="#fff" d="M24.31 8.064c0 .334.863.655 2.399.891 1.536.237 3.619.37 5.791.37s4.255-.133 5.791-.37c1.536-.236 2.4-.557 2.4-.891 0-.335-.864-.655-2.4-.892-1.536-.236-3.619-.37-5.79-.37-2.173 0-4.256.134-5.792.37-1.536.237-2.399.557-2.399.892Z"/><path stroke="#45413C" stroke-miterlimit="10" stroke-width="2" d="M2.89 32c0 7.185 3.12 14.075 8.672 19.156 5.553 5.08 13.085 7.934 20.938 7.934 7.853 0 15.384-2.854 20.937-7.934C58.99 46.076 62.11 39.185 62.11 32c0-7.185-3.12-14.075-8.673-19.155C47.884 7.765 40.353 4.91 32.5 4.91c-7.853 0-15.385 2.854-20.938 7.935C6.01 17.925 2.89 24.815 2.89 32Z"/><path fill="#C1C1C1" d="M14.86 32.148c0 .814.404 1.594 1.123 2.17.72.575 1.694.898 2.711.898s1.992-.323 2.711-.898c.72-.576 1.123-1.356 1.123-2.17 0-.814-.404-1.594-1.123-2.17-.719-.575-1.694-.898-2.71-.898-1.018 0-1.993.323-2.712.899-.719.575-1.123 1.355-1.123 2.17Z"/><path stroke="#45413C" stroke-linecap="round" stroke-linejoin="round" stroke-width="2" d="M27.131 32.148s1.342 1.638 5.37 1.638c4.026 0 5.368-1.638 5.368-1.638m-16.873-8.437a3.068 3.068 0 1 1 6.135 0"/><path fill="#C1C1C1" d="M42.472 32.148c0 .814.404 1.594 1.123 2.17.719.575 1.694.898 2.71.898 1.018 0 1.993-.323 2.712-.898.719-.576 1.123-1.356 1.123-2.17 0-.814-.404-1.594-1.123-2.17-.719-.575-1.694-.898-2.711-.898s-1.992.323-2.711.899c-.72.575-1.123 1.355-1.123 2.17Z"/><path stroke="#45413C" stroke-linecap="round" stroke-linejoin="round" stroke-width="2" d="M44.004 23.711a3.066 3.066 0 0 0-5.256-2.205 3.067 3.067 0 0 0-.88 2.205"/></svg>