<svg xmlns="http://www.w3.org/2000/svg" width="65" height="64" fill="none"><path fill="#F1F1F1" d="M2.747 32c0 7.22 3.135 14.143 8.715 19.248s13.147 7.973 21.038 7.973 15.459-2.868 21.039-7.973c5.58-5.105 8.714-12.028 8.714-19.248 0-7.22-3.135-14.143-8.714-19.248C47.959 7.647 40.39 4.78 32.5 4.78c-7.89 0-15.459 2.868-21.038 7.973C5.882 17.857 2.747 24.781 2.747 32Z"/><path fill="#C1C1C1" d="M32.5 54.157c-16.839 0-28.368-10.846-29.626-24.688A27.931 27.931 0 0 0 2.747 32c0 15.034 11.901 27.22 29.753 27.22s29.753-12.186 29.753-27.22c0-.856-.05-1.699-.127-2.532C60.868 43.31 49.34 54.157 32.5 54.157Z"/><path fill="#fff" d="M24.27 7.947c0 .167.213.331.627.485.414.154 1.02.294 1.784.411.764.118 1.671.211 2.67.275.998.064 2.068.097 3.15.097 1.08 0 2.15-.033 3.148-.097a30.794 30.794 0 0 0 2.67-.275c.764-.117 1.37-.257 1.784-.41.414-.155.627-.32.627-.486 0-.166-.213-.331-.627-.485-.413-.154-1.02-.293-1.784-.411a30.794 30.794 0 0 0-2.67-.275A49.99 49.99 0 0 0 32.5 6.68c-1.08 0-2.15.032-3.15.096-.998.064-1.905.157-2.67.275-.763.118-1.37.257-1.783.411-.414.154-.627.319-.627.485Z"/><path stroke="#45413C" stroke-miterlimit="10" stroke-width="2" d="M2.747 32c0 7.22 3.135 14.143 8.715 19.248s13.147 7.973 21.038 7.973 15.459-2.868 21.039-7.973c5.58-5.105 8.714-12.028 8.714-19.248 0-7.22-3.135-14.143-8.714-19.248C47.959 7.647 40.39 4.78 32.5 4.78c-7.89 0-15.459 2.868-21.038 7.973C5.882 17.857 2.747 24.781 2.747 32Z"/><path fill="#525252" stroke="#45413C" stroke-linecap="round" stroke-linejoin="round" stroke-width="2" d="M35.344 27.94a10.361 10.361 0 0 0-5.687 0c-3.241.932-5.512 3.078-5.512 5.58 0 .828 0 2.28.91 2.28 2.54 0 4.19-1.296 7.446-1.483 3.255.187 4.905 1.481 7.445 1.481.91 0 .91-1.45.91-2.279 0-2.501-2.271-4.647-5.512-5.578Z"/><path stroke="#45413C" stroke-linecap="round" stroke-linejoin="round" stroke-width="2" d="M38.577 18.706s1.9 5.697 7.597 5.697m-4.748-7.596a6.576 6.576 0 0 0 3.798 2.848m-18.801-.95s-1.9 5.698-7.597 5.698m4.748-7.595-3.798 2.849"/></svg>