<svg xmlns="http://www.w3.org/2000/svg" width="64" height="64" fill="none"><g clip-path="url(#a)"><path fill="#F1F1F1" stroke="#45413C" stroke-width="2" d="M11.476 49.928C6.042 44.766 3 37.776 3 30.5c0-7.276 3.042-14.266 8.476-19.428C16.91 5.91 24.293 3 32 3c7.707 0 15.09 2.91 20.524 8.072C57.958 16.235 61 23.224 61 30.5c0 7.276-3.042 14.266-8.475 19.428C47.089 55.09 39.707 58 32 58c-7.707 0-15.09-2.91-20.524-8.072Z"/><path fill="#fff" d="M24 5.5c0 .398.843.78 2.343 1.06 1.5.282 3.535.44 5.657.44s4.157-.158 5.657-.44C39.157 6.28 40 5.899 40 5.5s-.843-.78-2.343-1.06C36.157 4.157 34.122 4 32 4s-4.157.158-5.657.44C24.843 4.72 24 5.101 24 5.5Z"/><path fill="#C1C1C1" d="M32 52.894C15.587 52.894 4.35 41.957 3.123 28A28.91 28.91 0 0 0 3 30.553C3 45.711 14.6 58 32 58s29-12.289 29-27.447c0-.863-.048-1.713-.123-2.553C59.65 41.957 48.413 52.894 32 52.894Z"/><path stroke="#45413C" stroke-width="2" d="M11.476 49.928C6.042 44.766 3 37.776 3 30.5c0-7.276 3.042-14.266 8.476-19.428C16.91 5.91 24.293 3 32 3c7.707 0 15.09 2.91 20.524 8.072C57.958 16.235 61 23.224 61 30.5c0 7.276-3.042 14.266-8.475 19.428C47.089 55.09 39.707 58 32 58c-7.707 0-15.09-2.91-20.524-8.072Z"/><path fill="#fff" stroke="#45413C" stroke-width="2" d="M25.108 21.44c-.333 1.92-1.157 3.521-2.168 4.564-1.016 1.048-2.133 1.46-3.129 1.282-.995-.178-1.906-.955-2.508-2.292-.6-1.332-.835-3.122-.502-5.044.333-1.92 1.157-3.521 2.168-4.564 1.016-1.048 2.133-1.46 3.129-1.282.995.178 1.907.954 2.509 2.292.599 1.332.834 3.122.501 5.043ZM38.218 21.44c.333 1.92 1.157 3.521 2.168 4.564 1.015 1.048 2.133 1.46 3.128 1.282.996-.178 1.907-.955 2.51-2.292.598-1.332.834-3.122.5-5.044-.332-1.92-1.156-3.521-2.167-4.564-1.016-1.048-2.133-1.46-3.129-1.282-.995.178-1.907.954-2.509 2.292-.599 1.332-.834 3.122-.501 5.043Z"/><path fill="#525252" stroke="#45413C" stroke-width="2" d="M25 40c0 3.144.851 5.945 2.175 7.93C28.504 49.924 30.23 51 32 51c1.77 0 3.496-1.077 4.825-3.07C38.149 45.946 39 43.145 39 40s-.851-5.945-2.175-7.93C35.496 30.076 33.77 29 32 29c-1.77 0-3.496 1.077-4.825 3.07C25.851 34.054 25 36.855 25 40Z"/><path fill="#F1F1F1" stroke="#45413C" stroke-linecap="round" stroke-width="2" d="M6.87 49.64C6.278 54.84 4.29 60.305 3 62h19V49.64c0-9.45-5.278-15.267-11.26-15.63-5.98-.364-3.166 9.451-3.87 15.63Z"/><path fill="#fff" stroke="#45413C" stroke-linecap="round" stroke-width="2" d="M6.87 49.64C6.278 54.84 4.29 60.305 3 62h19V49.64c0-9.45-5.278-15.267-11.26-15.63-5.98-.364-3.166 9.451-3.87 15.63Z"/><path fill="#F1F1F1" stroke="#45413C" stroke-linecap="round" stroke-width="2" d="M57.926 49.64C58.549 54.84 60.642 60.305 62 62H42V49.64c0-9.45 5.556-15.267 11.852-15.63 6.296-.364 3.333 9.451 4.074 15.63Z"/><path fill="#fff" stroke="#45413C" stroke-linecap="round" stroke-width="2" d="M57.926 49.64C58.549 54.84 60.642 60.305 62 62H42V49.64c0-9.45 5.556-15.267 11.852-15.63 6.296-.364 3.333 9.451 4.074 15.63Z"/></g><defs><clipPath id="a"><path fill="#fff" d="M0 0h64v64H0z"/></clipPath></defs></svg>