<svg width="500" height="500" fill="none" xmlns="http://www.w3.org/2000/svg"><path d="M21.73 244.86S15.46 288.42 41.51 337c22.7 42.33 63.78 71.85 112.61 84.35 32.22 8.25 65.43 7.86 98.12 5.83 42.06-2.63 88.81-.17 127.63-16C440.31 386.52 477.24 321.93 480 262c1.81-38.73-13.08-83.21-52.69-103.63-14.67-7.55-31-13.17-43.8-23.5-15.39-12.38-22.1-30.36-33.59-45.35-14.2-18.53-34.53-29.08-56.6-37.62-71.72-27.74-140.16-15.29-196 21.36s-78.93 150.25-75.59 171.6Z" fill="#578CE3"/><path opacity=".7" d="M21.73 244.86S15.46 288.42 41.51 337c22.7 42.33 63.78 71.85 112.61 84.35 32.22 8.25 65.43 7.86 98.12 5.83 42.06-2.63 88.81-.17 127.63-16C440.31 386.52 477.24 321.93 480 262c1.81-38.73-13.08-83.21-52.69-103.63-14.67-7.55-31-13.17-43.8-23.5-15.39-12.38-22.1-30.36-33.59-45.35-14.2-18.53-34.53-29.08-56.6-37.62-71.72-27.74-140.16-15.29-196 21.36s-78.93 150.25-75.59 171.6Z" fill="#fff"/><path d="M233.64 123.3H80.34v175.73h153.3V123.3Z" fill="#BDBDBD"/><path d="M226.72 132.59H87.25v166.43h139.47V132.59Z" fill="#DBDBDB"/><path d="M226.72 161.16H87.25v9.3h139.47v-9.3ZM201.2 38.8h-10.04v3.14h10.04V38.8ZM201.2 43.19h-10.04v3.14h10.04v-3.14ZM201.2 47.58h-10.04v3.14h10.04v-3.14ZM201.2 51.97h-10.04v3.14h10.04v-3.14ZM201.2 56.36h-10.04v3.14h10.04v-3.14ZM201.2 60.76h-10.04v3.14h10.04v-3.14ZM201.2 65.15h-10.04v3.14h10.04v-3.14ZM201.2 69.54h-10.04v3.14h10.04v-3.14ZM201.2 73.93h-10.04v3.14h10.04v-3.14ZM201.2 78.32h-10.04v3.14h10.04v-3.14ZM201.2 82.72h-10.04v3.14h10.04v-3.14ZM201.2 87.11h-10.04v3.14h10.04v-3.14ZM201.2 91.5h-10.04v3.14h10.04V91.5ZM201.2 95.89h-10.04v3.14h10.04v-3.14ZM201.2 100.28h-10.04v3.14h10.04v-3.14ZM201.2 104.67h-10.04v3.14h10.04v-3.14ZM201.2 109.07h-10.04v3.14h10.04v-3.14ZM201.2 113.46h-10.04v3.14h10.04v-3.14ZM201.2 117.85h-10.04v3.14h10.04v-3.14ZM201.2 122.24h-10.04v3.14h10.04v-3.14ZM332.42 123.3h-78.33v175.73h78.33V123.3Z" fill="#BDBDBD"/><path d="M326.31 132.59H260.2v166.43h66.11V132.59Z" fill="#DBDBDB"/><path d="M326.31 161.16H260.2v9.3h66.11v-9.3ZM299.98 38.8h-10.04v3.14h10.04V38.8ZM299.98 43.19h-10.04v3.14h10.04v-3.14ZM299.98 47.58h-10.04v3.14h10.04v-3.14ZM299.98 51.97h-10.04v3.14h10.04v-3.14ZM299.98 56.36h-10.04v3.14h10.04v-3.14ZM299.98 60.76h-10.04v3.14h10.04v-3.14ZM299.98 65.15h-10.04v3.14h10.04v-3.14ZM299.98 69.54h-10.04v3.14h10.04v-3.14ZM299.98 73.93h-10.04v3.14h10.04v-3.14ZM299.98 78.32h-10.04v3.14h10.04v-3.14ZM299.98 82.72h-10.04v3.14h10.04v-3.14ZM299.98 87.11h-10.04v3.14h10.04v-3.14ZM299.98 91.5h-10.04v3.14h10.04V91.5ZM299.98 95.89h-10.04v3.14h10.04v-3.14ZM299.98 100.28h-10.04v3.14h10.04v-3.14ZM299.98 104.67h-10.04v3.14h10.04v-3.14ZM299.98 109.07h-10.04v3.14h10.04v-3.14ZM299.98 113.46h-10.04v3.14h10.04v-3.14ZM299.98 117.85h-10.04v3.14h10.04v-3.14ZM299.98 122.24h-10.04v3.14h10.04v-3.14ZM267.61 274.8H47v38.64h220.61V274.8Z" fill="#BDBDBD"/><path d="M63.84 283.21a4.68 4.68 0 1 1-9.36 0 4.68 4.68 0 0 1 9.36 0ZM84.88 278.53H72.61v9.35h12.27v-9.35Z" fill="#578CE3"/><path d="M100.08 278.53H87.81v9.35h12.27v-9.35Z" fill="gray"/><path d="M267.61 186H47v88.91h220.61V186ZM267.61 313.5H47v119.11h220.61V313.5Z" fill="#DBDBDB"/><path d="M213.08 189.36H101.52v82.2h111.56v-82.2Z" fill="#BDBDBD"/><path d="M105.46 258.1a9.84 9.84 0 1 0 18.88 0h-18.88Z" fill="#578CE3"/><path d="M118.72 250.56v-13h-7.64v13a11 11 0 1 0 7.64 0Z" stroke="#fff" stroke-miterlimit="10"/><path d="M150 258.1a9.84 9.84 0 1 0 18.88 0H150Z" fill="#578CE3"/><path d="M163.29 250.56v-13h-7.64v13a11 11 0 1 0 7.64 0Z" stroke="#fff" stroke-miterlimit="10"/><path d="M129.25 261.68c-.2.67-.31 1.36-.31 2.06a7.31 7.31 0 0 0 14.11 2.88c.35-.92.52-1.9.48-2.88 0-.7-.1-1.4-.3-2.06h-13.98Z" fill="#578CE3"/><path d="M139.07 256.1v-9.66h-5.66v9.66a8.16 8.16 0 1 0 5.66 0Z" stroke="#fff" stroke-miterlimit="10"/><path d="M119.54 201.29h-4.97v6.37h4.97v-6.37Z" fill="#858585"/><path d="M113.4 207.68h7.3a3.8 3.8 0 0 1 3.8 3.8v14.89h-14.9v-14.89a3.8 3.8 0 0 1 3.8-3.8Z" fill="#DBDBDB"/><path d="M150.95 201.29h-4.97v6.37h4.97v-6.37Z" fill="#858585"/><path d="M144.82 207.68h7.3a3.8 3.8 0 0 1 3.8 3.8v14.89H141v-14.89a3.8 3.8 0 0 1 3.82-3.8Z" fill="#DBDBDB"/><path d="M178.17 201.29h-4.97v6.37h4.97v-6.37Z" fill="#858585"/><path d="M172 207.68h7.3a3.8 3.8 0 0 1 3.8 3.8v14.89h-14.87v-14.89a3.8 3.8 0 0 1 3.77-3.8Z" fill="#DBDBDB"/><path d="M197.84 201.29h-4.97v6.37h4.97v-6.37Z" fill="#858585"/><path d="M191.7 207.68h7.3a3.8 3.8 0 0 1 3.8 3.8v14.89h-14.9v-14.89a3.8 3.8 0 0 1 3.8-3.8Z" fill="#DBDBDB"/><path d="M213.08 226.26H101.52v8.39h111.56v-8.39Z" fill="#DBDBDB"/><path d="m62.02 319.01 2.24 4.12h12.68l2.24-4.12H62.02ZM120.42 319.01l2.24 4.12h12.68l2.24-4.12h-17.16ZM178.82 319.01l2.23 4.12h12.69l2.24-4.12h-17.16ZM237.22 319.01l2.23 4.12h12.69l2.24-4.12h-17.16ZM62.02 346.05l2.24 4.12h12.68l2.24-4.12H62.02ZM120.42 346.05l2.24 4.12h12.68l2.24-4.12h-17.16ZM178.82 346.05l2.23 4.12h12.69l2.24-4.12h-17.16ZM237.22 346.05l2.23 4.12h12.69l2.24-4.12h-17.16Z" fill="gray"/><path d="M49.48 319.01h214.57M49.48 345.93h214.57" stroke="gray" stroke-miterlimit="10"/><path d="m428.46 263.81-4.41-17.1V242h-6.23v4.67l-4.4 17.1a1.8 1.8 0 0 0 1.75 2.26h11.53a1.8 1.8 0 0 0 1.76-1.41 1.8 1.8 0 0 0 0-.81Z" fill="#BDBDBD"/><path d="M424.85 255.17H417l-2.31 9a.44.44 0 0 0 .09.41.45.45 0 0 0 .37.19h11.55a.49.49 0 0 0 .47-.39.47.47 0 0 0-.01-.21l-2.31-9Z" fill="gray"/><path d="m455.06 263.81-4.4-17.1V242h-6.23v4.67l-4.4 17.1a1.8 1.8 0 0 0 1.75 2.26h11.53a1.8 1.8 0 0 0 1.75-2.22Z" fill="#BDBDBD"/><path d="M451.46 255.17h-7.83l-2.31 9a.44.44 0 0 0 .09.41.45.45 0 0 0 .37.19h11.53a.49.49 0 0 0 .47-.39.47.47 0 0 0-.01-.21l-2.31-9Z" fill="gray"/><path d="M420.5 246v-51" stroke="#BDBDBD" stroke-miterlimit="10"/><path d="M482.52 266H313.71v99.42h168.81V266Z" fill="#DBDBDB"/><path d="M477.86 269.95H318.38v95.47h159.48v-95.47Z" fill="#BDBDBD"/><path d="m403.56 308.43 5.75 7.89h44.5l6.11-7.89h-56.36Z" fill="gray"/><path d="M449.54 312.93H415v3.39h34.54v-3.39Z" fill="#5C5C5C"/><path d="M398.42 295.31h-28.35v8.59h28.35v-8.59Z" fill="gray"/><path d="M415.19 283.69H411v10.26h4.19v-10.26Z" fill="#263238" stroke="#263238" stroke-miterlimit="10"/><path d="M410.61 289.08h5a3.8 3.8 0 0 1 3.8 3.8v12h-12.6v-12a3.8 3.8 0 0 1 3.8-3.8Z" fill="#DBDBDB"/><path d="M432.47 283.69h-4.19v10.26h4.19v-10.26Z" fill="#263238" stroke="#263238" stroke-miterlimit="10"/><path d="M427.88 289.08h5a3.8 3.8 0 0 1 3.8 3.8v12h-12.6v-12a3.8 3.8 0 0 1 3.8-3.8Z" fill="#DBDBDB"/><path d="M449.74 283.69h-4.19v10.26h4.19v-10.26Z" fill="#263238" stroke="#263238" stroke-miterlimit="10"/><path d="M445.16 289.08h5a3.8 3.8 0 0 1 3.8 3.8v12h-12.61v-12a3.8 3.8 0 0 1 3.81-3.8Z" fill="#DBDBDB"/><path d="M398.42 287.92h-28.35v7.39h28.35v-7.39Z" fill="#A3A3A3"/><path d="M477.86 303.32H318.38v6.46h159.48v-6.46Z" fill="#DBDBDB"/><path d="M376.92 333.11h-11.04v33.65h11.04v-33.65Z" fill="#263238" stroke="#263238" stroke-linecap="round" stroke-linejoin="round"/><path d="M397.1 316.69h-51.41v42.53h51.41v-42.53Z" fill="#545454"/><path d="M393.52 319.65h-44.25v36.61h44.25v-36.61Z" fill="#fff"/><path d="m358.76 328.4 13.68 9.86-9.22 5.09M379.12 329.04l-6.68 9.22 3.18 12.09M372.44 338.26l14.32 8.28" stroke="#828282" stroke-miterlimit="10"/><path d="M360 327.6a3.34 3.34 0 1 1-6.68 0 3.34 3.34 0 0 1 6.68 0ZM366.56 343.35a3.34 3.34 0 1 1-6.68 0 3.34 3.34 0 0 1 6.68 0ZM382.46 329a3.34 3.34 0 1 1-6.68 0 3.34 3.34 0 0 1 6.68 0ZM390.1 346.54a3.34 3.34 0 1 1-6.69-.02 3.34 3.34 0 0 1 6.69.02ZM375.62 353.69a3.34 3.34 0 1 0 0-6.68 3.34 3.34 0 0 0 0 6.68Z" fill="#578CE3"/><path d="M446.36 344.96H432.9v2.96h13.46v-2.96Z" fill="#263238" stroke="#263238" stroke-linecap="round" stroke-linejoin="round"/><path d="M414.74 366.49v-6.63a6.76 6.76 0 0 1 2.3-5.07l8.19-7.14h29.88l7.79 7.15a6.75 6.75 0 0 1 2.17 4.95v7.82l-50.33-1.08Z" fill="#C4C4C4"/><path d="M454.3 356.13c0 2.75-6.44 5-14.4 5s-14.4-2.23-14.4-5 6.45-5 14.4-5 14.4 2.25 14.4 5ZM483.19 365.41H313.71v67.19h169.48v-67.19Z" fill="#DBDBDB"/><path d="M313.66 400.41h168.77" stroke="gray" stroke-miterlimit="10"/><path d="M483.19 365.41h-52.71v67.19h52.71v-67.19Z" fill="#BDBDBD"/><path d="M486.47 365.41H310.43v6.46h176.04v-6.46ZM396.57 371.93l2.66 4.91h15.12l2.67-4.91h-20.45ZM396.57 400.2l2.66 4.91h15.12l2.67-4.91h-20.45ZM339.77 371.93l2.66 4.91h15.13l2.67-4.91h-20.46ZM339.77 400.2l2.66 4.91h15.13l2.67-4.91h-20.46Z" fill="gray"/><path d="M417.15 212.5H464" stroke="#BDBDBD" stroke-miterlimit="10"/><path d="M413 212.5h4.15" stroke="#BDBDBD" stroke-width="3" stroke-miterlimit="10"/><path d="M447.5 213v31.5" stroke="#BDBDBD" stroke-miterlimit="10"/><path d="M86.44 307.27h-8.25v9.33h8.25v-9.33Z" fill="#263238" stroke="#263238" stroke-miterlimit="10"/><path d="M89.67 303.68H73.88v5.74h15.79v-5.74Z" fill="#263238" stroke="#263238" stroke-miterlimit="10"/><path d="M99.72 313.73H64.19v94.75h35.53v-94.75Z" fill="#fff" stroke="#263238" stroke-miterlimit="10"/><path d="M78.01 351.06a9.15 9.15 0 1 0 0-18.3 9.15 9.15 0 0 0 0 18.3Z" fill="#263238" stroke="#263238" stroke-miterlimit="10"/><path d="m152.63 432.61-16.3-20.46H89.31l-16.17 20.46h79.49Z" fill="#fff" stroke="#263238" stroke-miterlimit="10"/><path d="M82.13 406.33h75.73v.43a5.67 5.67 0 0 1-5.67 5.67H87.8a5.67 5.67 0 0 1-5.67-5.67v-.43ZM127.29 281.48l-14.27 9.3 1.86 2.86 14.27-9.3-1.86-2.86Z" fill="#fff" stroke="#263238" stroke-miterlimit="10"/><path d="m135.37 271.7-13.31 8.68 5.57 8.56 13.32-8.67-5.58-8.56ZM83.57 258.82h-3.23v10.41h3.23v-10.41Z" fill="#263238" stroke="#263238" stroke-miterlimit="10"/><path d="M85.01 268.51h-6.46v20.46h6.46v-20.46Z" fill="#fff" stroke="#263238" stroke-miterlimit="10"/><path d="M89.31 286.81H74.24v11.84h15.07v-11.84Z" fill="#fff" stroke="#263238" stroke-miterlimit="10"/><path d="m113.67 281.15-17.17 14.5-38.11 3.36.86 9.8 45.99-4.05 15.54-11.6-7.11-12.01Z" fill="#fff" stroke="#263238" stroke-miterlimit="10"/><path d="m395.18 167.54-1.71 18s-9.93-.69-12.84-6.51-1.63-13.45-1.63-13.45l1.27-7a11.05 11.05 0 0 1 10.44.52 8.62 8.62 0 0 1 4.47 8.44Z" fill="#B5B5B5" stroke="#263238" stroke-miterlimit="10"/><path d="m324.57 225.22 36.4-8.87 18-50.77s4.28 7.95 7.34 11.62c3.06 3.67 8.87 7 8.87 7s-6.12 33.34-8.26 44c-2.14 10.66-2.44 12.54-5.2 15-2.76 2.46-35.72 23.32-35.72 23.32s11 20.49 12.24 34.87c1.24 14.38 2.14 31.2 2.14 31.2s-26.92-42.83-36.7-55.37c-9.78-12.54-13.77-31.5-11.63-41.29 2.14-9.79 12.52-10.71 12.52-10.71Z" fill="#fff" stroke="#263238" stroke-miterlimit="10"/><path d="m337.51 234.98 8.48 31.54 6.2-37.35M362 217.24a18.11 18.11 0 0 1 11 14.37M368.71 217.24s11.62 2.44 12.23 14.68M325.58 237.12l15.29 31.81-3.36 5.81 7.65 6.12 2.14 11.93" stroke="#263238" stroke-miterlimit="10"/><path d="M270.9 197.78s-18 5.82-23.86 17.13c-5.86 11.31 8.26 31.82 10.4 39.46 2.14 7.64-.92 10.4-3.67 8.26-2.75-2.14-5.81 2.14-2.75 7 3.06 4.86 19.88 1.22 25.38-1.53s4.29-21.11 1.23-33-6.73-25.39-4.9-31.2c1.83-5.81-1.83-6.12-1.83-6.12Z" fill="#263238" stroke="#263238" stroke-miterlimit="10"/><path d="M327.94 172.92s8.87 10.7 9.48 15c.37 2.22.47 4.48.31 6.73 0 0 4.28 4.89 5.2 5.5.92.61 4 2.45 2.14 4.9a6.63 6.63 0 0 1-4.9 2.44s.31 9.49-.61 13.77c-.92 4.28-2.75 5.81-6.12 6.11-3.37.3-7.64.31-7.64.31l-3.37 17.13 4.28 22.33-31.81-34.58S298 220 298 217.58s-4.59-7-.61-19.89 30.55-24.77 30.55-24.77Z" fill="#B5B5B5" stroke="#263238" stroke-miterlimit="10"/><path d="M297 205.65s5.51 1.83 7-2.14c1.49-3.97-.92-8.87 6.73-13.16 7.65-4.29 21.18-7.35 23.94-14.35 2.76-7-.31-14.38-4.59-15.3-4.28-.92-9.48 1.53-17.74 1.84-8.26.31-32.47.18-40.12 11.8-7.65 11.62-.26 32.55 1.88 37.14 2.14 4.59 2.14 16.52 11 17.13 8.86.61 15-6.12 15.6-11 .6-4.88-3.7-11.96-3.7-11.96Z" fill="#263238" stroke="#263238" stroke-miterlimit="10"/><path d="m294.9 202 44.1-15s7.95 4.89 2.45 11.32l-22.64 7.34-23.6-.66-.31-3Z" fill="#fff" opacity=".5"/><path d="m294.9 202 44.1-15s7.95 4.89 2.45 11.32l-22.64 7.34-23.6-.66-.31-3Z" stroke="#263238" stroke-miterlimit="10"/><path d="m294.9 201.98 44.05-14.99" stroke="#263238" stroke-width="2" stroke-miterlimit="10" stroke-linecap="round"/><path d="m314.17 196.47 4.59 9.18" stroke="#263238" stroke-miterlimit="10"/><path d="M302.86 207.79c-.92 0-8.87-10.71-12.85-7.65-3.98 3.06-.31 14.07 4.59 16.21 4.9 2.14 8.87-3.06 8.87-3.06" fill="#B5B5B5"/><path d="M302.86 207.79c-.92 0-8.87-10.71-12.85-7.65-3.98 3.06-.31 14.07 4.59 16.21 4.9 2.14 8.87-3.06 8.87-3.06" stroke="#263238" stroke-miterlimit="10"/><path d="M332.53 195.55c0 1.52-.55 2.76-1.23 2.76-.68 0-1.22-1.24-1.22-2.76 0-1.52.55-2.75 1.22-2.75.67 0 1.23 1.2 1.23 2.75Z" fill="#263238"/><path d="M294 228.89s15.9 13.16 24.77 27.53c8.87 14.37 31.51 40.07 35.18 48.64 3.67 8.57 6.73 17.43 6.73 24.77s.61 63 .61 64.24v38.54h-93.92s5.82-80.45 5.82-97.58c0-17.13-7.35-32.73-1.84-57.2 5.51-24.47 14.65-38.54 22.65-48.94Z" fill="#fff" stroke="#263238" stroke-miterlimit="10"/><path d="m287.87 237.76 33.95 46.8 8.56-2.75-.61 10.4 21.42 11.32M352 392.5h-49.4v7.9h45.45" stroke="#263238" stroke-miterlimit="10"/><path d="M402.16 187h4.62v13.41a2.15 2.15 0 0 1-2.15 2.15h-.33a2.15 2.15 0 0 1-2.15-2.15V187h.01Z" fill="#fff" stroke="#263238" stroke-miterlimit="10"/><path d="M407.9 184.15h-6.84v4.62h6.84v-4.62Z" fill="#fff" stroke="#263238" stroke-miterlimit="10"/><path d="M427.89 159.49s2.4 3.77 2.05 6c-.35 2.23-3.59 12-4.62 12.16-1.03.16-1.2-1-.86-4.45.34-3.45.86-5.65.86-6.68 0-1.03.68-9.08 2.57-7.03Z" fill="#578CE3" stroke="#263238" stroke-linecap="round" stroke-linejoin="round"/><path d="M381.83 154.87s-3.94 6.85-1 10.78c2.94 3.93 9.25 4.29 9.25 4.29s1 7.7 2.57 8.9c1.57 1.2 5.3 6.51 5.82 8.39.52 1.88 4.11-.51 4.11-2.06s-2.57-7.7-3.26-9.41.86-6.34 1.37-7.88c.23-.79.56-1.54 1-2.23 0 0 5 4.8 5.48 7.54.48 2.74-.86 12.84.51 14 1.37 1.16 5 .86 5.65-1.2.65-2.06 1.89-14 1.89-16.09s-3.26-9.08-3.26-9.08 5.31 5.31 5.48 7.19c.17 1.88-1.37 13.87-.51 14.21a3.12 3.12 0 0 0 3.42-.17c.97-1.1 1.73-2.38 2.23-3.76 0 0 3.42-8.05 4.79-11.82 1.37-3.77 2.57-8-.51-9.59-4.6-2.4-9.35-4.51-14.21-6.33-8.73-3.43-21.06-6-25.51-2.74-4.45 3.26-5.31 7.06-5.31 7.06Z" fill="#578CE3" stroke="#263238" stroke-linecap="round" stroke-linejoin="round"/><path d="m390.05 169.94-.69-12.33M389.88 165.48s-6.85-.17-7.54-8.9M424.46 173.19s2.23-6.51.35-9.59-9.08-7.88-9.08-7.88" stroke="#263238" stroke-miterlimit="10"/><path d="M376.38 275.24c.6-.41 11.26-11.67 11.46-12.47.2-.8.4-11.66 1.61-14.07s5.22-9.46 5.43-11.67c.21-2.21.2-9.65 0-12.26-.2-2.61 2.41-2.82 4.22-.4 1.81 2.42 2.21 5.83 2.21 8.84s.2 5.43.6 6c.4.57 3.82 3.62 5.43 4 1.61.38 11.26-4.43 14.08-5.43 2.82-1 4.62-9.25 5-10.06.38-.81.61-6.83.81-8.24.2-1.41 2.81-3.22 3.82.2 1.01 3.42.6 11.46.4 13.67-.2 2.21 0 6.84-1 8.05-1 1.21-7.44 6.83-8 7.64-.56.81-3 8.64-3.82 9.85-.82 1.21-7.64 3.82-12.26 6.63a72.5 72.5 0 0 0-9.45 7.24 2.23 2.23 0 0 1 0 3 13.79 13.79 0 0 1-4 2.41l-4.22 10.06-12.32-12.99Z" fill="#B5B5B5" stroke="#263238" stroke-miterlimit="10"/><path d="M418.6 259c.81-1.21 3.22-9 3.82-9.85.6-.85 7-6.44 8-7.64 1-1.2.81-5.83 1-8.05.19-2.22.6-10.25-.4-13.67s-3.62-1.61-3.82-.2c-.2 1.41-.4 7.44-.81 8.24-.41.8-2.21 9.05-5 10.06-2.79 1.01-12.47 5.83-14.08 5.43-1.61-.4-5-3.42-5.43-4-.43-.58-.6-3-.6-6s-.4-6.43-2.21-8.84-4.43-2.22-4.22.4c.21 2.62.2 10 0 12.26s-4.23 9.25-5.43 11.67c-1.2 2.42-1.42 13.19-1.58 13.96a74.06 74.06 0 0 1-5.88 6.71l10.73 9.19.17-.42a13.79 13.79 0 0 0 4-2.41 2.23 2.23 0 0 0 0-3 72.5 72.5 0 0 1 9.45-7.24c4.69-2.83 11.49-5.44 12.29-6.6Z" fill="#578CE3" stroke="#263238" stroke-linecap="round" stroke-linejoin="round"/><path d="m422.42 249.1-6.83 5.02" stroke="#263238" stroke-miterlimit="10"/><path d="M287 260.71s10.4-1.84 16.52 3.05c6.12 4.89 8.26 14.07 8.56 15 .3.93 29.01 27.24 29.01 27.24l36.09-33.35 17.75 17.44s-22.64 28.75-34.26 39.76c-11.62 11.01-20.19 16.2-22.33 17.15-2.14.95-4.28 0-6.73-1.53s-53.22-52.61-53.22-52.61" fill="#fff"/><path d="M287 260.71s10.4-1.84 16.52 3.05c6.12 4.89 8.26 14.07 8.56 15 .3.93 29.01 27.24 29.01 27.24l36.09-33.35 17.75 17.44s-22.64 28.75-34.26 39.76c-11.62 11.01-20.19 16.2-22.33 17.15-2.14.95-4.28 0-6.73-1.53s-53.22-52.61-53.22-52.61" stroke="#263238" stroke-miterlimit="10"/><path d="M286.34 282.12s9.48-8.87 14.38-9.18c4.9-.31 8.25 3.67 8.25 3.67M281.44 274.78s11.63-7.65 18.36-4M341.09 306s-7.95 16.82-6.73 24.77M339.56 306.89a29.83 29.83 0 0 0-11.32 15" stroke="#263238" stroke-miterlimit="10"/><path d="M413.22 208.48h4.62v13.41a2.15 2.15 0 0 1-2.14 2.11h-.33a2.15 2.15 0 0 1-2.15-2.15v-13.37Z" fill="#fff" stroke="#263238" stroke-miterlimit="10"/><path d="M418.96 205.67h-6.84v4.62h6.84v-4.62ZM421.87 208.48h4.62v13.41a2.15 2.15 0 0 1-2.15 2.15H424a2.15 2.15 0 0 1-2.15-2.15v-13.41h.02Z" fill="#fff" stroke="#263238" stroke-miterlimit="10"/><path d="M427.6 205.67h-6.84v4.62h6.84v-4.62Z" fill="#fff" stroke="#263238" stroke-miterlimit="10"/><path d="M429.46 215.52H400.1v15.08h29.36v-15.08Z" fill="#263238" stroke="#263238" stroke-miterlimit="10"/><path d="M132.55 250.53s-.35 11.59 2.11 16.16 6.67 6.32 7 10.19c.33 3.87-1.41 9.13 1.05 10.54 2.46 1.41 20 19 25.65 18.62 5.65-.38 11.64-8.43 11.64-8.43l12.65 8.08 16.86-34.78-11.24-10.19s-4.57-27.41-10.89-35.14-29.86-9.83-41.81-4.21c-11.95 5.62-16.16 18.27-19 20.73-2.84 2.46-8.77 4.9-5.57 9.48 3.2 4.58 11.55-1.05 11.55-1.05Z" fill="#fff" stroke="#263238" stroke-miterlimit="10"/><path d="M195.09 267.74c1.34-1 2.68-3.72 3.78-6.47l-.62-.55s-4.57-27.41-10.89-35.14-29.86-9.83-41.81-4.21c-11.95 5.62-16.16 18.27-19 20.73-2.84 2.46-8.75 4.9-5.55 9.48 3 4.26 10.47-.34 11.47-1l.12-.07a63.97 63.97 0 0 0 9.49-3.87 59.95 59.95 0 0 0 8.08-5.62s-7.38 12.3-4.57 16.16c2.81 3.86 11.24 2.11 11.24 2.11s5.62 7.38 9.14 5.62c3.52-1.76-1.41-8.43 3.86-10.89 5.27-2.46 9.49 8.08 9.49 9.84 0 1.76 12.61 6.34 15.77 3.88Z" fill="#263238" stroke="#263238" stroke-miterlimit="10"/><path d="m198.92 261.33-24.56 28.55s-6-.71-10.19-3.87c-4.19-3.16-7.73-10.89-7.73-10.89s17.92-19.67 27.05-25.29c8-4.91 10.6-5.8 11.13-6a95.64 95.64 0 0 0-1-3.58c-1.91.84-7.51 3.65-16.47 10.93-9.79 8-30.51 28.7-35.69 33.92a2.87 2.87 0 0 0 1.26 2.27c2.46 1.4 20 19 25.65 18.62a8.75 8.75 0 0 0 3.3-1c1.08-4.38 2.93-11 4.43-13.77 1.82-3.33 19.86-22.89 24.76-28.18l-1.94-1.71Z" fill="#578CE3" stroke="#263238" stroke-linecap="round" stroke-linejoin="round"/><path d="M167.68 266s-3.16-11.25 1.06-13.35c4.22-2.1 9.48 2.46 10.19 7.37.71 4.91-1.76 10.9-1.76 10.9a17.67 17.67 0 0 1 1.41 10.18" fill="#fff"/><path d="M167.68 266s-3.16-11.25 1.06-13.35c4.22-2.1 9.48 2.46 10.19 7.37.71 4.91-1.76 10.9-1.76 10.9a17.67 17.67 0 0 1 1.41 10.18" stroke="#263238" stroke-miterlimit="10"/><path d="M149.61 274.69c.7 1.36.69 2.75 0 3.11-.69.36-1.84-.44-2.54-1.8s-.69-2.75 0-3.11c.69-.36 1.84.44 2.54 1.8Z" fill="#263238"/><path d="M140.53 268.16s.41-4.91 6.34-3.89" stroke="#263238" stroke-miterlimit="10"/><path d="m208.83 266.79-26.56 42.35 10.41 7.54 24.4-45.94-8.25-3.95Z" fill="#fff" stroke="#263238" stroke-miterlimit="10"/><path d="M215.29 271.46s-20.46 35.54-24.41 43.43c-3.95 7.89-15.43 27.27-16.15 38.76-.72 11.49-4.3 79-4.3 79H253s6.11-51.32 5.75-71.06c-.36-19.74-5.39-48.82-20.46-68.56-15.07-19.74-23-21.57-23-21.57Z" fill="#fff" stroke="#263238" stroke-miterlimit="10"/><path d="M222.47 276.84s-12.21 23-20.46 36.25S183 340.73 180.12 349c-2.88 8.27-2.88 11.85-2.88 11.85" stroke="#263238" stroke-miterlimit="10"/><path d="m116.59 367.29-9.69-7.18s-4.67-11.84-7.54-15.07c-2.87-3.23-6.82-2.52-9.33-5.39-2.51-2.87-5.38-9.33-6.82-10-1.44-.67-4.66 1.08-4.66 3.95s3.23 7.54 3.23 8.61v1.08s-12.21-3.59-13.64-2.51c-1.43 1.08-2.87 4.66-1.8 6.46 1.07 1.8 3.23 2.51 3.23 3.95 0 1.44-2.51 6.1-1.07 7.89a12 12 0 0 0 3.59 2.87s0 6.82 2.15 9.69c2.15 2.87 18.66 5 23.69 5.75 5.03.75 19.74 7.89 19.74 7.89l-1.08-17.99Z" fill="#578CE3" stroke="#263238" stroke-linecap="round" stroke-linejoin="round"/><path d="M211.7 305.56s-15.43 7.53-21.18 27.27a429.59 429.59 0 0 0-9.33 40.2s-3.59-.72-3.59 1.44c.04 1.09-.09 2.18-.36 3.23l-62.44-11.85-1.44 29.43s81.11 15.08 85.42 15.08c4.31 0 9-1.44 10.41-5 1.41-3.56 24.76-56 24.76-56" fill="#fff"/><path d="M211.7 305.56s-15.43 7.53-21.18 27.27a429.59 429.59 0 0 0-9.33 40.2s-3.59-.72-3.59 1.44c.04 1.09-.09 2.18-.36 3.23l-62.44-11.85-1.44 29.43s81.11 15.08 85.42 15.08c4.31 0 9-1.44 10.41-5 1.41-3.56 24.76-56 24.76-56" stroke="#263238" stroke-miterlimit="10"/><path d="M218.88 322.07s12.2 6.81 14.35 16.15M210.26 332.47c1.08 0 19.39 1.44 23.33 11.85M227.13 364.42s14-6.46 18.31-20.46M180.48 378.06s7.17 13.27 6.81 22.61M184.78 375.9S192 377.34 197 387" stroke="#263238" stroke-miterlimit="10"/><path d="M281.29 362.26h-12.93a5.52 5.52 0 0 0-5.16 4.31l-13.35 66h21.53l13.35-66a3.43 3.43 0 0 0-3.44-4.31Z" fill="#263238" stroke="#263238" stroke-miterlimit="10"/><path d="M8.3 432.61h486.97" stroke="#263238" stroke-miterlimit="10"/><path d="M33.61 385.7h8.68v40.65a4 4 0 0 1-4 4h-.62a4 4 0 0 1-4-4V385.7h-.06Z" fill="#fff" stroke="#263238" stroke-linecap="round" stroke-linejoin="round"/><path d="M33.61 402.17V426a4.34 4.34 0 0 0 8.68 0v-23.83h-8.68Z" fill="#578CE3" stroke="#263238" stroke-linecap="round" stroke-linejoin="round"/><path d="M43.82 384.42H32.07v8.17h11.75v-8.17ZM54.84 430.37a4.35 4.35 0 0 1-4.35-4.37v-40.3h8.69V426a4.34 4.34 0 0 1-4.34 4.37Z" fill="#fff" stroke="#263238" stroke-linecap="round" stroke-linejoin="round"/><path d="M50.49 402.17V426a4.35 4.35 0 0 0 8.69 0v-23.83h-8.69Z" fill="#578CE3" stroke="#263238" stroke-linecap="round" stroke-linejoin="round"/><path d="M60.71 384.42H48.96v8.17h11.75v-8.17ZM71.72 430.37a4.34 4.34 0 0 1-4.34-4.37v-40.3h8.69V426a4.34 4.34 0 0 1-4.35 4.37Z" fill="#fff" stroke="#263238" stroke-linecap="round" stroke-linejoin="round"/><path d="M67.38 402.17V426a4.34 4.34 0 0 0 8.69 0v-23.83h-8.69Z" fill="#578CE3" stroke="#263238" stroke-linecap="round" stroke-linejoin="round"/><path d="M77.6 384.42H65.85v8.17H77.6v-8.17ZM88.61 430.37a4.34 4.34 0 0 1-4.34-4.37v-40.3H93V426a4.34 4.34 0 0 1-4.39 4.37Z" fill="#fff" stroke="#263238" stroke-linecap="round" stroke-linejoin="round"/><path d="M84.27 402.17V426a4.37 4.37 0 0 0 8.73 0v-23.83h-8.73Z" fill="#578CE3" stroke="#263238" stroke-linecap="round" stroke-linejoin="round"/><path d="M94.49 384.42H82.74v8.17h11.75v-8.17ZM101.83 397H26.2v2.57h75.63v26.8h-79.3v6.24h84.44V397h-5.14Z" fill="#fff" stroke="#263238" stroke-linecap="round" stroke-linejoin="round"/><path d="m385.35 427.52-9.89-38.41v-10.5h-14v10.5l-9.89 38.41a4.06 4.06 0 0 0 3.95 5.09h25.88a4.08 4.08 0 0 0 3.95-5.09Z" fill="#fff" stroke="#263238" stroke-miterlimit="10"/><path d="M377.25 408.11h-17.58l-5.19 20.16a1 1 0 0 0 .19.92 1 1 0 0 0 .84.42h25.89a1 1 0 0 0 .85-.42 1.02 1.02 0 0 0 .19-.92l-5.19-20.16Z" fill="#578CE3"/><path d="M413.83 396.29v-22.18h-13v22.18a18.75 18.75 0 1 0 13 0Z" fill="#fff" stroke="#263238" stroke-miterlimit="10"/><path d="M391.28 409.11a16.76 16.76 0 1 0 32.11 0h-32.11Z" fill="#578CE3"/><path d="M452.37 408.64V368h-8.58v40.64a12.38 12.38 0 1 0 8.58 0Z" fill="#fff" stroke="#263238" stroke-miterlimit="10"/><path d="M437.49 417.1c-.3 1.01-.46 2.07-.46 3.13a11.04 11.04 0 0 0 11.06 11.4 11.07 11.07 0 0 0 11.05-11.4c0-1.06-.15-2.12-.46-3.13h-21.19Z" fill="#578CE3"/></svg>