<svg width="750" height="500" fill="none" xmlns="http://www.w3.org/2000/svg"><path d="M652.5 138s-58-95-201-114-169 59-198 86-79 22-156 74-76 110-54 166 98 105 188 112 136-35 209-34 135 31 193 8 100-208 19-298Z" fill="#578CE3"/><path opacity=".7" d="M652.5 138s-58-95-201-114-169 59-198 86-79 22-156 74-76 110-54 166 98 105 188 112 136-35 209-34 135 31 193 8 100-208 19-298Z" fill="#fff"/><path d="M725.88 179.79h-252v34h252v-34Z" stroke="#000" stroke-linecap="round" stroke-linejoin="round"/><path d="M719.04 179.79h-252v34h252v-34Z" stroke="#000" stroke-linecap="round" stroke-linejoin="round"/><path d="M703.88 204.56a6.84 6.84 0 1 0 0-13.68 6.84 6.84 0 0 0 0 13.68ZM671.05 204.56a6.84 6.84 0 1 0 0-13.68 6.84 6.84 0 0 0 0 13.68ZM523.79 204.56a6.84 6.84 0 1 0 0-13.68 6.84 6.84 0 0 0 0 13.68ZM490.97 204.56a6.84 6.84 0 1 0 0-13.68 6.84 6.84 0 0 0 0 13.68ZM618.83 196.7v-3.54h-3.65v3.54a5.01 5.01 0 0 0-3.19 4.66v2.74h10v-2.74a5 5 0 0 0-3.16-4.66ZM595.58 196.7v-3.54h-3.65v3.54a5.01 5.01 0 0 0-3.19 4.66v2.74h10v-2.74a5 5 0 0 0-3.16-4.66ZM572.33 196.7v-3.54h-3.65v3.54a5.01 5.01 0 0 0-3.19 4.66v2.74h10v-2.74a5 5 0 0 0-3.16-4.66ZM546.59 184.49v20.06M645.52 184.49v20.06" stroke="#000" stroke-linecap="round" stroke-linejoin="round"/><g opacity=".3" stroke="#000" stroke-linecap="round" stroke-linejoin="round"><path d="M99.88 171.77a44.5 44.5 0 1 0 0-89 44.5 44.5 0 0 0 0 89Z"/><path d="M99.88 166.77a39.5 39.5 0 1 0 0-79 39.5 39.5 0 0 0 0 79Z"/><path d="M99.88 130.77a3.5 3.5 0 1 0 0-7 3.5 3.5 0 0 0 0 7ZM97.23 129.73l-8.6 12.22M100.63 123.62V96.69"/></g><path d="M131.46 372.31c.07 0 .81-4.91.82-5.22.13-3.67-1.78-10.83-5.65-12.23a4.87 4.87 0 0 0-6.28 3.6c-.7 2.82.9 6 2.62 8.15 2.03 2.51 8.49 5.7 8.49 5.7Z" fill="#263238"/><path d="M94.91 434.26a91.92 91.92 0 0 1 1.93 3.84c.38.88.81 1.7 1.14 2.61.33.91.7 1.77 1 2.64.6 1.7 1.23 3.46 1.77 5.13.39 1.17.74 2.28 1.09 3.41a129.3 129.3 0 0 0-2.33-3.8c-2.27-2.89-8.34-7.14-12.2-5.72a4.87 4.87 0 0 0-2.49 6.8c1.28 2.61 4.56 4 7.25 4.55 3 .58 9.23-.88 10-1.07a228.76 228.76 0 0 1 2.94 10.26h2.65c-.5-1.74-1-3.59-1.65-5.56-.65-1.97-1.23-3.9-1.93-6a52.96 52.96 0 0 0 5.32-3.21c2.33 2 8 4.14 8.7 4.4-.55 1.87-1.09 3.69-1.64 5.39-.55 1.7-1.09 3.38-1.61 4.93h2.67a266.53 266.53 0 0 0 2.95-10.22c.78.08 7.21.7 10.07-.26 2.6-.88 5.67-2.72 6.58-5.48a4.85 4.85 0 0 0-3.36-6.41c-4-.89-9.47 4.12-11.33 7.29-.11.18-1.08 2.34-1.67 3.71l.67-2.57c.44-1.75.83-3.51 1.26-5.41l.53-2.79c.18-.94.28-1.93.43-2.9.3-2.27.49-4.59.63-6.92 1.53.38 7 1.67 9.71 1.19 2.71-.48 6-1.82 7.33-4.41a4.84 4.84 0 0 0-2.35-6.84c-3.83-1.5-10 2.63-12.31 5.48-.14.18-1.58 2.4-2.34 3.64.07-1.4.15-2.8.18-4.22.08-4.11 0-8.27 0-12.42v-3.8c.54.14 7 1.81 10 1.27 2.7-.47 6-1.82 7.33-4.41a4.86 4.86 0 0 0-2.36-6.84c-3.83-1.5-10 2.63-12.3 5.48-.18.21-2.24 3.42-2.72 4.26 0-2.79 0-5.57.17-8.31.22-3.7.68-7.39 1.38-11.03.25.07 7 1.84 10.1 1.3 2.7-.48 6-1.83 7.33-4.41a4.85 4.85 0 0 0-2.35-6.85c-3.83-1.5-10 2.64-12.31 5.48-.18.22-2.39 3.68-2.75 4.33 0-.21.06-.43.1-.64.75-3.64 1.82-7.2 3.21-10.66a74.1 74.1 0 0 1 2.39-5.44c1.22.46 6.83 2.5 9.68 2.32 2.85-.18 6.17-1.16 7.77-3.58a4.87 4.87 0 0 0-1.59-7.07c-3.64-1.9-10.21 1.53-12.83 4.1a96.6 96.6 0 0 0-2.35 2.89c.38-.77.77-1.58 1.15-2.31a112.7 112.7 0 0 1 6.45-10.63c1.43-.17 7.2-.95 9.61-2.4 2.41-1.45 4.94-3.88 5.25-6.76a4.89 4.89 0 0 0-4.67-5.54c-4.11 0-8.36 6.06-9.5 9.55-.1.3-1.09 5.2-1 5.19h.09a111.57 111.57 0 0 0-6.6 10.38 87 87 0 0 0-4.45 9.05 63.94 63.94 0 0 0-3.52 10.76v.13c-.1-1.2-.51-4.54-.57-4.8-.84-3.57-4.58-10-8.67-10.3a4.86 4.86 0 0 0-5.11 5.13c.06 2.91 2.45 5.57 4.67 7.17 2.51 1.81 9.08 3.13 9.61 3.24a85.17 85.17 0 0 0-1.54 11.39c-.16 2.22-.26 4.47-.32 6.73-.13-1-.24-2-.27-2.09-.85-3.57-4.58-10-8.68-10.3a4.86 4.86 0 0 0-5.11 5.13c.06 2.91 2.45 5.57 4.67 7.17 2.22 1.6 7.84 2.87 9.32 3.18v2.6c-.07 4.15-.11 8.3-.28 12.36-.06 1.43-.17 2.84-.28 4.25a38.3 38.3 0 0 0-.24-1.81c-.84-3.57-4.58-10-8.67-10.3a4.86 4.86 0 0 0-5.11 5.13c.06 2.91 2.45 5.57 4.67 7.17 2.22 1.6 7.3 2.75 9 3.12-.15 1.44-.3 2.89-.51 4.28-.16.94-.26 1.86-.48 2.8-.22.94-.39 1.86-.59 2.78-.44 1.75-.88 3.56-1.35 5.26a77.56 77.56 0 0 1-1 3.44c.08-1.43.17-4.22.15-4.45a19 19 0 0 0-3.47-8.88 6.13 6.13 0 0 0-.18-1.06 4.86 4.86 0 0 0-6.34-3.49c-3.85 1.46-5.63 8.66-5.44 12.32 0 .22.4 2.55.67 4-.29-.84-.56-1.66-.87-2.52-.6-1.7-1.24-3.39-1.93-5.2l-1.1-2.62c-.35-.88-.83-1.77-1.24-2.66-1-2.06-2.12-4.09-3.29-6.12 1.49-.52 6.76-2.47 8.76-4.36 2-1.89 4-4.84 3.68-7.72a4.86 4.86 0 0 0-5.74-4.41c-4 .86-6.88 7.7-7.24 11.36v4.33c-.71-1.21-1.41-2.42-2.18-3.63-2.19-3.47-4.53-6.91-6.84-10.36-.71-1.05-1.4-2.11-2.1-3.17.53-.18 6.85-2.35 9.09-4.48 2-1.88 4-4.84 3.68-7.72a4.87 4.87 0 0 0-5.74-4.41c-4 .86-6.88 7.71-7.24 11.36 0 .28 0 4.09.08 5.06-1.53-2.33-3-4.67-4.44-7a84.71 84.71 0 0 1-5.06-9.89c.25-.08 6.85-2.32 9.14-4.49 2-1.89 4-4.84 3.68-7.73a4.85 4.85 0 0 0-5.74-4.41c-4 .87-6.87 7.71-7.24 11.36 0 .29 0 4.39.09 5.14l-.27-.6a63.11 63.11 0 0 1-3.2-10.66c-.44-2-.75-3.95-1-5.85 1.28-.29 7.07-1.69 9.35-3.41 2.28-1.72 4.51-4.37 4.51-7.28a4.86 4.86 0 0 0-5.22-5c-4.09.42-7.68 6.91-8.44 10.5 0 .19-.25 2.22-.37 3.7-.11-.85-.23-1.74-.31-2.56a105.3 105.3 0 0 1-.48-8.47v-3.95c1.1-.94 5.48-4.77 6.69-7.31s2-6 .65-8.53a4.86 4.86 0 0 0-7-2c-3.44 2.25-3.63 9.66-2.65 13.2.08.31 2 4.94 2 4.89l.06-.06c0 1.17-.07 2.43-.07 3.8 0 2.53.05 5.39.3 8.51.23 3.36.66 6.7 1.28 10a64 64 0 0 0 3 10.87.6.6 0 0 1 0 .12c-.74-.94-2.92-3.51-3.11-3.69-2.68-2.51-9.33-5.79-12.93-3.8a4.87 4.87 0 0 0-1.43 7.1c1.66 2.38 5.12 3.28 7.86 3.4 3.09.12 9.3-2.4 9.79-2.6 1.43 3.55 3.1 7 5 10.34 1.09 1.95 2.25 3.88 3.44 5.8-.67-.8-1.28-1.5-1.38-1.59-2.67-2.52-9.32-5.8-12.92-3.81a4.87 4.87 0 0 0-1.43 7.1c1.66 2.38 5.11 3.29 7.85 3.4 2.74.11 8.12-1.93 9.53-2.49l1.38 2.2c2.24 3.5 4.49 7 6.59 10.46.75 1.23 1.43 2.47 2.12 3.7l-1.19-1.38c-2.68-2.51-9.33-5.79-12.93-3.8a4.87 4.87 0 0 0-1.43 7.1c1.66 2.38 5.12 3.29 7.86 3.4 2.74.11 7.76-1.85 9.44-2.5Z" fill="#263238"/><path d="M58.71 378.29c3.06 1 10.22.06 10.23.06.01 0-2-4.54-2.2-4.81-1.92-3.13-7.46-8.05-11.46-7.08a4.87 4.87 0 0 0-3.28 6.47c1 2.74 4.09 4.52 6.71 5.36Z" fill="#263238"/><g opacity=".3" stroke="#000" stroke-linecap="round" stroke-linejoin="round"><path d="M287.61 72.25H171.56v326.53h116.05V72.25Z"/><path d="M172.18 82.18h115.19l-2.7-8.98M172.18 93.05h115.19l-2.7-8.97M172.18 103.92h115.19l-2.7-8.97M172.18 114.8h115.19l-2.7-8.98M172.18 125.67h115.19l-2.7-8.98M172.18 136.54h115.19l-2.7-8.98M172.18 147.41h115.19l-2.7-8.98M172.18 158.28h115.19l-2.7-8.98M172.18 169.15h115.19l-2.7-8.97M172.18 180.02h115.19l-2.7-8.97M172.18 190.89h115.19l-2.7-8.97M172.18 201.77h115.19l-2.7-8.98M172.18 212.64h115.19l-2.7-8.98M172.18 223.51h115.19l-2.7-8.98M172.18 234.38h115.19l-2.7-8.98M172.18 245.25h115.19l-2.7-8.98M172.18 256.12h115.19l-2.7-8.97M172.18 266.99h115.19l-2.7-8.97M172.18 277.86h115.19l-2.7-8.97M172.18 288.74h115.19l-2.7-8.98M172.18 299.61h115.19l-2.7-8.98M172.18 310.48h115.19l-2.7-8.98M172.18 321.35h115.19l-2.7-8.98M172.18 332.22h115.19l-2.7-8.98M172.18 343.09h115.19l-2.7-8.97M172.18 353.96h115.19l-2.7-8.97M172.18 364.83h115.19l-2.7-8.97M172.18 375.7h115.19l-2.7-8.97M172.18 386.58h115.19l-2.7-8.98M412.4 72.25H296.35v326.53H412.4V72.25Z"/><path d="M296.97 82.18h115.2l-2.71-8.98M296.97 93.05h115.2l-2.71-8.97M296.97 103.92h115.2l-2.71-8.97M296.97 114.8h115.2l-2.71-8.98M296.97 125.67h115.2l-2.71-8.98M296.97 136.54h115.2l-2.71-8.98M296.97 147.41h115.2l-2.71-8.98M296.97 158.28h115.2l-2.71-8.98M296.97 169.15h115.2l-2.71-8.97M296.97 180.02h115.2l-2.71-8.97M296.97 190.89h115.2l-2.71-8.97M296.97 201.77h115.2l-2.71-8.98M296.97 212.64h115.2l-2.71-8.98M296.97 223.51h115.2l-2.71-8.98M296.97 234.38h115.2l-2.71-8.98M296.97 245.25h115.2l-2.71-8.98M296.97 256.12h115.2l-2.71-8.97M296.97 266.99h115.2l-2.71-8.97M296.97 277.86h115.2l-2.71-8.97M296.97 288.74h115.2l-2.71-8.98M296.97 299.61h115.2l-2.71-8.98M296.97 310.48h115.2l-2.71-8.98M296.97 321.35h115.2l-2.71-8.98M296.97 332.22h115.2l-2.71-8.98M296.97 343.09h115.2l-2.71-8.97M296.97 353.96h115.2l-2.71-8.97M296.97 364.83h115.2l-2.71-8.97M296.97 375.7h115.2l-2.71-8.97M296.97 386.58h115.2l-2.71-8.98"/></g><path d="M437.88 429.79v-358" stroke="#000" stroke-linecap="round" stroke-linejoin="round"/><path d="m433.17 290.76 1.92 16.33s12.17 9 20.17 17.6c8 8.6 25 20.81 25 20.81s15 .64 17.93 1c2.93.36 11.81 6.05 11.81 6.05s1.6 1.6-1.28 2.24c-1.92.35-3.9.25-5.77-.32 0 0 11.21 8.32 12.81 9.6 1.6 1.28.64 2.88-1.28 2.88s-10.25-6.08-10.25-6.08 12.17 9.28 10.25 9.92c-1.92.64-5.12.32-5.76-.64-.64-.96-9.93-7-9.93-7s8.65 12.17 9 13.77c.35 1.6-3.53 2.24-3.85.32-.32-1.92-7.36-9.29-7.36-9.29L495 366l4.8 10.89s-1 1.6-3.2-1a35.6 35.6 0 0 1-3.84-5.45l-5.12-2.88s-9.61-5.12-12.17-6.72c-2.56-1.6-7.36-7.36-7.36-7.36s-35.54-13.77-40.66-17c-5.12-3.23-11.84-10.24-11.84-10.24v-33l17.56-2.48Z" fill="#fff" stroke="#263238" stroke-linecap="round" stroke-linejoin="round"/><path d="m434.11 303.35-20.16 10.76 1.34-11.43 19.49-8.06-.67 8.73Z" fill="#263238" stroke="#263238" stroke-width="2" stroke-linecap="round" stroke-linejoin="round"/><path d="m503 354.47-4.48-2.24s-6.4 4.48-13.44 3.84M504.24 360.87l-4.48-3.52" stroke="#263238" stroke-linejoin="round"/><path d="m295.19 442.18 3.8-61.55A186.36 186.36 0 0 1 314 318l-5-98.63 41.3-12.17s33.61-3.84 35.85-3.2c2.24.64 10.89 3.84 12.17 4.48 1.28.64 24 9.61 27.21 11.21 3.21 1.6 7.36 28.81 10.25 38.1 2.89 9.29 10.22 32.65 10.22 32.65s-12.17 4.8-16.65 6.4c-4.48 1.6-9.6 3.2-9.6 3.2l2.56 33.3 4.16 17 6.4 96.36" fill="#578CE3"/><path d="m295.19 442.18 3.8-61.55A186.36 186.36 0 0 1 314 318l-5-98.63 41.3-12.17s33.61-3.84 35.85-3.2c2.24.64 10.89 3.84 12.17 4.48 1.28.64 24 9.61 27.21 11.21 3.21 1.6 7.36 28.81 10.25 38.1 2.89 9.29 10.22 32.65 10.22 32.65s-12.17 4.8-16.65 6.4c-4.48 1.6-9.6 3.2-9.6 3.2l2.56 33.3 4.16 17 6.4 96.36" stroke="#263238" stroke-linecap="round" stroke-linejoin="round"/><path d="M419.73 300s1.92-20.48 1.6-25.61c-.32-5.13-2.88-21.39-2.88-21.39l4.8-17.6M333 273.79s22.41 1 30.73 0M349.62 274.75l-3.52 30.42M351.22 280.84l.32 21.12M406.28 272.51s1.6 23.05 1.6 27.53M345.78 359.91V349c-22.41 1.29-38.1-3.84-38.1-3.84l.32 18.57" stroke="#263238" stroke-miterlimit="10"/><path d="M356.42 192 355 203.52l-6.48 5.28 28.57 34.34s13.69-30 14.17-31.93c.48-1.93 1.68-4.09.48-5.53-1.2-1.44-4.57-10.8-4.57-10.8L356.42 192Z" fill="#fff" stroke="#263238" stroke-linecap="round" stroke-linejoin="round"/><path d="M390.22 202.76c-1.4-3.25-3.07-7.88-3.07-7.88l-17.21-1.61-7.29 4.64a21.51 21.51 0 0 0 14.24 5.73c4.46.21 8.93-.08 13.33-.88Z" fill="#263238" stroke="#263238" stroke-linecap="round" stroke-linejoin="round"/><path d="M402.3 161.24s3-4.23 5.24-1.81c2.24 2.42.6 9.47-1 12.69-1.6 3.22-6.45 3.83-6.45 3.83l2.21-14.71Z" fill="#fff" stroke="#263238" stroke-linecap="round" stroke-linejoin="round"/><path d="M351.64 125.4s-3.36 33.94-2.94 40.22c.42 6.28-2.09 18.85.42 23.88 2.51 5.03 14.25 10.89 19.27 11.31 5.02.42 21.37-2.09 25.14-5.86 3.77-3.77 9.22-33.52 10.06-35.2.84-1.68 4.6-23.88 4.6-28.9s-13.82-12.57-23.88-14.25c-10.06-1.68-24.71.42-28.49 2.93a9.09 9.09 0 0 0-4.18 5.87Z" fill="#fff" stroke="#263238" stroke-linecap="round" stroke-linejoin="round"/><path d="M398.79 154.26s-1.5 7.92.95 9.54c2.45 1.62 2.86.38 3.44-1 .58-1.38.57-6.1.57-6.1l-4.96-2.44Z" fill="#263238" stroke="#263238" stroke-linecap="round" stroke-linejoin="round"/><path d="M408.2 173.91c0-8.64-5-11.07-5-11.07s3.1 11.07 2.46 18.11" stroke="#263238" stroke-linecap="round" stroke-linejoin="round"/><path d="M397.87 167.89c-3.23 2.22-6.65 3.22-12.29 3.22-5.64 0-11.69-3-11.69-3s-4.43-2.42-8.46-2c-4.03.42-12.09 4.23-14.71 4.83l-2.14.5c-.41 6.4-1.33 14.34.54 18.09 2.52 5 14.25 10.89 19.27 11.31 5.02.42 21.37-2.09 25.14-5.86 1.45-1.45 3.14-6.73 4.73-12.77 0-1.8.06-3.76.21-5.83.61-8.06 3.22-10.48 3.22-10.48.13-.19.3-.35.51-.46 0-.22.09-.42.14-.63-.44.28-1.84 1.27-4.47 3.08Z" fill="#578CE3" stroke="#263238" stroke-linecap="round" stroke-linejoin="round"/><path d="m364.63 168.9-2.02 11.08M363.82 170.31a15 15 0 0 0-3.63 6.64M387.71 176.94h-3.34M397.26 175.34a22.35 22.35 0 0 1-6.11 1.35M395.05 185.82s-5.85 1.81-7.26 1.81M385.78 194.89c2.66-.6 5.28-1.35 7.86-2.22M366.55 155.31s-10.39-2.73-19.75-.21c0 0-2.13 12.41 2.24 14 3.25 1.19 10.17 1.26 11.88.5 1.71-.76 4.11-2 5.78-8.23.4-1.46-.15-6.06-.15-6.06ZM371 155.47a46.7 46.7 0 0 1 21.83 1.74s-1.07 12.29-5.56 13.5c-3.34.9-10.24.39-11.88-.52-1.64-.91-3.92-2.4-5.06-8.7-.26-1.49.67-6.02.67-6.02ZM366.55 155.31l4.45.16M366.84 159.02l3.43.21" stroke="#263238" stroke-linecap="round" stroke-linejoin="round"/><path d="m392.83 157.21 10.76 2.54-10.96-.93.2-1.61Z" fill="#263238" stroke="#263238" stroke-linecap="round" stroke-linejoin="round"/><path d="M353.54 151.77s5.85-3.83 10.28 0M373.89 151.17s6.05-2.82 14.31 2.82" stroke="#263238" stroke-width="2" stroke-linecap="round" stroke-linejoin="round"/><path d="M384.31 116.6c-10.05-1.67-24.71.42-28.49 2.93a9.09 9.09 0 0 0-4.18 5.87s-1.24 12.49-2.11 23.72c4.1-2.07 11.68-4.24 24.36-2.59a66.83 66.83 0 0 1 30.06 12c1.24-5 4.24-23.21 4.24-27.7 0-5.01-13.82-12.55-23.88-14.23Z" fill="#578CE3" stroke="#263238" stroke-linecap="round" stroke-linejoin="round"/><path d="M352.74 162.45s4.63-2 8.26.6M377.32 163.66s5-3.22 8.66.8" stroke="#263238" stroke-width="2" stroke-linecap="round" stroke-linejoin="round"/><path d="M289.43 297.16v26.57s25.93 12.49 41.3 15.37c15.37 2.88 50.27 9.6 50.27 9.6s10.25 2.57 13.77 2.57c3.52 0 17.61-2.89 18.57-3.21.96-.32 9.6 2.25 13.12 2.25 3.52 0 3.84-2.25 3.84-2.25s9.29 3.85 9.93 2.25c.64-1.6-1.28-4.49-1.28-4.49s0-4.16-2.24-5.76c-2.24-1.6-18.89-11.2-18.89-11.2s-24.33 6.72-28.49 7.36c-4.16.64-14.73-1.92-23.69-5.44-8.96-3.52-49.31-22.09-49.31-22.09l.64-7.37-27.54-4.16Z" fill="#fff" stroke="#263238" stroke-linecap="round" stroke-linejoin="round"/><path d="M409.48 343.26s6.73-.64 10.25 0c3.52.64 10.56 4.8 10.56 4.8M413.65 337.18s9 .32 12.16 1.6 13.13 7 13.13 7M415.89 333.34s5.12-.32 6.4 0c1.28.32 12.48 5.76 12.48 5.76" stroke="#263238" stroke-miterlimit="10"/><path d="m316.64 250.1 5.77 23.69.64 28.49s-11.21 2.57-21.13 1c-9.92-1.57-26.25-8.65-26.25-8.65s21.77-68.51 23.05-70.75c1.28-2.24 3.84-2.88 6.08-3.84s11.52-2.56 11.52-2.56" fill="#578CE3"/><path d="m316.64 250.1 5.77 23.69.64 28.49s-11.21 2.57-21.13 1c-9.92-1.57-26.25-8.65-26.25-8.65s21.77-68.51 23.05-70.75c1.28-2.24 3.84-2.88 6.08-3.84s11.52-2.56 11.52-2.56" stroke="#263238" stroke-linecap="round" stroke-linejoin="round"/><path d="M183.14 138.15s-.95-9-10.44-6.64c-9.49 2.36-15.17 20.86-25.13 37.94-9.96 17.08-13.28 29.87-8.06 40.78 5.22 10.91 10.43 18.49 8.06 24.66-2.37 6.17-10.43 4.74-10.43 4.74s-.95 4.74 6.64 6.16 21.81-5.21 28-19.91c6.19-14.7 7.58-34.62 5.21-44.58s-3.32-21.81 0-29.87c3.32-8.06 4.72-8.54 6.15-13.28Z" fill="#263238" stroke="#263238" stroke-linecap="round" stroke-linejoin="round"/><path d="M242.89 140.05a27.82 27.82 0 0 1 6.63 14.7c.64 4.22-1.42 12.32-.94 15.64.48 3.32 3.79 4.27 3.79 10s-10.91 24.61-13.28 29.84c-2.37 5.23-17.54 1-17.54 1s-7.59 12.33-9.49 20.39l-3.79 16.12S187.4 224 184.08 221.13c-3.32-2.87-10-7.58-10-7.58s9-7.59 11.38-16.6c2.38-9.01-5.69-31.77 1.89-43.63 7.58-11.86 19-16.12 32.25-19 13.25-2.88 23.29 5.73 23.29 5.73Z" fill="#fff" stroke="#263238" stroke-linecap="round" stroke-linejoin="round"/><path d="m204.68 192.87 12.19 27.14 4.68-8.83-16.87-18.31ZM242.89 140.05s-10-4.75-15.65 0-1 9.48-1 13.75-7.11 5.69-9.49 6.64c-2.38.95-2.84 3.32-5.21 7.58s-8.54 4.75-8.54 4.75 2.85 12.32-6.16 18.49c-9.01 6.17-11.38 2.37-13.75-2.37-2.37-4.74-15.09-29.89-5.17-46.95 9.92-17.06 26.08-20.86 39.36-20.86 13.28 0 25.61 6.64 25.61 6.64s5.21-10 11.38 0c6.17 10 2.37 19.91-1 22.28l-3.27 2.37s-3.79-8.53-7.11-12.32Z" fill="#263238" stroke="#263238" stroke-linecap="round" stroke-linejoin="round"/><path d="M238.08 212.47c2.5-1.12 6.11-10 6.11-10s8.61-19.17 8.18-22.12a39.12 39.12 0 0 0-1.53-6c-3.62-.28-10.09-.78-20.76-1.58-19-1.43-31.29-6.64-31.29-6.64s-9.49 4.26-2.85 15.17c6.64 10.91 25.61 29.88 25.61 29.88s14.03 2.4 16.53 1.29ZM213 186c-1.9 4.74-4.27 6.17-4.27 6.17l-9.48-9s-9.48-10-.47-14.7l18.49 6.16S214.91 181.3 213 186Z" fill="#578CE3" stroke="#263238" stroke-linecap="round" stroke-linejoin="round"/><path d="M221 178.37a62.32 62.32 0 0 0 17.57 2.75M231.41 194c1.28.19 2.58.29 3.87.3M216.07 189.9a91.57 91.57 0 0 0 11.5 3.41M213.32 198.69s5.49 4.39 8.24 5.49" stroke="#263238" stroke-linecap="round" stroke-linejoin="round"/><path d="M206.85 174.66s-6.17-18-13.28-8.53c-7.11 9.47 6.16 21.34 7.59 22.28 1.43.94 5.69-3.79 5.69-3.79" fill="#fff"/><path d="M206.85 174.66s-6.17-18-13.28-8.53c-7.11 9.47 6.16 21.34 7.59 22.28 1.43.94 5.69-3.79 5.69-3.79" stroke="#263238" stroke-linecap="round" stroke-linejoin="round"/><path d="M241.14 166.78c0 1.45-.56 2.64-1.25 2.64s-1.25-1.19-1.25-2.64c0-1.45.56-2.64 1.25-2.64s1.25 1.18 1.25 2.64Z" fill="#263238"/><path d="M236.14 159.69s5-4.16 9.72.28" stroke="#263238" stroke-linecap="round" stroke-linejoin="round"/><path d="m228.31 304.71 26.86 17.24 50.14-9.7-57.68 22.1-20.49-12.4 1.17-17.24Z" fill="#fff" stroke="#263238" stroke-linecap="round" stroke-linejoin="round"/><path d="M135.81 448.71s11-92.5 11-96.5-8.5-70.5-3-93.5 21-41 28.5-44.5 8-1 17 7 26.5 31 26.5 31 15.5 26.5 17 40.5 2 28.5 3 32 27.5 126.5 27.5 126.5" fill="#578CE3"/><path d="M135.81 448.71s11-92.5 11-96.5-8.5-70.5-3-93.5 21-41 28.5-44.5 8-1 17 7 26.5 31 26.5 31 15.5 26.5 17 40.5 2 28.5 3 32 27.5 126.5 27.5 126.5M176.49 384.25l-7.18 5.24" stroke="#263238" stroke-linecap="round" stroke-linejoin="round"/><path d="M217.07 354.41s-21.91 16.14-36.42 26.79M184.1 373.85l-26.62 17.75M223.85 406.21l-39.71 1v19.33M237.48 405.87l-7.33.19" stroke="#263238" stroke-linecap="round" stroke-linejoin="round"/><path d="M370.32 257.89s2.85-14.95-10.68-22.43-27.77 2.85-30.62 7.12a24.33 24.33 0 0 0-3.56 12.82c0 3.21-3.2 2.49-3.91 4.27-.71 1.78 2.13 4.63 2.13 4.63s-1.06 4.27 0 5.7c1.06 1.43 8.55-7.12 18.16-7.83s17.8 1.78 20.3 2.13c2.5.35 7.47-.3 8.18-6.41Z" fill="#fff" stroke="#263238" stroke-linecap="round" stroke-linejoin="round"/><path d="m328 256.13-1.48 2.47a2.8 2.8 0 0 0 3 1.24" fill="#fff"/><path d="m328 256.13-1.48 2.47a2.8 2.8 0 0 0 3 1.24" stroke="#263238" stroke-linecap="round" stroke-linejoin="round"/><path d="M328.51 253.66s1.48-.75 3.21 1Z" fill="#fff"/><path d="M328.51 253.66s1.48-.75 3.21 1" stroke="#263238" stroke-linecap="round" stroke-linejoin="round"/><path d="M372.1 267.51s2.14-8.55 2.14-11c0-2.45-17.09-4.63-29.55-1.07-12.46 3.56-18.87 14.24-21 14.6-2.13.36-16.73-3.56-21.36 1.42-4.63 4.98-11 18.52-11 18.52s-14.6-2.5-23.86 3.56c-9.26 6.06-14.59 24.56-15.31 26.34-.72 1.78-3.91 5.7-3.91 5.7s12.46 3.91 40.58-2.49c28.12-6.4 43.8-13.53 51.27-18.87 7.47-5.34 18.87-18.16 22.43-21.72 3.56-3.56 9.57-14.99 9.57-14.99Z" fill="#fff" stroke="#263238" stroke-linecap="round" stroke-linejoin="round"/><path d="M315.9 282.21a38.78 38.78 0 0 0-1.42 2.52M323.68 270s-2.54 3.86-5 7.73M321.85 270.51l-10.53 5.79M282.35 299.47s7.38-9.48 11.06-11.06c3.68-1.58 10.53-1.58 10.53-1.58" stroke="#263238" stroke-linecap="round" stroke-linejoin="round"/><path d="m224.81 303.71 17.5 18.5s27-2 43.5-5 42.5-10.5 42.5-10.5l1-17s5-7 6-10 1.5-10.5 4.5-10.5 3 6 2.5 10a28.34 28.34 0 0 1-3 8.5s13.5-4 16-5.5 13-14 16.5-18 5-2 2.5 3a75.4 75.4 0 0 0-6.5 18c-1.5 7-20 18.5-25.5 25s-30.5 16.5-41.5 23-42.5 18-50 20a68.57 68.57 0 0 1-16 2.5c-2.5 0-40.5-40.5-40.5-40.5l25.5-13.5 5 2Z" fill="#fff" stroke="#263238" stroke-linecap="round" stroke-linejoin="round"/><path d="m222.63 306.15-16.1 20.29-9.09-8.4 25.19-11.89Z" fill="#263238" stroke="#263238" stroke-width="2" stroke-linecap="round" stroke-linejoin="round"/><path d="M371.39 274.63s-6.76 10.32-7.12 12.1c-.36 1.78-5.34 6.77-6.41 7.48" stroke="#263238" stroke-linecap="round" stroke-linejoin="round"/><path d="M165.31 236.21s-8.5 9.5-8.5 21.5 14 77.5 14 77.5 41-20 47.5-23.5c3.63-1.88 7-4.23 10-7 0 0-18.5-47-26.5-60s-22-17-22-17" fill="#578CE3"/><path d="M165.31 236.21s-8.5 9.5-8.5 21.5 14 77.5 14 77.5 41-20 47.5-23.5c3.63-1.88 7-4.23 10-7 0 0-18.5-47-26.5-60s-22-17-22-17M202.31 318.71l-14.5-41.5M182.31 262.21l4 11.5" stroke="#263238" stroke-linecap="round" stroke-linejoin="round"/><path d="M685 251.14a16.29 16.29 0 0 0-13.26-6.85h-9.82v11h9.82a5.24 5.24 0 0 1 4.95 7l-71.26 201.36h12L687 265.93a16.28 16.28 0 0 0-2-14.79Z" fill="#263238" stroke="#263238" stroke-linecap="round" stroke-linejoin="round"/><path d="M602.17 463.45s76.14-209.24 75.14-214.24-4.5-10.5-9-11c-2.41-.27-46.16 1.68-86.6 2.76-35.21.94-67.84.78-69.11 3.32-2.72 5.44-79.79 143.92-79.79 143.92l-39 73.5" fill="#CCC"/><path d="M602.17 463.45s76.14-209.24 75.14-214.24-4.5-10.5-9-11c-2.41-.27-46.16 1.68-86.6 2.76-35.21.94-67.84.78-69.11 3.32-2.72 5.44-79.79 143.92-79.79 143.92l-39 73.5" stroke="#263238" stroke-linecap="round" stroke-linejoin="round"/><path d="M591 463.45s72.83-205.24 78.33-214.74-1-10.5-1-10.5l-154 3.5s-4.5 1.5-6.5 4.5-111.5 211-111.5 211" fill="#fff"/><path d="M591 463.45s72.83-205.24 78.33-214.74-1-10.5-1-10.5l-154 3.5s-4.5 1.5-6.5 4.5-111.5 211-111.5 211" stroke="#263238" stroke-linecap="round" stroke-linejoin="round"/><path d="M597 445.87s-10 8.73-18.32 12.21c-8.32 3.48-18.31 5.67-22.67 4.8-4.36-.87-11.78-5.67-11.78-5.67L597 445.87ZM496.27 233s-10.11-1.55-8.95-8.16c1.16-6.61 27.61-18.67 38.89-19.06 11.28-.39 32.66 16.33 38.11 27.61 5.45 11.28 5.44 29.55-1.56 39.66-7 10.11-10.5 9.34-10.11 17.11.39 7.77 7.78 10.5 11.67 16.72 3.89 6.22 2.72 17.5 2.72 19.45 0 1.95-51.33 3.5-53.66 3.5-2.33 0 7.77-17.11 10.11-28s-6.61-19.06-9.34-28.39c-2.73-9.33 2.34-15.55-1.55-29.16-3.89-13.61-16.33-11.28-16.33-11.28Z" fill="#263238" stroke="#263238" stroke-linecap="round" stroke-linejoin="round"/><path d="M554.05 297.45c2.54 3.35 4.43 5.55 4.43 5.55M539.82 253.23S539 271.9 544.1 282c2.2 4.23 4.7 8.28 7.51 12.13M537.13 282.4a18.63 18.63 0 0 1 2.41 8.78M507.4 218.52s16.79-6.08 23.16 3.18c6.37 9.26 2.9 17.08-.29 35-1.95 11 2 17.12 5.31 22.87" stroke="#858585" stroke-linecap="round" stroke-linejoin="round"/><path d="M551 253.76c-2 10.49-5.84 19.26-4.26 24.4M537.22 215.33s13 5.79 14.77 22.87c.34 3.64.27 7.31-.21 10.94" stroke="#858585" stroke-linecap="round" stroke-linejoin="round"/><path d="M396.31 385.71s8-.5 10 0 2.5 1.5 4 .5c4-3.13 7.84-6.47 11.5-10 3-3 7.5-10 10.5-11.5s5 10 4.5 14.5-16 22.5-17.5 24-27.5-2.5-31.5-7 8.5-10.5 8.5-10.5Z" fill="#578CE3" stroke="#263238" stroke-linecap="round" stroke-linejoin="round"/><path d="M404.81 396.71s-12.5-15-17.5-25a89.14 89.14 0 0 1-7-21s2.5-13 2-16-13.5-11.5-15.5-12.5-16 14.5-14.5 18.5 14 13 14 13l11.5 50.5s19.5 5.5 27-7.5Z" fill="#fff" stroke="#263238" stroke-linecap="round" stroke-linejoin="round"/><path d="M381 352.37s1.58-14.72 1.36-17.66c-.22-2.94-5.37-7.81-6.22-11.25-.85-3.44-4.3-4.86-4.58 0-.28 4.86 4.29 8.3 4.29 8.3s-5.44 9.73-5.15 13.74a13 13 0 0 0 2.29 6.58" fill="#fff"/><path d="M381 352.37s1.58-14.72 1.36-17.66c-.22-2.94-5.37-7.81-6.22-11.25-.85-3.44-4.3-4.86-4.58 0-.28 4.86 4.29 8.3 4.29 8.3s-5.44 9.73-5.15 13.74a13 13 0 0 0 2.29 6.58" stroke="#263238" stroke-linecap="round" stroke-linejoin="round"/><path d="M348.62 335.29s-3.17 3.33-3.33 5.23c-.16 1.9-.47 6.66 1.59 6.34 2.06-.32 1.58-5.39 1.9-5.86a28.7 28.7 0 0 1 2.22-2.22s2.22-1.59 2.06-3.81c-.16-2.22-4.44.32-4.44.32Z" fill="#fff" stroke="#263238" stroke-linecap="round" stroke-linejoin="round"/><path d="M355 328s-4.76 2.7-5.71 4.6c-.95 1.9-1.91 7.77-1.59 9.2.32 1.43 2.54.95 3.17-.32.63-1.27 2.86-6.34 3.17-7 .31-.66 3.3-6.8.96-6.48Z" fill="#fff" stroke="#263238" stroke-linecap="round" stroke-linejoin="round"/><path d="M362.26 323.24s-4.28.31-6.5 2.06c-2.22 1.75-4.92 8.24-4.92 11.26 0 3.02 1.75 2.53 2.86 1.58 1.11-.95 3-5.39 3.64-7 .64-1.61 2.86-4 3.49-4.13.63-.13 1.59-.13 1.43-3.77Z" fill="#fff" stroke="#263238" stroke-linecap="round" stroke-linejoin="round"/><path d="M369.5 324s-4.58-2.86-6.29-2.86-5.73 10.59-5.73 12.59 3.06.81 4.78-1.48c1.72-2.29 3.81-5.38 3.81-5.38l1.72 2.86" fill="#fff"/><path d="M369.5 324s-4.58-2.86-6.29-2.86-5.73 10.59-5.73 12.59 3.06.81 4.78-1.48c1.72-2.29 3.81-5.38 3.81-5.38l1.72 2.86" stroke="#263238" stroke-linecap="round" stroke-linejoin="round"/><path d="M568.31 346.71s16.5 18.5 24.5 39 23.5 45.5 25.5 49-7.5 5-10.5 6.5-29.5 13.5-38 15.5-24.5 3-24.5 3l-45.5-51 68.5-62Z" fill="#fff" stroke="#263238" stroke-linecap="round" stroke-linejoin="round"/><path d="M576.91 359.53s-7.41 24.85-7.41 35.32c0 10.47-.88 18.75-.44 21.81.44 3.06-11.34 5.23-15.26 10.9s-6.11 17-6.11 17-12.64-5.24-21.37-12.22 10.47-19.18 20.5-33.14 24-42.74 24-42.74 6.54-1.3 6.1 3.06" fill="#263238"/><path d="M576.91 359.53s-7.41 24.85-7.41 35.32c0 10.47-.88 18.75-.44 21.81.44 3.06-11.34 5.23-15.26 10.9s-6.11 17-6.11 17-12.64-5.24-21.37-12.22 10.47-19.18 20.5-33.14 24-42.74 24-42.74 6.54-1.3 6.1 3.06" stroke="#263238" stroke-linecap="round" stroke-linejoin="round"/><path d="M497.29 291.23c1.07 5.7.06 11.58-2.84 16.6-4.85 8.1-17.3 18.84-9.46 22.78 7.84 3.94 15.54-7.39 16.35-15.89.81-8.5-2.03-24.72-4.05-23.49Z" fill="#263238" stroke="#263238" stroke-linecap="round" stroke-linejoin="round"/><path d="M480.32 329.84c-7.65 1.01-15.2 2.7-22.55 5.05-10.11 3.5-24.5 13.22-24.89 22.55-.39 9.33-12.05 24.5-15.55 29.94a60.08 60.08 0 0 1-8.55 10.11s38.1-5.44 61.05 5.45c22.95 10.89 32.66 14 38.88 17.11 6.22 3.11 19.83 8.55 30.33 5.44 10.5-3.11 19.05-.78 26.05-22.94s10.89-32.66 14.39-49.38c3.5-16.72 4.28-29.56-6.22-34.61-10.5-5.05-27.61-1.17-36.94 1.94a475.96 475.96 0 0 1-19.06 5.84s-31.1 4.27-32.27 4.27a38.01 38.01 0 0 1-4.67-.77Z" fill="#578CE3" stroke="#263238" stroke-linecap="round" stroke-linejoin="round"/><path d="M576.4 326.78c0-.1-.02-.2-.06-.28a.85.85 0 0 0-.15-.23.72.72 0 0 0-.51-.21v.72h.72ZM576.4 355.58c0-.1-.02-.2-.06-.28a.85.85 0 0 0-.15-.23.72.72 0 0 0-.51-.21v.72h.72ZM576.19 341.69a.72.72 0 0 0-.51-1.23v1.44a.73.73 0 0 0 .51-.21Z" fill="#263238"/><path d="M575.68 326.78v.72a.73.73 0 0 0 .51-.21.6.6 0 0 0 .15-.23.64.64 0 0 0 .06-.28h-.72ZM575.68 355.58v.72a.72.72 0 0 0 .72-.72h-.72ZM575.68 326.06a.7.7 0 0 0-.66.44.67.67 0 0 0-.06.28h.72v-.72ZM562 326.78c0-.1-.02-.2-.06-.28a.7.7 0 0 0-1.32 0 .67.67 0 0 0-.06.28H562ZM554.8 319.58a.72.72 0 1 0-1.44 0 .72.72 0 0 0 1.44 0ZM569.2 319.58a.71.71 0 0 0-.45-.66.71.71 0 0 0-.78.15.71.71 0 0 0-.15.79.71.71 0 0 0 .66.44.72.72 0 0 0 .72-.72ZM546.88 326.06v.72h.72c0-.1-.02-.2-.06-.28a.71.71 0 0 0-.66-.44ZM575.68 355.58v-.72a.7.7 0 0 0-.66.44.67.67 0 0 0-.06.28h.72ZM561.28 354.86a.7.7 0 0 0-.66.44.67.67 0 0 0-.06.28H562c0-.1-.02-.2-.06-.28a.71.71 0 0 0-.66-.44ZM575.68 341.9v-1.44a.72.72 0 0 0 0 1.44ZM561.28 341.9a.72.72 0 1 0 0-1.44.72.72 0 0 0 0 1.44ZM554.08 349.1a.72.72 0 0 0 .7-.86.72.72 0 1 0-.7.86ZM568.48 349.1a.72.72 0 0 0 .7-.86.72.72 0 1 0-.7.86ZM554.08 334.7a.72.72 0 0 0 .7-.86.72.72 0 1 0-.7.86ZM568.48 334.7a.72.72 0 0 0 .7-.86.72.72 0 1 0-.7.86ZM547.6 355.58c0-.1-.02-.2-.06-.28a.71.71 0 0 0-.66-.44v.72h.72ZM547.6 341.18a.72.72 0 0 0-.72-.72v1.44a.72.72 0 0 0 .72-.72Z" fill="#263238"/><path d="M575.68 327.5v-.72H575c0 .1.02.2.06.28a.7.7 0 0 0 .62.44ZM560.62 327.06a.7.7 0 0 0 1.32 0 .64.64 0 0 0 .06-.28h-1.44c0 .1.02.2.06.28ZM546.88 327.5a.71.71 0 0 0 .66-.44.64.64 0 0 0 .06-.28h-.72v.72ZM561.28 383.66a.72.72 0 0 0-.72.72H562a.73.73 0 0 0-.44-.67.73.73 0 0 0-.28-.05ZM575 370a.7.7 0 0 0 .22.52l.34-1.21a.72.72 0 0 0-.56.69ZM561.28 369.26a.72.72 0 1 0 0 1.44.72.72 0 0 0 0-1.44ZM554.08 376.46a.72.72 0 0 0-.14 1.43.71.71 0 0 0 .74-.31.72.72 0 0 0-.6-1.12ZM569.2 377.18a.71.71 0 0 0-.45-.67.71.71 0 0 0-.78.16.71.71 0 0 0-.15.79.71.71 0 0 0 .66.44.72.72 0 0 0 .72-.72ZM554.08 362.06a.72.72 0 0 0-.14 1.43.71.71 0 0 0 .74-.31.72.72 0 0 0-.6-1.12ZM568.48 362.06a.72.72 0 0 0-.14 1.43.71.71 0 0 0 .74-.31.71.71 0 0 0-.1-.9.71.71 0 0 0-.5-.22ZM546.88 383.66v.72h.72a.73.73 0 0 0-.45-.67.72.72 0 0 0-.27-.05ZM546.88 369.26v1.44a.72.72 0 0 0 0-1.44ZM575 355.58a.72.72 0 0 0 .72.72v-.72H575ZM561.28 356.3a.72.72 0 0 0 .72-.72h-1.44a.73.73 0 0 0 .45.67c.08.03.18.05.27.05ZM546.88 355.58v.72a.72.72 0 0 0 .72-.72h-.72ZM561.05 412.51a.68.68 0 0 0-.43.39.67.67 0 0 0-.06.28h.12c.12-.18.25-.44.37-.67ZM562 398.78a.72.72 0 1 0-1.44 0 .72.72 0 0 0 1.44 0ZM554.8 406a.72.72 0 1 0-1.44 0 .72.72 0 0 0 1.44 0ZM554.08 390.86a.72.72 0 0 0-.14 1.43.71.71 0 0 0 .74-.31.72.72 0 0 0-.6-1.12ZM567.76 391.58a.7.7 0 0 0 .61.7l.43-1.33a.7.7 0 0 0-.32-.09.72.72 0 0 0-.72.72ZM546.88 412.46v.72h.72c0-.1-.02-.2-.06-.28a.71.71 0 0 0-.66-.44ZM547.6 398.78a.72.72 0 0 0-.72-.72v1.44a.72.72 0 0 0 .72-.72ZM561.28 385.1a.71.71 0 0 0 .66-.44.64.64 0 0 0 .06-.28h-1.44c0 .1.02.2.06.28a.7.7 0 0 0 .66.44ZM546.88 385.1a.71.71 0 0 0 .66-.44.64.64 0 0 0 .06-.28h-.72v.72ZM554.08 419.66a.73.73 0 0 0-.67.44.7.7 0 0 0 .04.62c.06.1.14.19.24.25.36-.23.72-.47 1.08-.74a.72.72 0 0 0-.69-.57ZM560.56 413.18v.15l.09-.15h-.09Z" fill="#263238"/><path d="M546.88 413.9a.72.72 0 0 0 .72-.72h-.72v.72ZM546.88 326.06c-.1 0-.2.02-.28.06a.7.7 0 0 0-.38.38.66.66 0 0 0-.06.28h.72v-.72ZM533.2 326.78c0-.1-.02-.2-.06-.28a.71.71 0 0 0-.66-.44.7.7 0 0 0-.66.44.66.66 0 0 0-.06.28h1.44ZM539.68 320.3a.72.72 0 0 0 .72-.72c0-.1-.03-.21-.08-.31l-1.34.4a.7.7 0 0 0 .7.63ZM518.08 326.11v.67h.72a.72.72 0 0 0-.64-.7l-.08.03ZM546.88 354.86c-.1 0-.2.02-.28.06a.7.7 0 0 0-.38.38.66.66 0 0 0-.06.28h.72v-.72ZM533.2 355.58c0-.1-.02-.2-.06-.28a.71.71 0 0 0-.66-.44.7.7 0 0 0-.66.44.66.66 0 0 0-.06.28h1.44ZM546.6 341.85c.1.02.19.02.28 0v-1.44c-.1 0-.2.02-.28.06a.71.71 0 0 0-.44.66.74.74 0 0 0 .44.72ZM532.48 341.9a.72.72 0 0 0 .7-.86.72.72 0 1 0-.7.86ZM525.28 349.1a.72.72 0 1 0 0-1.44.72.72 0 0 0 0 1.44ZM539.68 349.1a.72.72 0 1 0 0-1.44.72.72 0 0 0 0 1.44ZM525.28 334.7a.72.72 0 1 0 0-1.44.72.72 0 0 0 0 1.44ZM539.68 334.7a.72.72 0 1 0 .08-1.44.72.72 0 0 0-.08 1.44ZM518.8 355.58c0-.1-.02-.2-.06-.28a.71.71 0 0 0-.66-.44v.72h.72ZM518.8 341.18a.72.72 0 0 0-.72-.72v1.44a.72.72 0 0 0 .72-.72Z" fill="#263238"/><path d="M546.16 326.78c0 .1.02.2.06.28.07.17.2.31.38.39a.8.8 0 0 0 .28.05v-.72h-.72ZM531.82 327.06a.7.7 0 0 0 .66.44.71.71 0 0 0 .66-.44.64.64 0 0 0 .06-.28h-1.44c0 .1.02.2.06.28ZM518.08 327.5a.7.7 0 0 0 .66-.44.64.64 0 0 0 .06-.28h-.72v.72ZM546.88 383.66c-.1 0-.2.02-.28.06a.7.7 0 0 0-.44.66h.72v-.72ZM532.48 383.66a.73.73 0 0 0-.66.44.7.7 0 0 0-.06.28h1.44a.73.73 0 0 0-.45-.67.72.72 0 0 0-.27-.05ZM546.6 369.32a.7.7 0 0 0-.44.66.73.73 0 0 0 .44.67.8.8 0 0 0 .28.05v-1.44c-.1 0-.2.02-.28.06ZM532.48 369.26a.72.72 0 0 0-.14 1.43.71.71 0 0 0 .74-.31.71.71 0 0 0-.1-.9.72.72 0 0 0-.5-.22ZM525.28 376.46a.72.72 0 1 0 0 1.44.72.72 0 0 0 0-1.44ZM539.68 376.46a.72.72 0 1 0 0 1.44.72.72 0 0 0 0-1.44ZM525.28 362.06a.72.72 0 1 0 0 1.44.72.72 0 0 0 0-1.44ZM539.68 362.06a.72.72 0 1 0 0 1.44.72.72 0 0 0 0-1.44ZM518.8 384.38a.72.72 0 0 0-.72-.72v.72h.72ZM518.8 370a.72.72 0 0 0-.72-.72v1.44a.72.72 0 0 0 .72-.72ZM546.16 355.58a.73.73 0 0 0 .44.67.8.8 0 0 0 .28.05v-.72h-.72ZM532.48 356.3a.72.72 0 0 0 .72-.72h-1.44a.72.72 0 0 0 .72.72ZM518.08 356.3a.73.73 0 0 0 .66-.44.73.73 0 0 0 .06-.28h-.72v.72ZM546.88 412.46c-.1 0-.2.02-.28.06a.7.7 0 0 0-.38.38.66.66 0 0 0-.06.28h.72v-.72ZM532.48 412.46a.7.7 0 0 0-.66.44.66.66 0 0 0-.06.28h1.44c0-.1-.02-.2-.06-.28a.71.71 0 0 0-.66-.44ZM546.6 399.45a.8.8 0 0 0 .28.05v-1.44c-.1 0-.2.02-.28.06a.7.7 0 0 0-.44.66.73.73 0 0 0 .44.67ZM532.48 398.06a.72.72 0 0 0-.14 1.43.71.71 0 0 0 .74-.31.71.71 0 0 0-.1-.9.72.72 0 0 0-.5-.22ZM525.28 405.26a.72.72 0 1 0 0 1.44.72.72 0 0 0 0-1.44ZM539.68 405.26a.72.72 0 1 0 0 1.44.72.72 0 0 0 0-1.44ZM525.28 390.86a.72.72 0 1 0 0 1.44.72.72 0 0 0 0-1.44ZM539.68 390.86a.72.72 0 1 0 0 1.44.72.72 0 0 0 0-1.44ZM518.8 413.18c0-.1-.02-.2-.06-.28a.71.71 0 0 0-.66-.44v.72h.72ZM518.08 398.06v1.44a.72.72 0 0 0 0-1.44Z" fill="#263238"/><path d="M546.16 384.38a.76.76 0 0 0 .44.67.8.8 0 0 0 .28.05v-.72h-.72ZM531.76 384.38c0 .1.02.2.06.28a.7.7 0 0 0 .66.44.71.71 0 0 0 .66-.44.64.64 0 0 0 .06-.28h-1.44ZM518.08 384.38v.72a.7.7 0 0 0 .66-.44.64.64 0 0 0 .06-.28h-.72ZM524.56 420.38a.72.72 0 1 0 1.44 0 .72.72 0 0 0-1.44 0ZM539 420.38a.72.72 0 1 0 1.44 0 .72.72 0 0 0-1.44 0ZM546.16 413.18a.73.73 0 0 0 .44.67c.1.02.19.02.28 0v-.72l-.72.05ZM532.48 413.9a.72.72 0 0 0 .72-.72h-1.44a.7.7 0 0 0 .21.5.72.72 0 0 0 .51.22ZM518.08 413.9a.73.73 0 0 0 .66-.44.73.73 0 0 0 .06-.28h-.72v.72ZM518.08 326.11l-.45.12a.69.69 0 0 0-.21.27.66.66 0 0 0-.06.28h.72v-.67ZM518.08 354.86c-.1 0-.2.02-.28.06a.7.7 0 0 0-.38.38.66.66 0 0 0-.06.28h.72v-.72ZM503.68 354.86a.7.7 0 0 0-.66.44.67.67 0 0 0-.06.28h1.44c0-.1-.02-.2-.06-.28a.71.71 0 0 0-.66-.44ZM517.8 341.85c.1.02.19.02.28 0v-1.44c-.1 0-.2.02-.28.06a.71.71 0 0 0-.44.66.73.73 0 0 0 .44.72ZM503.68 340.46a.72.72 0 1 0 0 1.44.72.72 0 0 0 0-1.44ZM496.48 349.1a.72.72 0 0 0 .7-.86.72.72 0 1 0-.7.86ZM511.6 348.38a.72.72 0 1 0-1.44 0 .72.72 0 0 0 1.44 0ZM496.48 334.7a.72.72 0 0 0 .7-.86.72.72 0 1 0-.7.86ZM510.88 333.26a.72.72 0 0 0-.14 1.43.71.71 0 0 0 .74-.31.72.72 0 0 0-.6-1.12ZM490 355.58c0-.1-.02-.2-.06-.28a.85.85 0 0 0-.15-.23.72.72 0 0 0-.51-.21v.72h.72ZM489.79 340.67a.72.72 0 0 0-.51-.21v1.44a.73.73 0 0 0 .67-.44.73.73 0 0 0-.16-.79Z" fill="#263238"/><path d="M517.36 326.78c0 .1.02.2.06.28.07.17.2.31.38.39.09.03.18.05.28.05v-.72h-.72ZM518.08 383.66c-.1 0-.2.02-.28.06a.71.71 0 0 0-.44.66h.72v-.72ZM503.68 383.66a.73.73 0 0 0-.67.44.73.73 0 0 0-.05.28h1.44a.73.73 0 0 0-.44-.67.73.73 0 0 0-.28-.05ZM517.8 370.65c.09.03.18.05.28.05v-1.44c-.1 0-.2.02-.28.06a.71.71 0 0 0-.44.66.73.73 0 0 0 .44.67ZM503.68 369.26a.72.72 0 1 0 0 1.44.72.72 0 0 0 0-1.44ZM496.48 376.46a.72.72 0 0 0-.14 1.43.71.71 0 0 0 .74-.31.71.71 0 0 0-.1-.9.72.72 0 0 0-.5-.22ZM510.88 377.9a.72.72 0 0 0 .7-.86.73.73 0 0 0-.56-.57.71.71 0 0 0-.74.31.72.72 0 0 0 .6 1.12ZM496.48 362.06a.72.72 0 0 0-.14 1.43.71.71 0 0 0 .74-.31.71.71 0 0 0-.1-.9.71.71 0 0 0-.5-.22ZM510.88 363.5a.72.72 0 0 0 .7-.86.73.73 0 0 0-.56-.57.71.71 0 0 0-.74.31.72.72 0 0 0 .6 1.12ZM489.79 383.87a.72.72 0 0 0-.51-.21v.72h.72a.73.73 0 0 0-.21-.51ZM489.79 369.47a.72.72 0 0 0-.51-.21v1.44a.73.73 0 0 0 .67-.44.73.73 0 0 0-.16-.79ZM517.8 356.25c.09.03.18.05.28.05v-.72h-.72a.73.73 0 0 0 .44.67ZM503.68 356.3a.72.72 0 0 0 .72-.72H503a.72.72 0 0 0 .68.72ZM489.28 355.58v.72a.72.72 0 0 0 .72-.72h-.72ZM518.08 412.46c-.1 0-.2.02-.28.06a.7.7 0 0 0-.38.38.66.66 0 0 0-.06.28h.72v-.72ZM504.34 412.9a.71.71 0 0 0-.66-.44.7.7 0 0 0-.66.44.67.67 0 0 0-.06.28h1.44c0-.1-.02-.2-.06-.28ZM517.8 398.12a.71.71 0 0 0-.44.66.73.73 0 0 0 .44.67c.09.03.18.05.28.05v-1.44c-.1 0-.2.02-.28.06ZM503.68 398.06a.72.72 0 1 0 0 1.44.72.72 0 0 0 0-1.44ZM496.48 406.7a.72.72 0 0 0 .7-.86.72.72 0 1 0-.7.86ZM510.88 405.26a.72.72 0 0 0-.14 1.43.71.71 0 0 0 .74-.31.72.72 0 0 0-.6-1.12ZM495.76 391.58a.72.72 0 1 0 1.44 0 .72.72 0 0 0-1.44 0ZM510.88 390.86a.72.72 0 0 0-.14 1.43.71.71 0 0 0 .74-.31.72.72 0 0 0-.6-1.12ZM489.79 399.29a.72.72 0 0 0-.51-1.23v1.44a.73.73 0 0 0 .51-.21Z" fill="#263238"/><path d="M517.36 384.38a.76.76 0 0 0 .44.67c.09.03.18.05.28.05v-.72h-.72ZM503.68 385.1a.7.7 0 0 0 .66-.44.64.64 0 0 0 .06-.28H503c0 .1.02.2.06.28a.7.7 0 0 0 .62.44ZM489.28 384.38v.72a.73.73 0 0 0 .51-.21.6.6 0 0 0 .15-.23.64.64 0 0 0 .06-.28h-.72ZM511.6 420.38a.72.72 0 0 0-1.44 0c0 .16.06.31.16.44l.59.27a.72.72 0 0 0 .69-.71ZM518.08 413.18h-.72a.73.73 0 0 0 .44.67c.1.02.19.02.28 0v-.67ZM503.68 413.9a.73.73 0 0 0 .67-.44.73.73 0 0 0 .05-.28H503a.72.72 0 0 0 .68.72ZM489.28 354.86a.7.7 0 0 0-.66.44.67.67 0 0 0-.06.28h.72v-.72ZM474.88 354.86a.7.7 0 0 0-.66.44.66.66 0 0 0-.06.28h1.44c0-.1-.02-.2-.06-.28a.72.72 0 0 0-.66-.44ZM488.56 341.18a.72.72 0 0 0 .72.72v-1.44a.72.72 0 0 0-.72.72ZM474.88 340.46a.72.72 0 0 0-.14 1.43.71.71 0 0 0 .74-.31.72.72 0 0 0-.6-1.12ZM467.68 349.1a.72.72 0 1 0 0-1.44.72.72 0 0 0 0 1.44ZM482.08 349.1a.72.72 0 0 0 .7-.86.72.72 0 1 0-.7.86ZM467.68 334.7a.72.72 0 1 0 .08-1.44.72.72 0 0 0-.08 1.44ZM482.08 334.7a.72.72 0 0 0 .7-.86.72.72 0 1 0-.7.86ZM461.2 355.58c0-.1-.02-.2-.06-.28a.71.71 0 0 0-.66-.44v.72h.72ZM461.2 341.18a.72.72 0 0 0-.72-.72v1.44a.72.72 0 0 0 .72-.72Z" fill="#263238"/><path d="M489.28 383.66a.72.72 0 0 0-.72.72h.72v-.72ZM474.88 383.66a.72.72 0 0 0-.72.72h1.44a.72.72 0 0 0-.72-.72ZM488.56 370a.72.72 0 0 0 .72.72v-1.44a.72.72 0 0 0-.72.72ZM474.88 369.26a.72.72 0 0 0-.14 1.43.71.71 0 0 0 .74-.31.72.72 0 0 0-.6-1.12ZM467.68 376.46a.72.72 0 1 0 0 1.44.72.72 0 0 0 0-1.44ZM482.8 377.18a.72.72 0 1 0-1.44 0 .72.72 0 0 0 1.44 0ZM467.68 362.06a.72.72 0 1 0 0 1.44.72.72 0 0 0 0-1.44ZM482.08 362.06a.72.72 0 0 0-.14 1.43.71.71 0 0 0 .74-.31.72.72 0 0 0-.6-1.12ZM461.2 384.38a.72.72 0 0 0-.72-.72v.72h.72ZM460.48 369.26v1.44a.72.72 0 0 0 0-1.44ZM488.56 355.58a.72.72 0 0 0 .72.72v-.72h-.72ZM474.88 356.3a.72.72 0 0 0 .72-.72h-1.44a.72.72 0 0 0 .72.72ZM460.48 356.3a.72.72 0 0 0 .72-.72h-.72v.72ZM489.28 399.5v-1.44a.72.72 0 0 0 0 1.44ZM474.88 399.5a.72.72 0 0 0 .7-.86.73.73 0 0 0-.56-.57.71.71 0 0 0-.74.31.72.72 0 0 0 .6 1.12ZM482.08 405.26a.72.72 0 0 0-.14 1.43.71.71 0 0 0 .74-.31.72.72 0 0 0-.6-1.12ZM467 391.58a.72.72 0 1 0 1.44 0 .72.72 0 0 0-1.44 0ZM482.08 390.86a.72.72 0 0 0-.14 1.43.71.71 0 0 0 .74-.31.72.72 0 0 0-.6-1.12ZM461.2 398.78a.72.72 0 0 0-.72-.72v1.44a.72.72 0 0 0 .72-.72Z" fill="#263238"/><path d="M488.56 384.38c0 .1.02.2.06.28a.7.7 0 0 0 .66.44v-.72h-.72ZM474.16 384.38c0 .1.02.2.06.28a.7.7 0 0 0 .66.44.71.71 0 0 0 .66-.44.64.64 0 0 0 .06-.28h-1.44ZM460.48 384.38v.72a.7.7 0 0 0 .66-.44.64.64 0 0 0 .06-.28h-.72ZM460.48 355.58v-.72c-.1 0-.2.02-.28.06a.7.7 0 0 0-.38.38.66.66 0 0 0-.06.28h.72ZM446.8 355.58c0-.1-.02-.2-.06-.28a.71.71 0 0 0-.66-.44.73.73 0 0 0-.67.44.86.86 0 0 0-.05.28h1.44ZM460.2 341.85c.1.02.19.02.28 0v-1.44c-.1 0-.2.02-.28.06a.71.71 0 0 0-.44.66.74.74 0 0 0 .44.72ZM446.08 341.9a.71.71 0 0 0 .32-1.35c-.35.22-.69.45-1 .68a.71.71 0 0 0 .68.67ZM439.6 348.38a.72.72 0 1 0-1.44 0 .72.72 0 0 0 1.44 0ZM454 348.38a.72.72 0 1 0-1.44 0 .72.72 0 0 0 1.44 0Z" fill="#263238"/><path d="M460.48 383.66c-.1 0-.2.02-.28.06a.7.7 0 0 0-.44.66h.72v-.72ZM446.08 383.66a.73.73 0 0 0-.66.44.7.7 0 0 0-.06.28h1.44a.72.72 0 0 0-.72-.72ZM460.2 369.32a.7.7 0 0 0-.44.66.73.73 0 0 0 .44.67.8.8 0 0 0 .28.05v-1.44c-.1 0-.2.02-.28.06ZM446.08 369.26a.72.72 0 0 0-.14 1.43.71.71 0 0 0 .74-.31.72.72 0 0 0-.6-1.12ZM438.88 377.9a.72.72 0 0 0 .7-.86.73.73 0 0 0-.56-.57.71.71 0 0 0-.74.31.72.72 0 0 0 .6 1.12ZM453.28 376.46a.72.72 0 1 0 0 1.44.72.72 0 0 0 0-1.44ZM438.16 362.78a.72.72 0 1 0 1.44 0 .72.72 0 0 0-1.44 0ZM453.28 362.06a.72.72 0 1 0 0 1.44.72.72 0 0 0 0-1.44ZM432.4 384.38a.72.72 0 0 0-.72-.72v.72h.72ZM431.68 369.26v1.44a.72.72 0 0 0 0-1.44ZM459.76 355.58a.73.73 0 0 0 .44.67.8.8 0 0 0 .28.05v-.72h-.72ZM446.08 356.3a.72.72 0 0 0 .72-.72h-1.44a.72.72 0 0 0 .72.72ZM460.48 398.06c-.1 0-.2.02-.28.06a.7.7 0 0 0-.44.66.73.73 0 0 0 .44.67.8.8 0 0 0 .28.05v-1.44ZM438.16 391.58a.72.72 0 1 0 1.44 0 .72.72 0 0 0-1.44 0ZM452.56 391.58a.72.72 0 1 0 1.44 0 .72.72 0 0 0-1.44 0Z" fill="#263238"/><path d="M459.76 384.38a.76.76 0 0 0 .44.67c.09.03.18.05.28.05v-.72h-.72ZM445.36 384.38c0 .1.02.19.05.28a.72.72 0 0 0 .67.44.71.71 0 0 0 .66-.44.64.64 0 0 0 .06-.28h-1.44ZM431.68 384.38v.72a.71.71 0 0 0 .66-.44.64.64 0 0 0 .06-.28h-.72Z" fill="#263238"/><path d="M431.68 383.66c-.1 0-.2.02-.28.06a.71.71 0 0 0-.44.66h.72v-.72ZM431.4 369.32a.71.71 0 0 0-.44.66.73.73 0 0 0 .44.67c.09.03.18.05.28.05v-1.44c-.1 0-.2.02-.28.06ZM424.48 377.9a.72.72 0 0 0 .72-.72.7.7 0 0 0-.56-.68l-.72 1.12a.7.7 0 0 0 .56.28ZM423.76 391.58a.72.72 0 1 0 1.44 0 .72.72 0 0 0-1.44 0Z" fill="#263238"/><path d="M431 384.38a.7.7 0 0 0 .72.72v-.72H431Z" fill="#263238"/><path d="M49.81 464.21s-3-25.5 3.5-32.5 17.5 4 31.5 8 41.5 1.5 54.5 1.5 39.5-2 39.5-2 30.5-8.5 34-10.5 19.5-16 32.5-20 31.5-1 35.5-2 22.5-14.5 32-17.5 78 10.5 78 10.5 3-3.5 12.5-6 19-2.5 44.5-2.5 43 12 70.5 28 39.5 42 39.5 42l-1 3" fill="#CCC"/><path d="M49.81 464.21s-3-25.5 3.5-32.5 17.5 4 31.5 8 41.5 1.5 54.5 1.5 39.5-2 39.5-2 30.5-8.5 34-10.5 19.5-16 32.5-20 31.5-1 35.5-2 22.5-14.5 32-17.5 78 10.5 78 10.5 3-3.5 12.5-6 19-2.5 44.5-2.5 43 12 70.5 28 39.5 42 39.5 42l-1 3" stroke="#263238" stroke-linecap="round" stroke-linejoin="round"/><path d="M390.81 399.71s65.5 15 98 37.5" stroke="#263238" stroke-linecap="round" stroke-linejoin="round"/><path d="M429.31 407.21s57.5 19 78 38.5M278.81 410.71s-28 10-52.5 19.5M294.14 432.91a67.5 67.5 0 0 0 8.17-2.2M196.31 436.71s29-7 53.5-2.5c14.47 2.66 28.77 1.48 38.87-.24M320.81 399.71s0 22-6 34M325.8 432.23a199 199 0 0 1-.49 7.48M324.31 402.21s1.95 9.12 1.66 25" stroke="#263238" stroke-linecap="round" stroke-linejoin="round"/><path d="M505.6 223.29s-11.28 6.61-14.78 10.89-4.27 10.89-6.22 16.33c-1.95 5.44-9.72 9.33-10.89 10.5s-.77 3.5 1.17 5.05c1.88 1.4 3.82 2.7 5.83 3.89 0 0-1.16 12.06-.39 17.5.77 5.44.39 7.39 3.5 8.17 3.11.78 12.06-.39 12.06-.39s2.72 5.83 2.72 15.55-1.94 11.28-5.44 14c-3.5 2.72-12.84 5.06-12.84 5.06s-3.88 9.72 10.11 8.55c13.99-1.17 28.39-12.39 28.39-12.39s12.83-24.89 12-33.06c-.83-8.17-6.22-15.55-12-24.49-5.78-8.94.39-17.11-3.5-29.55-3.89-12.44-9.72-15.61-9.72-15.61Z" fill="#fff" stroke="#263238" stroke-linecap="round" stroke-linejoin="round"/><path d="M524.65 274.45a32.15 32.15 0 0 1 .79 16.77c-2 9.58-13.57 12.38-14.77 25.16-1.2 12.78 12 10 18 6s7.59-8 7.59-8-16 3.2-14.78-.8c2-6.54 5.19 0 9.59-14.77 4.4-14.77-.8-23.56-.8-23.56" fill="#263238"/><path d="M524.65 274.45a32.15 32.15 0 0 1 .79 16.77c-2 9.58-13.57 12.38-14.77 25.16-1.2 12.78 12 10 18 6s7.59-8 7.59-8-16 3.2-14.78-.8c2-6.54 5.19 0 9.59-14.77 4.4-14.77-.8-23.56-.8-23.56" stroke="#263238" stroke-linecap="round" stroke-linejoin="round"/><path d="M496.27 255.18c0 1.71-.61 3.11-1.36 3.11-.75 0-1.36-1.4-1.36-3.11s.6-3.11 1.36-3.11c.76 0 1.36 1.39 1.36 3.11Z" fill="#263238"/><path d="M492.38 246.62s6.22-2.72 9.72 3.11M484.21 275s7 .39 11.67-1.17M523.88 275.79s1.55 2.33 0 3.5-5.84 1.94-5.84 1.94.78 3.5-3.89 6.22M531.26 339.17s-7.38 19.83-15.16 28c-7.78 8.17-16.72 18.67-17.89 30.33-1.17 11.66 5.06 16.73 5.06 16.73" stroke="#263238" stroke-linecap="round" stroke-linejoin="round"/><path d="M500.93 392.44s5.06-9.72 20.22-9.72 19.83 4.66 24.5 4.28M516.1 367.16s14.39-6.22 24.11-14.38c9.72-8.16 13.22-13.22 13.22-13.22M524.65 399.05s21 7.39 22.94 15.94" stroke="#263238" stroke-linecap="round" stroke-linejoin="round"/><path d="M518.53 392.93s-40.89-15.51-61.93-27.42c-21.04-11.91-32.37-17.94-40.32-20-7.95-2.06-16 .68-18.27 1.81-2.27 1.13-3.22 2.87.34 2.36 3.56-.51 9.7.23 10.88.06 1.18-.17 4.74 2.15 4.74 2.15s-12.73 1.12-15.32 3-4.18 4.51-3.21 5c.97.49 2.53-.21 3.37-.63a10 10 0 0 1 3.76-1.14c1.35-.05 10-.68 10-.68l.59-.08s-8.17 3-10.53 4.37c-2.36 1.37-3.87 3.57-3.07 3.9.8.33 4.44-.63 6-1.31a28.72 28.72 0 0 1 6.88-1.43c1.36 0 6-.25 6-.25-2.05.67-4 1.6-5.79 2.78-2.89 1.93-5.82 2.49-5.65 3.68.17 1.19 1.45 1.75 4.58.4a75.5 75.5 0 0 1 9.6-3.48c1.19-.17 6.19 0 6.19 0s4.35 4.05 8.78 4.48c4.43.43 13 1.6 13 1.6s30.23 35.35 37.09 40.11c6.86 4.76 17.44 13.34 27.6 13.7 10.16.36 19.07-3.77 19.24-15.26.17-11.49-14.55-17.72-14.55-17.72Z" fill="#fff" stroke="#263238" stroke-linecap="round" stroke-linejoin="round"/><path d="M683.88 463.79h17M29.88 463.79h644" stroke="#263238" stroke-linecap="round" stroke-linejoin="round"/></svg>