<svg xmlns="http://www.w3.org/2000/svg" viewBox="0 0 500 500"><path d="M397.44 66.43C312.81-.07 158.85 1 105.42 107.06c-12.75 25.31-25.69 51-46.09 71.16-17.33 17.12-36.87 34.17-44.8 58-17.61 53 26.74 93.08 62.64 123.61 34.09 29 53.37 72.68 89.9 98.47 22.58 15.95 50.42 22.23 77.73 19.5 28-2.79 49-20.17 73.69-31.8 18.72-8.83 38.45-10.93 57.88-17 16.61-5.22 32.92-15.65 46.48-26.59 29.64-23.92 51-57.49 61.44-94 25.05-87.98-15.71-186.07-86.85-241.98Z" style="fill:#578ce3"/><path d="M397.44 66.43C312.81-.07 158.85 1 105.42 107.06c-12.75 25.31-25.69 51-46.09 71.16-17.33 17.12-36.87 34.17-44.8 58-17.61 53 26.74 93.08 62.64 123.61 34.09 29 53.37 72.68 89.9 98.47 22.58 15.95 50.42 22.23 77.73 19.5 28-2.79 49-20.17 73.69-31.8 18.72-8.83 38.45-10.93 57.88-17 16.61-5.22 32.92-15.65 46.48-26.59 29.64-23.92 51-57.49 61.44-94 25.05-87.98-15.71-186.07-86.85-241.98Z" style="fill:#fff;opacity:.7000000000000001"/><g style="opacity:.30000000000000004"><circle cx="437.58" cy="162.35" r="40.53" transform="rotate(-45 437.59 162.35)" style="fill:none;stroke:#000;stroke-miterlimit:10"/><circle cx="437.58" cy="162.35" r="36.29" transform="rotate(-45 437.59 162.35)" style="fill:none;stroke:#000;stroke-miterlimit:10"/><path style="fill:none;stroke:#000;stroke-miterlimit:10" d="m444.11 171.28-6.53-8.93-21.89 20.1"/></g><g style="opacity:.30000000000000004"><path style="fill:#fff;stroke:#000;stroke-miterlimit:10" d="M156.12 290.02h18.24v55.61h-18.24z"/><path style="fill:#fff;stroke:#000;stroke-miterlimit:10" d="M122.75 262.89h84.97v70.29h-84.97z"/><path style="fill:#fff;stroke:#000;stroke-miterlimit:10" d="M128.67 267.78h73.14v60.5h-73.14zM69.91 343.4h280.08v111.05H69.91zM69.82 401.23h278.92"/><path style="fill:#fff;stroke:#000;stroke-miterlimit:10" d="M262.88 343.4h87.1v111.05h-87.1z"/><path style="fill:#fff;stroke:#000;stroke-miterlimit:10" d="M64.48 343.4h290.93v10.68H64.48zM206.83 354.18l4.4 8.11h24.99l4.42-8.11h-33.81zM206.83 400.89l4.4 8.11h24.99l4.42-8.11h-33.81zM112.97 354.18l4.4 8.11h24.99l4.42-8.11h-33.81zM112.97 400.89l4.4 8.11h24.99l4.42-8.11h-33.81z"/></g><g style="opacity:.30000000000000004"><path transform="rotate(180 451.15 333.81)" style="fill:#263238;stroke:#000;stroke-miterlimit:10" d="M447.02 329.15h8.25v9.33h-8.25z"/><path transform="rotate(180 451.69 328.43)" style="fill:#263238;stroke:#000;stroke-miterlimit:10" d="M443.79 325.56h15.79v5.74h-15.79z"/><path transform="rotate(180 451.5 382.99)" style="fill:#fff;stroke:#000;stroke-miterlimit:10" d="M433.74 335.61h35.53v94.75h-35.53z"/><circle cx="455.45" cy="363.78" r="9.15" style="fill:#263238;stroke:#000;stroke-miterlimit:10"/><path style="fill:#fff;stroke:#000;stroke-miterlimit:10" d="m380.84 454.48 16.29-20.45h47.02l16.17 20.45h-79.48z"/><path d="M381.26 428.21h64.4a5.67 5.67 0 0 1 5.67 5.67v.43H375.6v-.43a5.67 5.67 0 0 1 5.66-5.67Z" transform="rotate(180 413.46 431.25)" style="fill:#fff;stroke:#000;stroke-miterlimit:10"/><path transform="rotate(-147 412.37 309.43)" style="fill:#fff;stroke:#000;stroke-miterlimit:10" d="M403.86 307.73h17.03v3.41h-17.03z"/><path transform="matrix(-.84 -.55 .55 -.84 573.75 774.83)" style="fill:#263238;stroke:#000;stroke-miterlimit:10" d="M394.01 297.09h15.89v10.22h-15.89z"/><path transform="rotate(180 451.5 285.9)" style="fill:#263238;stroke:#000;stroke-miterlimit:10" d="M449.89 280.69h3.23v10.41h-3.23z"/><path transform="rotate(180 451.69 300.62)" style="fill:#fff;stroke:#000;stroke-miterlimit:10" d="M448.46 290.39h6.46v20.46h-6.46z"/><path transform="rotate(180 451.69 314.61)" style="fill:#fff;stroke:#000;stroke-miterlimit:10" d="M444.15 308.69h15.07v11.84h-15.07z"/><path style="fill:#fff;stroke:#000;stroke-miterlimit:10" d="m419.79 303.02 17.17 14.51 38.12 3.36-.87 9.8-45.99-4.06-15.54-11.59 7.11-12.02z"/></g><circle cx="186.7" cy="99.41" r="7.85" style="fill:#fff;stroke:#263238;stroke-linecap:round;stroke-linejoin:round"/><path d="M253.39 58.71A5.4 5.4 0 1 0 248 64.1a5.4 5.4 0 0 0 5.39-5.39ZM189.64 46.94a1.47 1.47 0 1 0-1.47 1.47 1.47 1.47 0 0 0 1.47-1.47ZM37.62 38.11a3.44 3.44 0 1 0-3.43 3.43 3.43 3.43 0 0 0 3.43-3.43Z" style="fill:#fff;stroke:#263238;stroke-linecap:round;stroke-linejoin:round"/><circle cx="35.17" cy="142.07" r="3.43" style="fill:#fff;stroke:#263238;stroke-linecap:round;stroke-linejoin:round"/><circle cx="188.66" cy="206.31" r="7.85" style="fill:#fff;stroke:#263238;stroke-linecap:round;stroke-linejoin:round"/><path d="M36.64 380.4a3.44 3.44 0 1 0-3.43 3.43 3.43 3.43 0 0 0 3.43-3.43Z" style="fill:#fff;stroke:#263238;stroke-linecap:round;stroke-linejoin:round"/><circle cx="101.86" cy="392.17" r="10.3" transform="rotate(-13 101.85 392.15)" style="fill:#fff;stroke:#263238;stroke-linecap:round;stroke-linejoin:round"/><circle cx="186.7" cy="356.37" r="3.92" style="fill:#fff;stroke:#263238;stroke-linecap:round;stroke-linejoin:round"/><path d="M28.79 257.8a2.45 2.45 0 1 0-2.45 2.46 2.45 2.45 0 0 0 2.45-2.46ZM359.31 87.64a4.9 4.9 0 1 0-4.9 4.9 4.9 4.9 0 0 0 4.9-4.9Z" style="fill:#fff;stroke:#263238;stroke-linecap:round;stroke-linejoin:round"/><circle cx="313.71" cy="95.98" r="4.41" style="fill:#fff;stroke:#263238;stroke-linecap:round;stroke-linejoin:round"/><circle cx="412.28" cy="286.74" r="3.92" style="fill:#fff;stroke:#263238;stroke-linecap:round;stroke-linejoin:round"/><path d="m213.64 215.9 13.42-37.74s7.54-28.09 15.09-36.9 21.85-5.87 21.85-5.87 14.67-16.77 18-11.74-8.39 14.68-10.91 19.71S264.79 161 261 168.1s-13 14.26-13 14.26l-1.67 42.76-30.19 11.75Z" style="fill:#fff;stroke:#263238;stroke-linecap:round;stroke-linejoin:round"/><path d="M264 135.39s-14.26-2.93-21.81 5.87-15.09 36.9-15.09 36.9l-8 22.37a20.38 20.38 0 0 0 11.31 5.73c6.28.83 12.34-1.67 16.85-4.39l.76-19.51s9.23-7.13 13-14.26 7.55-19.71 10.06-24.74 14.26-14.68 10.91-19.71S264 135.39 264 135.39Z" style="fill:#578ce3;stroke:#263238;stroke-linecap:round;stroke-linejoin:round"/><path d="M266.89 139.17h13v39.31a4.3 4.3 0 0 1-4.3 4.3h-4.41a4.3 4.3 0 0 1-4.3-4.3v-39.31h.01Z" style="fill:none;stroke:#263238;stroke-linecap:round;stroke-linejoin:round"/><path d="M273.39 179.41a4.3 4.3 0 0 1-4.3-4.3v-31.68h8.6v31.68a4.3 4.3 0 0 1-4.3 4.3Z" style="fill:#578ce3"/><path d="M230.41 174s.84-21.8 2.52-28.51 19.71-19.71 22.22-19.71 29.35 6.71 30.61 10.48-2.94 9.23-9.22 11.32S247.6 153 247.6 153s2.94 14.68-.84 20.13" style="fill:#578ce3;stroke:#263238;stroke-linecap:round;stroke-linejoin:round"/><path d="M279.47 146.71s1.68-3.77-.42-4.19-19.71-.42-23.48-.42-13.84 3.36-13.84 3.36M284.08 141.26a8.83 8.83 0 0 0-4.61-3.77c-2.93-.84-20.13-1.68-26-1.68s-12.58 2.52-12.58 2.52" style="fill:none;stroke:#263238;stroke-linecap:round;stroke-linejoin:round"/><path d="M358.3 232.67a240.54 240.54 0 0 0 11.7 29.77c7.55 15.94 6.71 31.45 4.19 34.81s-11.32 4.19-11.32 4.19-22.22-10.9-26.83-22.23 1.67-41.51 8.38-44a44.66 44.66 0 0 1 13.88-2.54Z" style="fill:#263238;stroke:#263238;stroke-linecap:round;stroke-linejoin:round"/><path d="m290.79 265.8-17.61 2.93s-5.87-7.55-11.74-8-16.77-.84-16.77-.84l2.09-38.16s-23.06 6.33-24.76 7.17-8-15.52-8-15.52-31.87 85.12-33.55 92.25 2.1 15.93 8 22.64 28.12 6.73 29.8 6.73 11.74 3.78 16.77 4.2 18-4.2 18-4.2-16.77 99-18.86 106.51-3.36 13-3.36 13h187s-7.55-41.93-12.16-60.38-13-64.15-13.42-69.6-.84-19.71-5.87-25.16-27.21-15.96-28.47-16.37S313 263.7 313 263.7Z" style="fill:#fff;stroke:#263238;stroke-linecap:round;stroke-linejoin:round"/><path style="fill:none;stroke:#263238;stroke-linecap:round;stroke-linejoin:round" d="m243.57 314.86-.16 7.96M244.67 261.18l-1.02 49.9M244.67 272.51l6.29 45.7M211.89 284.08l-.7 7.59M215.86 240.86l-3.37 36.75M279.69 280.34l2.72 4.33M273.18 269.99l5.27 8.39M345.39 410.84c-1.35 12-1.35 37.77-1.35 37.77M346.08 345c.18 2.07.35 4.18.48 6.33 1.07 17.18.92 39-.19 51.48M341.53 314s2.49 11.36 4.1 26.42M385.12 403.38c-1.22 20.62-.4 51.1-.4 51.1M378.85 336.24s10.48 37.74 7.54 54.51c-.38 2.2-.7 4.92-.95 8M256.47 385.67a53.48 53.48 0 0 0 1.82-6.08M237.3 425.78s11.37-20.36 17.58-35.89"/><path d="M309.66 247.77s-4.61-5.87-6.29-2.52-16.77 15.93-16.77 15.93-1.68 13.42.42 21 3.35 13 4.19 14.26 10.9-13 15.93-13.42 8.39.84 12.16 3.35 18.38 25.47 18.38 25.47 9.72-14.15 10.14-16.66 2.93-4.61 4.19-5.45 15.51 4.61 18 5.87 4.61 10.48 5.45 7.13-11.74-15.94-15.93-22.23-10.48-19.29-16.77-22.64-33.1-10.09-33.1-10.09Z" style="fill:#fff;stroke:#263238;stroke-linecap:round;stroke-linejoin:round"/><path d="m308.82 224.29-2.93 30.19s19.28 32.7 21.8 35.22 8.39 22.64 11.74 18 5.87-21.81 5.87-28.52 1.26-38.15 1.26-38.15-18-1.68-24.32-5.45-13.42-11.29-13.42-11.29Z" style="fill:#fff;stroke:#263238;stroke-linecap:round;stroke-linejoin:round"/><path d="m308.82 224.29-.35 3.64 37 42.47c.35-11.67 1.06-29.34 1.06-29.34s-18-1.68-24.32-5.45-13.39-11.32-13.39-11.32Z" style="fill:#263238;stroke:#263238;stroke-linecap:round;stroke-linejoin:round"/><path style="fill:#fff;stroke:#263238;stroke-linecap:round;stroke-linejoin:round" d="m347.4 325.34 4.61 28.93 33.12 3.77-5.87-26.83-31.86-5.87z"/><path d="M342.79 150.91s-4.2-10.48-20.13-2.52-21.39 33.13-21.39 39S299.18 200 303 200s8.39-10.91 11.32-15.1 26.42-15.09 31.45-14.67 22.64 22.64 22.64 22.64l.42 13.42s14.68-6.29 17.61-17.61-12.16-32.71-25.16-39.42-18.49 1.65-18.49 1.65Z" style="fill:#263238;stroke:#263238;stroke-linecap:round;stroke-linejoin:round"/><path d="M307.56 192.42s-1.67-9.23-6.29-5-2.51 21 .42 22.64 5-5.87 5-5.87Z" style="fill:#fff;stroke:#263238;stroke-linecap:round;stroke-linejoin:round"/><path d="M306.73 183.19s-.84 27.68-.84 34.81 1.25 11.74 12.58 20.12 18.86 10.49 26.41 7.55 18-10.06 19.71-15.51 6.71-36.48 8-40.26S348.66 166 347 164.33a5.83 5.83 0 0 0-3.78-1.68s-6.7 4.19-18.44 10.06-14.68 8-14.68 8-2.54 11.71-3.37 2.48Z" style="fill:#fff;stroke:#263238;stroke-linecap:round;stroke-linejoin:round"/><path d="M331 186.11c-.2 2-1.2 3.46-2.24 3.36s-1.72-1.78-1.52-3.74 1.2-3.46 2.24-3.36 1.75 1.78 1.52 3.74ZM358.3 191.16c-.2 2-1.2 3.46-2.23 3.36s-1.72-1.78-1.52-3.74 1.19-3.46 2.23-3.35 1.72 1.77 1.52 3.73Z" style="fill:#263238"/><path d="M321.82 178.58a13.89 13.89 0 0 1 14.26-2.09M367.94 189.06c-4.61-7.12-13.83-5.87-13.83-5.87s-2.94 5-3.36 8.39" style="fill:none;stroke:#263238;stroke-linecap:round;stroke-linejoin:round"/><path d="M345.72 191.58c-8.3-3-34.25 3.13-39.36 4.39-.23 8.26-.47 18.16-.47 22 0 7.12 1.25 11.74 12.58 20.12s18.86 10.49 26.41 7.55 18-10.06 19.71-15.51c.92-3 2.86-13.72 4.62-23.4-5.02-3.93-16.45-12.59-23.49-15.15Z" style="fill:#fff;stroke:#263238;stroke-linecap:round;stroke-linejoin:round"/><path d="M309.66 202.9s14.68-3.77 27.26-2.93M323.09 213.51l6.28-.13M308.4 213.8l10.92-.21M364.17 222.19l-8.81-2.52M359.56 204.58l7.13 3.35M308.82 222.61s8.39 2.93 13 2.93" style="fill:none;stroke:#263238;stroke-linecap:round;stroke-linejoin:round"/><path d="M369.21 206.76s4.6-5.12 4.6 1.17-7.54 13-7.54 13ZM128 265.94a2.56 2.56 0 0 1-.93-.18L74.71 244.9a2.5 2.5 0 0 1 1.85-4.65l52.35 20.87a2.5 2.5 0 0 1-.92 4.82Z" style="fill:#fff;stroke:#263238;stroke-linecap:round;stroke-linejoin:round"/><path d="M76.56 240.25a2.5 2.5 0 0 0-1.85 4.65L96 253.38a6.94 6.94 0 0 1 3.77-3.88Z" style="fill:#fff;stroke:#263238;stroke-linecap:round;stroke-linejoin:round"/><path d="M151.15 79.75a22.35 22.35 0 0 0 3.61-15.47 38.58 38.58 0 0 0-9.56-9.68c.77.56-.1 8.81-.1 10 0 1.38-1 9.16.1 10a45.16 45.16 0 0 1 5.95 5.15ZM152.3 225.41c-4.88-9.95-17-16.84-25.88-22.64-12.62-8.23-25.75-15.67-38.19-24.17-6.44-4.4-15.57-10-20.17-17.35 0 0-2.79 9.71-1.76 14.85.17.85.36 1.72.55 2.56a21.51 21.51 0 0 0 2.88 4.46c8.34 10.16 20.8 17.23 31.79 24.1 12.7 7.93 25.86 15.36 37.73 24.52a64 64 0 0 1 9.6 8.66 20.41 20.41 0 0 0 3.65-5.4 21.58 21.58 0 0 0 .91-2.93c.08-.26.15-.47.22-.64s0-.52 0-.77a13.24 13.24 0 0 0-1.33-5.25Z" style="fill:#263238;stroke:#263238;stroke-linecap:round;stroke-linejoin:round"/><path d="M148.86 237.49h-.22l-61.08-5.31a2.5 2.5 0 0 1 .43-5l61.08 5.32a2.5 2.5 0 0 1-.21 5Z" style="fill:#fff;stroke:#263238;stroke-linecap:round;stroke-linejoin:round"/><path d="M88 227.18a2.5 2.5 0 0 0-.43 5l26.82 2.33a13.76 13.76 0 0 1 1.14-4.92ZM134.06 220.8a2.43 2.43 0 0 1-.65-.09l-19.73-5.31a2.5 2.5 0 0 1 1.3-4.83l19.73 5.31a2.5 2.5 0 0 1-.65 4.92ZM116.61 207.9a2.53 2.53 0 0 1-1.07-.24l-13.66-6.45a2.5 2.5 0 1 1 2.14-4.52l13.66 6.45a2.5 2.5 0 0 1-1.07 4.76Z" style="fill:#fff;stroke:#263238;stroke-linecap:round;stroke-linejoin:round"/><path d="M147.94 337.61s3.57-5.06 3.57-9.37a.86.86 0 0 1 0-.16c-2.5-12.85-12.82-21.87-23.62-29.22-14.31-9.74-30.29-16.83-44.33-27-5-3.6-10.19-7.82-13.1-13.36l-.28-.53a26.48 26.48 0 0 1-1.33-3.54c-.19-.59-.16-1.25-.34-1.83-.09-.26-.16 1-.22 2.89s-.08 4.23-.09 6.46c-.12 4-.28 8.08.51 11.88 1.14 5.49 5.12 9.95 9.21 13.57 12.91 11.43 29.44 18.46 44 27.52 8.75 5.52 20.08 12.95 26.02 22.69Z" style="fill:#263238;stroke:#263238;stroke-linecap:round;stroke-linejoin:round"/><path d="M103.33 295.15h-.19L88.34 294a2.5 2.5 0 1 1 .39-5l14.79 1.14a2.5 2.5 0 0 1-.19 5ZM95.37 278.08h-.24l-20.48-1.9a2.5 2.5 0 1 1 .46-5l20.48 1.9a2.5 2.5 0 0 1-.22 5Z" style="fill:#fff;stroke:#263238;stroke-linecap:round;stroke-linejoin:round"/><path d="M154.35 172.06a12.61 12.61 0 0 0-1.61-5.34c-2.88-5.28-7.63-9.65-12-13.67-6.22-5.73-12.84-11-19.5-16.22-13.63-10.66-27.85-20.68-40.83-32.14-3.12-2.69-6.68-5.69-9.24-9.18 0 0-2.82 11-.08 19.24.14.41.26.8.37 1.19a59.7 59.7 0 0 0 4.38 4.54 194.06 194.06 0 0 0 15.09 13c13.26 10.54 27 20.45 40.09 31.21 5.68 4.68 12.3 9.71 17.26 15.72l.46-.35a18.6 18.6 0 0 0 4.23-4.31 18.32 18.32 0 0 0 1.07-2.18 4.9 4.9 0 0 1 .37-.67Z" style="fill:#263238;stroke:#263238;stroke-linecap:round;stroke-linejoin:round"/><path d="M68.81 155.92a2.5 2.5 0 0 1-1-4.78l38.32-17.07a2.5 2.5 0 1 1 2 4.57l-38.3 17.07a2.66 2.66 0 0 1-1.02.21Z" style="fill:#fff;stroke:#263238;stroke-linecap:round;stroke-linejoin:round"/><path d="m88.6 141.87-20.81 9.27a2.5 2.5 0 0 0 1 4.78 2.66 2.66 0 0 0 1-.21L92 145.82ZM146.2 191.58h-.12l-57.66-2.65a2.5 2.5 0 0 1 .23-5l57.66 2.66a2.5 2.5 0 0 1-.11 5Z" style="fill:#fff;stroke:#263238;stroke-linecap:round;stroke-linejoin:round"/><path d="M86 186.31a2.5 2.5 0 0 0 2.38 2.62l28.11 1.29a15.58 15.58 0 0 0 .37-5l-28.25-1.3a2.5 2.5 0 0 0-2.61 2.39Z" style="fill:#fff;stroke:#263238;stroke-linecap:round;stroke-linejoin:round"/><path d="M154.41 172.86a4.9 4.9 0 0 0-.37.67 18.32 18.32 0 0 1-1.07 2.18 18.6 18.6 0 0 1-4.23 4.31l-.46.35c-4.41 3.42-9.51 6-14.45 8.55-13.35 6.89-27.1 13.14-39.46 21.77-11.9 8.31-23.3 19.53-25.56 34.52-.23 1.55-.3 0-.37 1.59l-.27 3.2s-.81 14.29-.27 20.49A22.29 22.29 0 0 0 71.68 281s-.54-1.89-1.62-7.55.41-14.94.41-14.94a39.75 39.75 0 0 1 1.62-3.94c7-14.65 21.67-24.33 35.36-32 12.8-7.21 27-12.55 39.08-20.92 3.32-2.29 7.09-5.15 7.77-9.39l.19-1.34c.71-5.74.35-12.35-.08-18.06Z" style="fill:#578ce3;stroke:#263238;stroke-linecap:round;stroke-linejoin:round"/><path d="M68.43 313.74a2.5 2.5 0 0 1-.1-5l58-2.28a2.5 2.5 0 1 1 .2 5l-58 2.28Z" style="fill:#fff;stroke:#263238;stroke-linecap:round;stroke-linejoin:round"/><path d="m97.24 307.61-28.91 1.13a2.5 2.5 0 0 0 .1 5h.1l30.77-1.21a8.79 8.79 0 0 0-2.06-4.92Z" style="fill:#fff;stroke:#263238;stroke-linecap:round;stroke-linejoin:round"/><path d="M153.63 231.38c-.07.17-.14.38-.22.64a21.58 21.58 0 0 1-.91 2.93 20.41 20.41 0 0 1-3.65 5.45c-5.42 5.94-14.11 9.93-20.59 13.29-12.59 6.54-25.63 12.29-37.6 20-11.35 7.28-23.41 17.29-25.11 31.57-.72 6-.32 12.34-.28 18.4a38.16 38.16 0 0 0 .17 5.05A77.91 77.91 0 0 1 68.18 316c3.51-7.25 9.87-13.31 16.16-18 11.14-8.31 23.87-14.27 36.26-20.44 9.78-4.87 21.24-9.7 28.72-17.95a15.24 15.24 0 0 0 4.27-9.73v-1.07a163.64 163.64 0 0 0 .04-17.43Z" style="fill:#578ce3;stroke:#263238;stroke-linecap:round;stroke-linejoin:round"/><path d="M65.87 330.61c2.76 8.81 10.73 15 18.5 19.25-.59-.32.1-9 .1-10s.85-9.48-.1-10c-5.69-3.09-12.37-7.8-16.19-13.86a77.91 77.91 0 0 0-2.74 12.67 11.26 11.26 0 0 0 .43 1.94Z" style="fill:#263238;stroke:#263238;stroke-linecap:round;stroke-linejoin:round"/><path d="m82.9 121.28 10.76 1a19.1 19.1 0 0 1 .72-5l-11-1a2.5 2.5 0 1 0-.46 5ZM147.34 99H147l-76.6-9.48a2.5 2.5 0 1 1 .61-5L147.64 94a2.5 2.5 0 0 1-.3 5Z" style="fill:#fff;stroke:#263238;stroke-linecap:round;stroke-linejoin:round"/><path d="m147.64 94-35.18-4.36a16.27 16.27 0 0 1-1.69 4.83L147 99h.31a2.5 2.5 0 0 0 .3-5ZM75.63 75.88a2.5 2.5 0 0 1-.2-5l74-6.07a2.5 2.5 0 0 1 .41 5l-74 6.07Z" style="fill:#fff;stroke:#263238;stroke-linecap:round;stroke-linejoin:round"/><path d="m149.41 64.82-33.92 2.78a6.32 6.32 0 0 1 1.13 4.92l33.2-2.72a2.5 2.5 0 0 0-.41-5ZM118.51 113.06a1.9 1.9 0 0 1-.41 0l-46.66-7.58a2.5 2.5 0 1 1 .8-4.94l46.67 7.59a2.5 2.5 0 0 1-.4 5Z" style="fill:#fff;stroke:#263238;stroke-linecap:round;stroke-linejoin:round"/><path d="m118.91 108.09-25-4.06a6.5 6.5 0 0 0-1.83 4.77l26 4.22a1.9 1.9 0 0 0 .41 0 2.5 2.5 0 0 0 .4-5Z" style="fill:#fff;stroke:#263238;stroke-linecap:round;stroke-linejoin:round"/><path d="M76.89 85.17a38.41 38.41 0 0 1 4.44-5.25c1.07-1 .1-8.46.1-10v-7.07c0-.45-.31-2.7-.07-2.93a44.27 44.27 0 0 0-10.6 16.67 43.47 43.47 0 0 0-2.37 13.3c-.29-1.41-.31-.17-.08 3.73-.17 5.44-1 11.65.19 16.87a13.47 13.47 0 0 0 3 5.45 22.8 22.8 0 0 0-.37-1.19c-2.74-8.23.08-19.24.08-19.24a47 47 0 0 1 5.68-10.34Z" style="fill:#578ce3;stroke:#263238;stroke-linecap:round;stroke-linejoin:round"/><path d="M70.33 176.41a2.5 2.5 0 0 1-.85-4.85l58.8-21.25A2.5 2.5 0 0 1 130 155l-58.8 21.24a2.58 2.58 0 0 1-.87.17Z" style="fill:#fff;stroke:#263238;stroke-linecap:round;stroke-linejoin:round"/><path d="m98.61 161-29.13 10.56a2.5 2.5 0 0 0 .85 4.85 2.58 2.58 0 0 0 .85-.15l29.31-10.59a5.9 5.9 0 0 1-1.88-4.67ZM139.75 357.37a2.69 2.69 0 0 1-.73-.11l-58.8-17.83a2.5 2.5 0 0 1 1.45-4.79l58.8 17.83a2.5 2.5 0 0 1-.72 4.9Z" style="fill:#fff;stroke:#263238;stroke-linecap:round;stroke-linejoin:round"/><path d="m104.82 341.66-23.15-7a2.5 2.5 0 0 0-1.45 4.79l22.18 6.72a10.37 10.37 0 0 1 2.42-4.51ZM70.7 331.57a2.5 2.5 0 0 1-.13-5l75.11-4.17a2.5 2.5 0 0 1 .28 5l-75.12 4.18Z" style="fill:#fff;stroke:#263238;stroke-linecap:round;stroke-linejoin:round"/><path d="m110.33 324.36-39.76 2.21a2.5 2.5 0 0 0 .13 5h.14l40.22-2.24a11.64 11.64 0 0 0-.73-4.97ZM74.65 276.17l10.75 1a19.69 19.69 0 0 1 .72-5l-11-1a2.5 2.5 0 1 0-.46 5Z" style="fill:#fff;stroke:#263238;stroke-linecap:round;stroke-linejoin:round"/><path d="M152.09 333.51c0-.41 0-.82-.05-1.23v-.14h0a33.27 33.27 0 0 0-.51-4.07.86.86 0 0 0 0 .16c0 4.31-3.57 9.37-3.57 9.37-7.18 7.89-17.96 13.4-27.09 17.4-.69.3-.1 9-.1 10s.7 9.74.1 10c10.08-4.33 19.94-10 27.46-18.12 1.14-1.24 3-2.92 3.62-4.54.44-1.17.16-2.85.17-4.09.04-4.94.07-9.85-.03-14.74ZM158.39 73.72a31.38 31.38 0 0 0-1.06-3.89c-.67-1.91-2.29-4.78-2.57-5.55a22.35 22.35 0 0 1-3.61 15.47A244.1 244.1 0 0 1 117.07 104c-9.4 5.53-19.13 10.49-28.26 16.45-7.92 5.17-16 11.36-20.36 20-4.77 9.44-3.44 21.46-3.14 31.63a16.2 16.2 0 0 0 1.54 6.58c-.19-.84-.38-1.71-.55-2.56-1-5.14 1.76-14.85 1.76-14.85a35.93 35.93 0 0 1 6-8.78c6.62-7.31 15.29-12.57 23.74-17.49 9.84-5.74 19.71-11.45 29.32-17.57 4.8-3.06 9.54-6.21 14.17-9.51 4.35-3.1 9.15-6.17 12.91-10 6.52-6.65 5.94-15.62 4.19-24.18Z" style="fill:#578ce3;stroke:#263238;stroke-linecap:round;stroke-linejoin:round"/><path style="fill:#fff;stroke:#263238;stroke-linecap:round;stroke-linejoin:round" d="M172 406.98h5v43.5h-5zM180 394.48h11.5V439a4.53 4.53 0 0 1-4.53 4.53h-2.45A4.53 4.53 0 0 1 180 439v-44.52h0Z"/><path d="M181.22 401.12V437a4.52 4.52 0 0 0 4.53 4.52 4.52 4.52 0 0 0 4.53-4.52v-35.88Z" style="fill:#578ce3"/><path d="M191.22 396.15h-11a1.63 1.63 0 0 1-1.63-1.63h0a1.63 1.63 0 0 1 1.63-1.63h11a1.63 1.63 0 0 1 1.63 1.63h0a1.63 1.63 0 0 1-1.63 1.63ZM197.65 394.48h11.5V439a4.53 4.53 0 0 1-4.53 4.53h-2.45a4.53 4.53 0 0 1-4.53-4.53v-44.52h0Z" style="fill:#fff;stroke:#263238;stroke-linecap:round;stroke-linejoin:round"/><path d="M198.88 401.12V437a4.52 4.52 0 0 0 4.52 4.52 4.52 4.52 0 0 0 4.53-4.52v-35.88Z" style="fill:#578ce3"/><path d="M208.87 396.15h-11a1.62 1.62 0 0 1-1.62-1.63h0a1.62 1.62 0 0 1 1.62-1.63h11a1.63 1.63 0 0 1 1.63 1.63h0a1.63 1.63 0 0 1-1.63 1.63ZM215.3 394.48h11.5V439a4.53 4.53 0 0 1-4.53 4.53h-2.45a4.53 4.53 0 0 1-4.52-4.53v-44.52h0Z" style="fill:#fff;stroke:#263238;stroke-linecap:round;stroke-linejoin:round"/><path d="M216.53 401.12V437a4.52 4.52 0 0 0 4.52 4.52 4.52 4.52 0 0 0 4.53-4.52v-35.88Z" style="fill:#578ce3"/><path d="M226.52 396.15h-11a1.63 1.63 0 0 1-1.63-1.63h0a1.63 1.63 0 0 1 1.63-1.63h11a1.63 1.63 0 0 1 1.63 1.63h0a1.63 1.63 0 0 1-1.63 1.63ZM168 402.48h62.5v7.5H168zM168 446.98h62.5v7.5H168zM301.45 400.45l-.07-22.19h-23.21v22.66l-15.35 47.52a4.62 4.62 0 0 0 4.4 6h45a4.62 4.62 0 0 0 4.4-6Z" style="fill:#fff;stroke:#263238;stroke-linecap:round;stroke-linejoin:round"/><path d="M300.81 409.42h-21.95l-11.43 36.43a3.92 3.92 0 0 0 3.64 5.16h37.26a3.93 3.93 0 0 0 3.65-5.16Z" style="fill:#578ce3"/><rect x="273.91" y="374.14" width="31.03" height="5.49" rx="1.87" style="fill:#fff;stroke:#263238;stroke-linecap:round;stroke-linejoin:round"/><path style="fill:none;stroke:#263238;stroke-linecap:round;stroke-linejoin:round" d="M55.27 454.48h431.54M20.95 454.48h26.48"/></svg>