<svg width="764" height="559" viewBox="0 0 764 559" fill="none" xmlns="http://www.w3.org/2000/svg">
<g clip-path="url(#clip0_892_478)">
<g opacity="0.3">
<path d="M272.483 355.767C272.483 355.767 172.634 394.002 122.834 452.914C73.0349 511.825 76.9751 587.592 137.488 643.82C198.001 700.048 313.664 692.71 410.508 728.36C507.353 764.01 614.199 756.662 659.992 681.163C705.786 605.664 636.733 577.411 624.873 490.059C613.013 402.706 508.209 274.812 272.483 355.767Z" fill="#578CE3"/>
<path opacity="0.7" d="M272.483 355.767C272.483 355.767 172.634 394.002 122.834 452.914C73.0349 511.825 76.9751 587.592 137.488 643.82C198.001 700.048 313.664 692.71 410.508 728.36C507.353 764.01 614.199 756.662 659.992 681.163C705.786 605.664 636.733 577.411 624.873 490.059C613.013 402.706 508.209 274.812 272.483 355.767Z" fill="white"/>
</g>
<path d="M724.94 506.02H720.79V505.31C720.787 503.372 720.016 501.514 718.646 500.144C717.276 498.774 715.418 498.003 713.48 498H710.67C708.73 498 706.87 498.77 705.498 500.14C704.125 501.511 703.353 503.37 703.35 505.31V506.02H699.21C698.657 506.019 698.109 506.127 697.597 506.338C697.086 506.549 696.621 506.859 696.23 507.25C695.839 507.641 695.529 508.106 695.318 508.617C695.107 509.129 694.999 509.677 695 510.23V529.41C695 530.527 695.444 531.597 696.233 532.387C697.023 533.176 698.093 533.62 699.21 533.62H724.94C726.056 533.617 727.125 533.173 727.914 532.384C728.703 531.595 729.147 530.526 729.15 529.41V510.23C729.15 509.113 728.706 508.043 727.917 507.253C727.127 506.464 726.057 506.02 724.94 506.02ZM705.35 505.31C705.353 503.901 705.914 502.55 706.912 501.555C707.909 500.559 709.261 500 710.67 500H713.48C714.888 500 716.239 500.559 717.235 501.555C718.231 502.551 718.79 503.902 718.79 505.31V506.02H705.35V505.31Z" fill="#578CE3" stroke="black"/>
<path d="M719.74 517.86H714.44V512.57H709.7V517.86H704.4V522.61H709.7V527.9H714.44V522.61H719.74V517.86Z" fill="white"/>
<path d="M625.914 211.686C625.089 211.686 624.273 211.524 623.512 211.208C622.75 210.892 622.059 210.429 621.476 209.846C620.894 209.263 620.432 208.57 620.118 207.809C619.803 207.047 619.642 206.23 619.644 205.406V188.486C619.642 187.662 619.803 186.845 620.118 186.084C620.432 185.322 620.894 184.629 621.476 184.046C622.059 183.463 622.75 183 623.512 182.684C624.273 182.369 625.089 182.206 625.914 182.206C626.738 182.206 627.554 182.369 628.315 182.684C629.077 183 629.768 183.463 630.351 184.046C630.933 184.629 631.395 185.322 631.709 186.084C632.024 186.845 632.185 187.662 632.184 188.486V205.376C632.189 206.203 632.031 207.022 631.718 207.788C631.405 208.553 630.944 209.249 630.361 209.835C629.779 210.422 629.086 210.887 628.322 211.205C627.559 211.523 626.74 211.686 625.914 211.686Z" fill="white" stroke="#263238" stroke-linecap="round" stroke-linejoin="round"/>
<path d="M625.914 211.686C625.089 211.686 624.273 211.524 623.512 211.208C622.75 210.892 622.059 210.429 621.476 209.846C620.894 209.263 620.432 208.57 620.118 207.809C619.803 207.047 619.642 206.23 619.644 205.406V196.956H632.184V205.406C632.185 206.23 632.024 207.047 631.709 207.809C631.395 208.57 630.933 209.263 630.351 209.846C629.768 210.429 629.077 210.892 628.315 211.208C627.554 211.524 626.738 211.686 625.914 211.686Z" fill="#578CE3" stroke="#263238" stroke-linecap="round" stroke-linejoin="round"/>
<path d="M594.373 186.766C593.858 186.122 593.475 185.383 593.246 184.59C593.017 183.798 592.947 182.968 593.04 182.148C593.133 181.329 593.387 180.535 593.787 179.814C594.188 179.093 594.727 178.458 595.373 177.946L608.543 167.366C609.848 166.329 611.51 165.852 613.165 166.04C614.821 166.227 616.334 167.064 617.373 168.366C618.41 169.669 618.886 171.329 618.699 172.983C618.511 174.637 617.675 176.149 616.373 177.186L603.193 187.756C602.55 188.271 601.811 188.654 601.019 188.883C600.227 189.112 599.397 189.182 598.578 189.09C597.759 188.998 596.966 188.746 596.244 188.347C595.523 187.948 594.887 187.411 594.373 186.766Z" fill="white" stroke="#263238" stroke-linecap="round" stroke-linejoin="round"/>
<path d="M594.373 186.766C593.858 186.122 593.475 185.383 593.246 184.59C593.017 183.798 592.947 182.968 593.04 182.148C593.133 181.329 593.387 180.535 593.787 179.814C594.188 179.093 594.727 178.458 595.373 177.946L601.963 172.656L609.813 182.446L603.223 187.726C602.581 188.247 601.841 188.636 601.047 188.87C600.253 189.104 599.421 189.178 598.598 189.089C597.776 189 596.979 188.749 596.254 188.35C595.529 187.951 594.89 187.413 594.373 186.766Z" fill="#578CE3" stroke="#263238" stroke-linecap="round" stroke-linejoin="round"/>
<path d="M601.772 406.797C600.99 406.797 600.228 407.042 599.592 407.497L585.022 396.187C585.736 394.865 586.071 393.372 585.99 391.872C585.908 390.372 585.414 388.924 584.562 387.687L593.462 376.307C594.215 376.597 595.041 376.639 595.82 376.426C596.599 376.213 597.288 375.756 597.789 375.122C598.289 374.489 598.573 373.712 598.6 372.905C598.626 372.098 598.394 371.304 597.937 370.639C597.479 369.973 596.821 369.472 596.058 369.208C595.295 368.944 594.468 368.931 593.697 369.171C592.927 369.411 592.253 369.892 591.775 370.542C591.297 371.193 591.04 371.98 591.042 372.787C591.037 373.565 591.279 374.324 591.732 374.957L583.072 386.047C581.91 385.069 580.5 384.434 578.998 384.213C577.496 383.992 575.962 384.195 574.568 384.797C573.175 385.399 571.976 386.378 571.108 387.623C570.239 388.868 569.735 390.331 569.652 391.847H559.532C559.421 390.949 558.992 390.12 558.322 389.511C557.652 388.902 556.786 388.554 555.882 388.53C554.977 388.506 554.094 388.807 553.392 389.378C552.69 389.95 552.217 390.755 552.059 391.646C551.9 392.537 552.066 393.455 552.527 394.234C552.988 395.013 553.713 395.6 554.571 395.89C555.429 396.179 556.361 396.152 557.2 395.812C558.039 395.471 558.728 394.842 559.142 394.037H569.842C570.155 395.491 570.858 396.832 571.877 397.916C572.895 399 574.19 399.786 575.621 400.189C577.053 400.592 578.567 400.597 580.002 400.204C581.436 399.811 582.736 399.034 583.762 397.957L598.252 409.227C597.966 409.979 597.928 410.802 598.143 411.577C598.359 412.352 598.816 413.037 599.449 413.534C600.082 414.03 600.857 414.311 601.661 414.335C602.465 414.36 603.255 414.126 603.917 413.669C604.579 413.212 605.078 412.556 605.34 411.796C605.602 411.035 605.614 410.211 605.374 409.443C605.135 408.676 604.656 408.005 604.008 407.529C603.359 407.052 602.576 406.796 601.772 406.797Z" fill="#578CE3"/>
<path d="M112.72 165.79C111.509 165.787 110.348 165.305 109.491 164.449C108.635 163.592 108.153 162.431 108.15 161.22V123.22H117.29V161.22C117.29 162.432 116.808 163.594 115.951 164.451C115.094 165.308 113.932 165.79 112.72 165.79Z" fill="white" stroke="#263238" stroke-linecap="round" stroke-linejoin="round"/>
<path d="M112.72 165.79C111.509 165.787 110.348 165.305 109.491 164.449C108.635 163.592 108.153 162.431 108.15 161.22V137.85H117.29V161.22C117.29 162.432 116.808 163.595 115.951 164.452C115.094 165.309 113.932 165.79 112.72 165.79Z" fill="#578CE3" stroke="#263238" stroke-linecap="round" stroke-linejoin="round"/>
<path d="M118.6 121H106.85V124.33H118.6V121Z" fill="white" stroke="#263238" stroke-linecap="round" stroke-linejoin="round"/>
<path d="M98.8698 165.79C97.6586 165.787 96.4977 165.305 95.6412 164.449C94.7848 163.592 94.3024 162.431 94.2998 161.22V123.22H103.44V161.22C103.44 162.432 102.958 163.594 102.101 164.451C101.244 165.308 100.082 165.79 98.8698 165.79Z" fill="white" stroke="#263238" stroke-linecap="round" stroke-linejoin="round"/>
<path d="M98.8698 165.79C97.6586 165.787 96.4977 165.305 95.6412 164.449C94.7848 163.592 94.3024 162.431 94.2998 161.22V137.85H103.44V161.22C103.44 162.432 102.958 163.595 102.101 164.452C101.244 165.309 100.082 165.79 98.8698 165.79Z" fill="#578CE3" stroke="#263238" stroke-linecap="round" stroke-linejoin="round"/>
<path d="M104.75 121H93V124.33H104.75V121Z" fill="white" stroke="#263238" stroke-linecap="round" stroke-linejoin="round"/>
<path d="M197.14 343.898L200.78 335.158C200.842 335.017 200.944 334.898 201.075 334.816C201.205 334.734 201.356 334.693 201.51 334.698C201.664 334.706 201.812 334.761 201.934 334.855C202.055 334.95 202.145 335.08 202.19 335.228L206.6 349.768L209.96 339.058C210.006 338.907 210.099 338.775 210.224 338.68C210.35 338.585 210.502 338.532 210.66 338.528C210.816 338.532 210.967 338.582 211.095 338.671C211.222 338.759 211.322 338.884 211.38 339.028L213.25 344.408H223.36C225.429 342.246 226.632 339.399 226.74 336.408C226.759 333.614 225.746 330.912 223.894 328.82C222.042 326.728 219.483 325.395 216.708 325.075C213.933 324.755 211.137 325.471 208.858 327.087C206.579 328.703 204.977 331.103 204.36 333.828C203.725 331.122 202.117 328.745 199.843 327.147C197.569 325.549 194.787 324.843 192.026 325.163C189.266 325.483 186.719 326.806 184.87 328.881C183.021 330.957 182 333.639 182 336.418C182.111 339.188 183.15 341.84 184.95 343.948L197.14 343.898Z" fill="#578CE3"/>
<path d="M212.72 345.908C212.565 345.909 212.413 345.861 212.285 345.771C212.158 345.682 212.062 345.555 212.01 345.408L210.71 341.668L207.3 352.538C207.252 352.691 207.156 352.825 207.026 352.92C206.897 353.015 206.741 353.067 206.58 353.068C206.419 353.067 206.263 353.014 206.135 352.917C206.007 352.82 205.914 352.683 205.87 352.528L201.36 337.658L198.36 344.938C198.303 345.074 198.207 345.19 198.085 345.272C197.962 345.354 197.818 345.398 197.67 345.398H186.16C188.63 348.158 191.71 350.598 194.01 352.868C197.49 356.308 200.9 359.868 204.45 363.188C209 358.698 213.58 354.188 218.09 349.698C219.34 348.448 220.7 347.208 221.96 345.908H212.72Z" fill="#578CE3"/>
<path d="M71.3246 451.384L76.228 453.084L81.5337 437.788L76.6303 436.088L71.3246 451.384Z" fill="white" stroke="#263238" stroke-miterlimit="10"/>
<path d="M69.0002 453.812L76.5679 456.437L77.5674 453.555L69.9997 450.93L69.0002 453.812Z" fill="white" stroke="#263238" stroke-miterlimit="10"/>
<path d="M71.2232 440.024L83.3447 444.229L92.9565 416.518L80.8351 412.314L71.2232 440.024Z" fill="white" stroke="#263238" stroke-miterlimit="10"/>
<path d="M77.1174 428.17L86.0645 431.273L91.3701 415.977L82.4231 412.874L77.1174 428.17Z" fill="#578CE3" stroke="#578CE3" stroke-miterlimit="10"/>
<path d="M75.5346 439.258L80.438 440.959L85.7437 425.663L80.8403 423.962L75.5346 439.258Z" fill="#578CE3" stroke="#578CE3" stroke-miterlimit="10"/>
<path d="M70.3673 439.733L84.2178 444.537L85.4205 441.07L71.57 436.266L70.3673 439.733Z" fill="white" stroke="#263238" stroke-miterlimit="10"/>
<path d="M83.7907 411.736L91.0088 414.24L92.6113 409.62L85.3932 407.116L83.7907 411.736Z" fill="white" stroke="#263238" stroke-miterlimit="10"/>
<path d="M79.6764 412.887L93.5269 417.691L94.7296 414.224L80.8791 409.419L79.6764 412.887Z" fill="white" stroke="#263238" stroke-miterlimit="10"/>
<path d="M89.0757 407.74L94.8757 391" stroke="#263238" stroke-miterlimit="10"/>
</g>
<defs>
<clipPath id="clip0_892_478">
<rect width="764" height="559" fill="white"/>
</clipPath>
</defs>
</svg>
