<svg xmlns="http://www.w3.org/2000/svg" width="40" height="40"><path d="M31.588 6.918h-3.756V6.31c0-.762-.638-1.378-1.426-1.378-.788 0-1.426.616-1.426 1.378v.608h-9.452V6.31c0-.762-.638-1.378-1.426-1.378-.788 0-1.426.616-1.426 1.378v.608H8.798c-2.134 0-3.864 1.67-3.864 3.732v20.594c0 2.062 1.73 3.732 3.864 3.732h22.79c2.134 0 3.864-1.67 3.864-3.732V10.65c-.002-2.06-1.732-3.732-3.864-3.732ZM28.182 21.58l-9.074 8.682c-.304.292-.71.455-1.132.454-.422 0-.842-.162-1.162-.484L11.87 25.26a1.634 1.634 0 0 1 .008-2.316 1.638 1.638 0 0 1 2.316.008l3.81 3.834 7.914-7.57a1.637 1.637 0 0 1 2.264 2.364Zm4.178-8.176c0 .516-.434.934-.968.934H8.994c-.534 0-.968-.418-.968-.934V10.81c0-.516.434-.934.968-.934h3.682v.812c0 .762.638 1.378 1.426 1.378.788 0 1.426-.616 1.426-1.378v-.812h9.45v.812c0 .762.638 1.378 1.426 1.378.788 0 1.426-.616 1.426-1.378v-.812h3.562c.534 0 .968.418.968.934v2.594Z"/><path d="M35.45 10.65c0-2.062-1.73-3.732-3.864-3.732H27.83V6.31c0-.762-.638-1.378-1.426-1.378-.788 0-1.426.616-1.426 1.378v.608h-9.45V6.31c0-.762-.638-1.378-1.426-1.378-.788 0-1.426.616-1.426 1.378v.608H8.798c-2.134 0-3.864 1.67-3.864 3.732v20.594c0 2.062 1.73 3.732 3.864 3.732h13.454A24.125 24.125 0 0 0 35.45 22.338V10.65Zm-7.268 10.93-9.074 8.682c-.304.292-.71.455-1.132.454-.422 0-.842-.162-1.162-.484L11.87 25.26a1.634 1.634 0 0 1 .008-2.316 1.638 1.638 0 0 1 2.316.008l3.81 3.834 7.914-7.57a1.637 1.637 0 0 1 2.264 2.364Zm4.178-8.176c0 .516-.434.934-.968.934H8.994c-.534 0-.968-.418-.968-.934V10.81c0-.516.434-.934.968-.934h3.682v.812c0 .762.638 1.378 1.426 1.378.788 0 1.426-.616 1.426-1.378v-.812h9.45v.812c0 .762.638 1.378 1.426 1.378.788 0 1.426-.616 1.426-1.378v-.812h3.562c.534 0 .968.418.968.934v2.594Z"/><path d="M6.896 28.094c2.368 0 4.654-.344 6.814-.982l-1.842-1.854a1.634 1.634 0 0 1 .008-2.316 1.635 1.635 0 0 1 2.316.008l2.874 2.89a24.128 24.128 0 0 0 11.562-11.502H8.994c-.534 0-.968-.418-.968-.934V10.81c0-.516.434-.934.968-.934h3.682v.812c0 .762.638 1.378 1.426 1.378.788 0 1.426-.616 1.426-1.378v-.812h9.45v.812c0 .762.638 1.378 1.426 1.378.788 0 1.426-.616 1.426-1.378v-.812h2.392c.24-.964.42-1.95.54-2.956H27.83v-.608c0-.762-.638-1.378-1.426-1.378-.788 0-1.426.616-1.426 1.378v.608h-9.45v-.608c0-.762-.638-1.378-1.426-1.378-.788 0-1.426.616-1.426 1.378v.608H8.798c-2.134 0-3.864 1.67-3.864 3.732v17.364c.648.05 1.302.078 1.962.078Z"/><path d="M15.842 14.338H8.994c-.534 0-.968-.418-.968-.934V10.81c0-.516.434-.934.968-.934h3.682v.812c0 .762.638 1.378 1.426 1.378.788 0 1.426-.616 1.426-1.378v-.812h4.626a24.145 24.145 0 0 0 1.88-2.956h-6.506v-.608c0-.762-.638-1.378-1.426-1.378-.788 0-1.426.616-1.426 1.378v.608H8.798c-2.134 0-3.864 1.67-3.864 3.732v8.588a23.915 23.915 0 0 0 10.908-4.902Z"/></svg>