<svg xmlns="http://www.w3.org/2000/svg" width="40" height="40"><path fill-opacity=".35" d="m24.52 34.92-12.98 2.54c-1.96.38-3.86-.9-4.24-2.86L3.16 13.42c-.38-1.96.9-3.86 2.86-4.24L19 6.66c1.96-.38 3.86.9 4.24 2.86l4.14 21.18c.36 1.94-.92 3.84-2.86 4.22Z"/><path fill-opacity=".5" d="M32.76 4.48 14.94 3c-1.34-.1-2.58.36-3.5 1.2-.14 6.48 4.78 12.02 11.32 12.58 6.54.56 12.32-4.12 13.24-10.54-.76-.98-1.9-1.66-3.24-1.76Z"/><path d="M32.84 3.9 15.02 2.42c-1.34-.1-2.58.36-3.5 1.2-.14 6.48 4.78 12.02 11.34 12.58 6.56.56 12.32-4.12 13.24-10.54a4.664 4.664 0 0 0-3.26-1.76Z"/><path fill-opacity=".5" d="M17.52 16.44c0 3.2 2.6 5.8 5.8 5.82 3.2 0 5.8-2.6 5.82-5.8 0-3.2-2.6-5.8-5.8-5.8-3.22-.04-5.82 2.56-5.82 5.78Z"/><path fill-rule="evenodd" d="M11.3 35.36 31.12 37c1.98.16 3.74-1.32 3.9-3.3l2.12-25.62c.16-1.98-1.32-3.74-3.3-3.9L14.02 2.54c-1.98-.16-3.74 1.32-3.9 3.3L8 31.46c-.16 1.98 1.32 3.74 3.3 3.9Zm11.58-13.62c-3.2-.02-5.8-2.62-5.8-5.82 0-3.22 2.6-5.82 5.82-5.78 3.2 0 5.8 2.6 5.8 5.8-.02 3.2-2.62 5.8-5.82 5.8Z" clip-rule="evenodd"/></svg>