<svg xmlns="http://www.w3.org/2000/svg" width="40" height="40" ><path fill-rule="evenodd" d="M13.39 36h13.22A9.388 9.388 0 0 0 36 26.61V13.39A9.388 9.388 0 0 0 26.61 4H13.39A9.388 9.388 0 0 0 4 13.39v13.22A9.388 9.388 0 0 0 13.39 36ZM28 20c0 4.42-3.58 8-8 8s-8-3.58-8-8 3.58-8 8-8 8 3.58 8 8Zm-10.836 4.83 2.855-1.16 2.855 1.16c.37.154.65-.048.62-.448l-.22-3.076 1.983-2.357c.258-.307.154-.633-.236-.73l-2.99-.741-1.627-2.616c-.213-.34-.554-.34-.767 0l-1.628 2.616-2.993.74c-.39.098-.494.424-.236.73l1.983 2.358-.22 3.076c-.027.396.25.598.62.449Z" clip-rule="evenodd"/></svg>