<svg width="65" height="64" viewBox="0 0 65 64" fill="none" xmlns="http://www.w3.org/2000/svg">
<path d="M2.88989 32.0002C2.88989 39.1852 6.00989 46.0752 11.5629 51.1562C17.1159 56.2362 24.6469 59.0902 32.4999 59.0902C40.3529 59.0902 47.8849 56.2362 53.4369 51.1562C58.9899 46.0762 62.1099 39.1852 62.1099 32.0002C62.1099 24.8152 58.9899 17.9252 53.4369 12.8452C47.8849 7.76516 40.3529 4.91016 32.4999 4.91016C24.6469 4.91016 17.1159 7.76416 11.5629 12.8452C6.00989 17.9252 2.88989 24.8152 2.88989 32.0002Z" fill="#FFE500"/>
<path d="M32.4999 54.05C15.7419 54.05 4.26789 43.257 3.01589 29.48C2.93548 30.3176 2.89344 31.1585 2.88989 32C2.88989 46.962 14.7339 59.09 32.4999 59.09C50.2659 59.09 62.1099 46.962 62.1099 32C62.1099 31.148 62.0609 30.31 61.9839 29.48C60.7319 43.258 49.2579 54.05 32.4999 54.05Z" fill="#F2C100"/>
<path d="M24.3101 8.06376C24.3101 8.39776 25.1731 8.71876 26.7091 8.95476C28.2451 9.19176 30.3281 9.32476 32.5001 9.32476C34.6721 9.32476 36.7551 9.19176 38.2911 8.95476C39.8271 8.71876 40.6911 8.39776 40.6911 8.06376C40.6911 7.72876 39.8271 7.40876 38.2911 7.17176C36.7551 6.93576 34.6721 6.80176 32.5011 6.80176C30.3281 6.80176 28.2451 6.93576 26.7091 7.17176C25.1731 7.40876 24.3101 7.72876 24.3101 8.06376Z" fill="#FFFACF"/>
<path d="M2.88989 32.0002C2.88989 39.1852 6.00989 46.0752 11.5629 51.1562C17.1159 56.2362 24.6469 59.0902 32.4999 59.0902C40.3529 59.0902 47.8849 56.2362 53.4369 51.1562C58.9899 46.0762 62.1099 39.1852 62.1099 32.0002C62.1099 24.8152 58.9899 17.9252 53.4369 12.8452C47.8849 7.76516 40.3529 4.91016 32.4999 4.91016C24.6469 4.91016 17.1159 7.76416 11.5629 12.8452C6.00989 17.9252 2.88989 24.8152 2.88989 32.0002Z" stroke="#45413C" stroke-width="2" stroke-miterlimit="10"/>
<path d="M37.8701 35.8729C37.8701 35.8729 36.5271 34.2349 32.5001 34.2349C28.4731 34.2349 27.1311 35.8729 27.1311 35.8729" stroke="#45413C" stroke-width="2" stroke-linecap="round" stroke-linejoin="round"/>
<path d="M24.1519 29.913C25.6889 29.913 26.9349 28.3559 26.9349 26.435C26.9349 24.5142 25.6889 22.957 24.1519 22.957C22.6149 22.957 21.3689 24.5142 21.3689 26.435C21.3689 28.3559 22.6149 29.913 24.1519 29.913Z" fill="#45413C"/>
<path d="M40.8479 29.913C42.385 29.913 43.6309 28.3559 43.6309 26.435C43.6309 24.5142 42.385 22.957 40.8479 22.957C39.3109 22.957 38.0649 24.5142 38.0649 26.435C38.0649 28.3559 39.3109 29.913 40.8479 29.913Z" fill="#45413C"/>
</svg>
