<svg xmlns="http://www.w3.org/2000/svg" width="65" height="64" fill="none"><path fill="#FFE500" d="M2.747 30.266c0 7.22 3.135 14.143 8.715 19.248s13.147 7.973 21.038 7.973 15.459-2.868 21.039-7.973c5.58-5.105 8.714-12.029 8.714-19.248 0-7.22-3.135-14.143-8.714-19.248C47.959 5.913 40.39 3.045 32.5 3.045c-7.89 0-15.459 2.868-21.038 7.973-5.58 5.105-8.715 12.028-8.715 19.248Z"/><path fill="#F2C100" d="M32.5 52.417c-16.839 0-28.368-10.842-29.626-24.689a27.972 27.972 0 0 0-.127 2.533c0 15.033 11.901 27.22 29.753 27.22s29.753-12.188 29.753-27.216c0-.856-.05-1.699-.127-2.532C60.868 41.575 49.34 52.417 32.5 52.417Z"/><path fill="#FFFACF" d="M24.27 6.213c0 .166.213.331.627.485.414.154 1.02.293 1.784.411s1.671.211 2.67.275c.998.063 2.068.096 3.15.096 1.08 0 2.15-.033 3.148-.096a30.794 30.794 0 0 0 2.67-.275c.764-.118 1.37-.257 1.784-.411.414-.154.627-.319.627-.485 0-.167-.213-.331-.627-.485-.413-.154-1.02-.294-1.784-.411a30.794 30.794 0 0 0-2.67-.275 49.998 49.998 0 0 0-3.149-.097c-1.08 0-2.15.033-3.15.097-.998.063-1.905.157-2.67.275-.763.117-1.37.257-1.783.41-.414.155-.627.32-.627.486Z"/><path stroke="#45413C" stroke-miterlimit="10" stroke-width="2" d="M2.747 30.266c0 7.22 3.135 14.143 8.715 19.248s13.147 7.973 21.038 7.973 15.459-2.868 21.039-7.973c5.58-5.105 8.714-12.029 8.714-19.248 0-7.22-3.135-14.143-8.714-19.248C47.959 5.913 40.39 3.045 32.5 3.045c-7.89 0-15.459 2.868-21.038 7.973-5.58 5.105-8.715 12.028-8.715 19.248Z"/><path fill="#F2C100" d="M37.868 56.347c.855-.874.805-1.153.972-2.364a4.593 4.593 0 0 0-1.124-2.926c.327-.58.506-1.233.52-1.899a2.234 2.234 0 0 0-1.207-1.811 3.292 3.292 0 0 0-.172-3.701 8.197 8.197 0 0 0 3.799-2.338 3.453 3.453 0 0 0-3.624-5.433c-3.622.603-9.66 6.642-12.68 7.246-3.019.603-3.02-3.624-6.038-4.832a3.084 3.084 0 0 0-4.227 3.624 30.858 30.858 0 0 1 1.927 8.678 10.938 10.938 0 0 0-.116 1.587c0 .364.022.724.057 1.081"/><path stroke="#45413C" stroke-linecap="round" stroke-linejoin="round" d="M27.227 27.208a6.228 6.228 0 0 1 3.777-1.03c2.674-.143 5.324.58 7.556 2.06m-.347-12.106a3.106 3.106 0 0 0 2.127.71 3.073 3.073 0 0 0 2.838-1.419m-22.696-1.419a3.166 3.166 0 0 1 2.836-2.127 3.164 3.164 0 0 1 2.838 2.127m6.619 27.552a3.292 3.292 0 0 1 .17 3.7m0 0a9.443 9.443 0 0 1-3.672 2.76m3.671-2.76a2.233 2.233 0 0 1 1.203 1.811 4.907 4.907 0 0 1-3.291 4.305"/><path fill="#45413C" d="M39.544 21.225a2.216 2.216 0 1 0 4.43 0 2.216 2.216 0 0 0-4.43 0ZM21.102 21.225a2.215 2.215 0 1 0 4.43 0 2.215 2.215 0 0 0-4.43 0Z"/><path fill="#F2C100" d="M15.953 53.25c-.037-.36-.056-.72-.057-1.082 0-.531.038-1.062.115-1.587-.22-2.97-.87-5.894-1.927-8.678a3.083 3.083 0 0 1 4.227-3.623c3.019 1.207 3.019 5.435 6.039 4.83 3.02-.603 9.057-6.641 12.68-7.245a3.453 3.453 0 0 1 3.623 5.434 8.197 8.197 0 0 1-3.798 2.337 3.291 3.291 0 0 1 .17 3.7 2.233 2.233 0 0 1 1.209 1.812 4.05 4.05 0 0 1-.52 1.9 4.593 4.593 0 0 1 1.123 2.925c-.164 1.215.084 1.497-.772 2.374h-1.21c-1.581.2-2.761.351-4.355.348-5.796.09-11.51-.58-16.554-3.435"/><path stroke="#45413C" stroke-linecap="round" stroke-linejoin="round" stroke-width="2" d="M27.227 27.208a6.228 6.228 0 0 1 3.777-1.03c2.674-.143 5.324.58 7.556 2.06m-.347-12.106a3.106 3.106 0 0 0 2.127.71 3.073 3.073 0 0 0 2.838-1.419m-22.696-1.419a3.166 3.166 0 0 1 2.836-2.127 3.164 3.164 0 0 1 2.838 2.127"/><path fill="#45413C" d="M39.544 21.225a2.216 2.216 0 1 0 4.43 0 2.216 2.216 0 0 0-4.43 0ZM21.102 21.225a2.215 2.215 0 1 0 4.43 0 2.215 2.215 0 0 0-4.43 0Z"/><path stroke="#45413C" stroke-linecap="round" stroke-linejoin="round" d="M15.146 52.775a32.306 32.306 0 0 0 17.354 4.71c1.596.001 3.19-.1 4.772-.302 0 0 .412-.057.806-.116"/><path fill="#FFE500" d="M32.943 33.783c-3.622.603-9.661 6.642-12.68 7.246-3.018.604-3.02-3.623-6.039-4.831a3.084 3.084 0 0 0-4.226 3.624 30.853 30.853 0 0 1 1.927 8.677 10.878 10.878 0 0 0 10.753 12.456 10.812 10.812 0 0 0 5.873-1.722c3.743-2.63 6.204-5.524 6.204-7.335a4.59 4.59 0 0 0-1.124-2.926 4.05 4.05 0 0 0 .52-1.9 2.233 2.233 0 0 0-1.207-1.811 3.292 3.292 0 0 0-.171-3.7 8.197 8.197 0 0 0 3.798-2.338 3.453 3.453 0 0 0-3.628-5.44Z"/><path stroke="#45413C" stroke-linecap="round" stroke-linejoin="round" d="M32.773 41.555a3.292 3.292 0 0 1 .17 3.7m0 0a9.443 9.443 0 0 1-3.671 2.76m3.671-2.76a2.232 2.232 0 0 1 1.203 1.811 4.907 4.907 0 0 1-3.292 4.305"/><path stroke="#45413C" stroke-linecap="round" stroke-linejoin="round" stroke-width="2" d="M33.547 48.88a4.615 4.615 0 0 1 1.208 3.018c0 1.811-2.462 4.705-6.204 7.336A10.872 10.872 0 0 1 11.925 48.5c-.22-2.97-.87-5.893-1.927-8.677a3.083 3.083 0 0 1 4.226-3.624c3.02 1.208 3.02 5.435 6.039 4.832 3.019-.604 9.057-6.644 12.68-7.246a3.454 3.454 0 0 1 3.623 5.433c-1.812 2.416-5.391 1.984-9.014 5.606"/></svg>