<svg xmlns="http://www.w3.org/2000/svg" width="65" height="64" fill="none"><path fill="#FFE500" d="M2.747 32c0 7.22 3.135 14.143 8.714 19.248 5.58 5.105 13.148 7.973 21.039 7.973 7.891 0 15.459-2.868 21.039-7.973 5.58-5.105 8.714-12.028 8.714-19.248 0-7.22-3.135-14.143-8.714-19.248C47.959 7.647 40.39 4.78 32.5 4.78c-7.891 0-15.459 2.868-21.039 7.973C5.881 17.857 2.747 24.781 2.747 32Z"/><path fill="#F2C100" d="M32.5 54.157c-16.839 0-28.368-10.846-29.626-24.688A27.931 27.931 0 0 0 2.747 32c0 15.034 11.901 27.22 29.753 27.22s29.753-12.186 29.753-27.22c0-.856-.05-1.699-.127-2.532C60.868 43.31 49.34 54.157 32.5 54.157Z"/><path fill="#FFFACF" d="M24.27 7.947c0 .167.213.331.627.485.413.154 1.02.294 1.784.411.764.118 1.671.211 2.67.275.998.064 2.068.097 3.149.097 1.08 0 2.15-.033 3.15-.097a30.796 30.796 0 0 0 2.67-.275c.763-.117 1.37-.257 1.783-.41.414-.155.627-.32.627-.486 0-.166-.213-.331-.627-.485-.413-.154-1.02-.293-1.784-.411a30.796 30.796 0 0 0-2.67-.275A49.99 49.99 0 0 0 32.5 6.68c-1.08 0-2.15.032-3.15.096-.998.064-1.905.157-2.67.275-.763.118-1.37.257-1.783.411-.414.154-.627.319-.627.485Z"/><path stroke="#45413C" stroke-miterlimit="10" stroke-width="2" d="M2.747 32c0 7.22 3.135 14.143 8.714 19.248 5.58 5.105 13.148 7.973 21.039 7.973 7.891 0 15.459-2.868 21.039-7.973 5.58-5.105 8.714-12.028 8.714-19.248 0-7.22-3.135-14.143-8.714-19.248C47.959 7.647 40.39 4.78 32.5 4.78c-7.891 0-15.459 2.868-21.039 7.973C5.881 17.857 2.747 24.781 2.747 32Z"/><path fill="#fff" stroke="#45413C" stroke-linecap="round" stroke-linejoin="round" stroke-width="2" d="M33.124 19.654a6.655 6.655 0 1 0 13.311 0 6.655 6.655 0 1 0-13.311 0ZM19.84 19.636a4.737 4.737 0 1 0 9.472 0 4.737 4.737 0 1 0-9.473 0Z"/><path fill="#45413C" d="M38.704 22.252a2.218 2.218 0 1 0 4.436 0 2.22 2.22 0 1 0-4.436 0ZM22.371 18.042a1.583 1.583 0 1 0 3.166 0 1.583 1.583 0 0 0-3.166 0Z"/><path fill="#525252" stroke="#45413C" stroke-linecap="round" stroke-linejoin="round" stroke-width="2" d="M46.995 34.396a2.065 2.065 0 0 0-2.17-3.27 48.426 48.426 0 0 1-9.92 1.692c-3.348.293-6.719.236-10.056-.17a2.064 2.064 0 0 0-1.646 3.562c2.18 2.1 5.924 4.025 12.235 3.545 6.31-.48 9.723-2.953 11.558-5.358h0Z"/><path fill="#FF6242" stroke="#45413C" stroke-linecap="round" stroke-linejoin="round" stroke-width="2" d="M26.447 32.633c-4.558-.387-6.86-.792-10.072 1.66-3.457 2.642-4.704 11.142 2.305 12.773 7.008 1.63 7.02-13.464 14.327-14.133l-6.56-.3Z"/><path stroke="#45413C" stroke-linecap="round" stroke-linejoin="round" stroke-width="2" d="M26.447 32.633a8.063 8.063 0 0 0-6.934 6.497"/></svg>