<svg xmlns="http://www.w3.org/2000/svg" width="64" height="64" fill="none"><g clip-path="url(#a)"><path fill="#FFE500" stroke="#45413C" stroke-width="2" d="M11.476 49.928C6.042 44.766 3 37.776 3 30.5c0-7.276 3.042-14.266 8.476-19.428C16.91 5.91 24.293 3 32 3c7.707 0 15.09 2.91 20.524 8.072C57.958 16.235 61 23.224 61 30.5c0 7.276-3.042 14.266-8.475 19.428C47.089 55.09 39.707 58 32 58c-7.707 0-15.09-2.91-20.524-8.072Z"/><path fill="#FFFACF" d="M24 4.5c0 .398.843.78 2.343 1.06 1.5.282 3.535.44 5.657.44s4.157-.158 5.657-.44C39.157 5.28 40 4.899 40 4.5s-.843-.78-2.343-1.06C36.157 3.157 34.122 3 32 3s-4.157.158-5.657.44C24.843 3.72 24 4.101 24 4.5Z"/><path fill="#F2C100" d="M32 52.894C15.587 52.894 4.35 41.957 3.123 28A28.91 28.91 0 0 0 3 30.553C3 45.711 14.6 58 32 58s29-12.289 29-27.447c0-.863-.048-1.713-.123-2.553C59.65 41.957 48.413 52.894 32 52.894Z"/><path stroke="#45413C" stroke-width="2" d="M11.476 49.928C6.042 44.766 3 37.776 3 30.5c0-7.276 3.042-14.266 8.476-19.428C16.91 5.91 24.293 3 32 3c7.707 0 15.09 2.91 20.524 8.072C57.958 16.235 61 23.224 61 30.5c0 7.276-3.042 14.266-8.475 19.428C47.089 55.09 39.707 58 32 58c-7.707 0-15.09-2.91-20.524-8.072Z"/><path fill="#fff" stroke="#45413C" stroke-width="2" d="M25.111 20.758c-.334 1.96-1.16 3.591-2.174 4.655-1.02 1.07-2.135 1.485-3.123 1.305-.988-.18-1.9-.966-2.504-2.331-.6-1.358-.837-3.184-.503-5.142.334-1.96 1.16-3.592 2.174-4.655 1.02-1.07 2.135-1.485 3.123-1.305.988.18 1.9.966 2.504 2.331.6 1.358.837 3.183.503 5.142ZM38.215 20.758c.334 1.96 1.16 3.591 2.174 4.655 1.02 1.07 2.136 1.485 3.124 1.305.988-.18 1.9-.966 2.503-2.331.6-1.358.837-3.184.503-5.142-.334-1.96-1.16-3.592-2.174-4.655-1.019-1.07-2.135-1.485-3.123-1.305-.988.18-1.9.966-2.504 2.331-.6 1.358-.837 3.183-.503 5.142Z"/><path fill="#FF6242" stroke="#45413C" stroke-width="2" d="M25 40c0 3.144.851 5.945 2.175 7.93C28.504 49.924 30.23 51 32 51c1.77 0 3.496-1.077 4.825-3.07C38.149 45.946 39 43.145 39 40s-.851-5.945-2.175-7.93C35.496 30.076 33.77 29 32 29c-1.77 0-3.496 1.077-4.825 3.07C25.851 34.054 25 36.855 25 40Z"/><path fill="#FFE400" stroke="#000" stroke-linecap="round" stroke-width="2" d="M6.87 49.2C6.278 54.583 4.29 60.242 3 62h19V49.2c0-9.79-5.278-15.813-11.26-16.19-5.98-.376-3.166 9.789-3.87 16.19Z"/><path fill="#FFEE59" stroke="#45413C" stroke-linecap="round" stroke-width="2" d="M6.87 49.2C6.278 54.583 4.29 60.242 3 62h19V49.2c0-9.79-5.278-15.813-11.26-16.19-5.98-.376-3.166 9.789-3.87 16.19Z"/><path fill="#FFE400" stroke="#45413C" stroke-linecap="round" stroke-width="2" d="M57.926 49.2C58.549 54.583 60.642 60.242 62 62H42V49.2c0-9.79 5.556-15.813 11.852-16.19 6.296-.376 3.333 9.789 4.074 16.19Z"/><path fill="#FFEE59" stroke="#45413C" stroke-linecap="round" stroke-width="2" d="M57.926 49.2C58.549 54.583 60.642 60.242 62 62H42V49.2c0-9.79 5.556-15.813 11.852-16.19 6.296-.376 3.333 9.789 4.074 16.19Z"/></g><defs><clipPath id="a"><path fill="#fff" d="M0 0h64v64H0z"/></clipPath></defs></svg>