<svg xmlns="http://www.w3.org/2000/svg" width="64" height="64" fill="none"><path fill="#FFE500" d="M50.095 26.317c-2.298-8.492-8.792-18.782-12.889-21.785-5.359-3.922-9.883.948-6.358 6.23 2.922 4.38 4.981 6.266 5.956 12.475-1.167-.493-2.37-.9-3.596-1.216-8.908-2.28-16.351 1.527-18.449 6.92a3.995 3.995 0 0 0 .733 4.65c-2.582-.352-5.146 1.357-4.63 5.742 1.179 10.018 8.559 21.546 21.43 21.546 11.844 0 16.386-6.92 18.974-14.692 2.825-8.48.894-12.221-1.171-19.87ZM26.716 43.302c-3.897-.906-4.862-3.563-7.459-7.36a5.606 5.606 0 0 0-.95-1.048 2.558 2.558 0 0 0 2.248-.551c1.299-1.6 4.375-4.263 8.064-4.196a7.232 7.232 0 0 1 6.93 7.394c-.207 3.73-3.537 6.993-8.833 5.76Z"/><path fill="#F2C100" d="M51.267 40.9c-2.588 7.774-7.133 14.693-18.974 14.693-12.028 0-19.258-10.07-21.115-19.565a6.86 6.86 0 0 0-.315 3.313c1.179 10.018 8.559 21.546 21.43 21.546 11.844 0 16.386-6.92 18.974-14.692a21.789 21.789 0 0 0 1.227-10.396 27.863 27.863 0 0 1-1.227 5.102V40.9Z"/><path stroke="#45413C" stroke-linecap="round" stroke-linejoin="round" stroke-width="2" d="M18.335 34.898c.348.308.657.658.92 1.041 2.598 3.796 3.563 6.452 7.46 7.36 5.292 1.232 8.626-2.03 8.82-5.76a7.232 7.232 0 0 0-6.93-7.395c-3.685-.067-6.761 2.597-8.064 4.196-1.303 1.6-7.893 0-5.796-5.395 2.097-5.395 9.542-9.198 18.449-6.92a25.063 25.063 0 0 1 12.991 7.986"/><path stroke="#45413C" stroke-linecap="round" stroke-linejoin="round" stroke-width="2" d="M36.825 23.34c-.968-6.3-3.037-8.166-5.976-12.572-3.528-5.283.998-10.153 6.358-6.23 4.096 2.997 10.584 13.288 12.889 21.78 2.07 7.649 3.997 11.39 1.172 19.878-2.588 7.773-7.133 14.692-18.974 14.692-12.871 0-20.251-11.53-21.429-21.546-.514-4.367 2.026-6.093 4.596-5.76"/><path fill="#F2C100" d="M40.359 7.688A3.77 3.77 0 0 1 45 4.636c3.006.756 5.242 3.342 7.127 11.99a48.864 48.864 0 0 1 .315 18.788 92.07 92.07 0 0 0-2.346-9.097 55.712 55.712 0 0 0-9.735-18.635"/><path stroke="#45413C" stroke-linecap="round" stroke-linejoin="round" stroke-width="2" d="M40.359 7.688A3.77 3.77 0 0 1 45 4.636c3.006.756 5.242 3.342 7.127 11.99a48.864 48.864 0 0 1 .315 18.788 92.07 92.07 0 0 0-2.346-9.097 55.712 55.712 0 0 0-9.735-18.635"/></svg>