<svg xmlns="http://www.w3.org/2000/svg" width="207" height="176" fill="none"><path fill="url(#a)" d="M93.928 158.321c43.532 0 78.821-35.289 78.821-78.82C172.749 35.969 137.46.68 93.929.68 50.396.68 15.106 35.969 15.106 79.5c0 43.532 35.29 78.821 78.821 78.821Z"/><g filter="url(#b)"><rect width="81.801" height="101.829" x="53.861" y="23.377" fill="#fff" rx="16"/></g><rect width="50" height="1.496" x="61.086" y="36.514" fill="#011625" rx=".748"/><rect width="65.684" height="1.496" x="61.086" y="56.01" fill="#D5D5D5" rx=".748"/><rect width="65.684" height="1.496" x="61.086" y="75.504" fill="#D5D5D5" rx=".748"/><rect width="65.684" height="1.496" x="61.086" y="95" fill="#D5D5D5" rx=".748"/><rect width="65.684" height="1.496" x="61.086" y="114.496" fill="#D5D5D5" rx=".748"/><g filter="url(#c)"><path fill="#fff" d="M184.67 12.125h-39.463c-1.839 0-3.33 1.569-3.33 3.504v19.52c0 1.936 1.491 3.505 3.33 3.505h39.463c1.839 0 3.33-1.569 3.33-3.504V15.63c0-1.936-1.491-3.505-3.33-3.505Z"/></g><path fill="#C6CCD9" d="M151.73 29.581a3.94 3.94 0 1 0 0-7.881 3.94 3.94 0 0 0 0 7.881Z"/><rect width="21.019" height="7.882" x="160.926" y="21.699" fill="#D5D5D5" rx="3.941"/><path fill="#C6CCD9" fill-rule="evenodd" d="M116.99 129.791c8.46 0 16.322-2.56 22.855-6.946l26.733 25.519 9.695-11.248-25.796-24.625a40.868 40.868 0 0 0 7.565-23.753c0-22.673-18.38-41.053-41.052-41.053-22.673 0-41.053 18.38-41.053 41.053s18.38 41.053 41.053 41.053Zm35.015-41.053c0 19.195-15.561 34.756-34.756 34.756-19.194 0-34.755-15.561-34.755-34.756s15.56-34.755 34.755-34.755 34.756 15.56 34.756 34.755Z" clip-rule="evenodd"/><g filter="url(#d)"><path fill="#fff" fill-opacity=".3" d="M117.246 124.165c19.771 0 35.798-15.88 35.798-35.47 0-19.588-16.027-35.468-35.798-35.468-19.77 0-35.798 15.88-35.798 35.469s16.028 35.469 35.798 35.469Z"/></g><path fill="#0052D9" d="m123.436 88.696 8.663-8.63a4.498 4.498 0 0 0 1.239-3.162 4.498 4.498 0 0 0-1.329-3.126 4.556 4.556 0 0 0-6.328-.09l-8.682 8.63-8.663-8.63a4.566 4.566 0 0 0-6.51-.092 4.508 4.508 0 0 0-1.329 3.255 4.498 4.498 0 0 0 1.421 3.216l8.678 8.63-8.678 8.629a4.511 4.511 0 0 0-1.421 3.216 4.487 4.487 0 0 0 1.329 3.254 4.546 4.546 0 0 0 3.274 1.321 4.568 4.568 0 0 0 3.236-1.413l8.682-8.63 8.683 8.63a4.556 4.556 0 0 0 6.215-.2 4.497 4.497 0 0 0 1.323-3.053 4.497 4.497 0 0 0-1.14-3.125l-8.663-8.63Z"/><path fill="#DCE1EB" d="m166.576 148.365 9.695-11.248 1.46 1.394c1.417 1.352 2.265 3.242 2.358 5.252.093 2.011-.576 3.978-1.861 5.469-1.286 1.492-3.081 2.384-4.992 2.482-1.91.098-3.78-.607-5.196-1.959l-1.461-1.394-.003.004Z"/><path fill="#011625" fill-rule="evenodd" d="M32.392 41.517a12.46 12.46 0 0 0-.365-2.833c-.824-3.338-4.501-5.48-8.415-5.985-3.912-.503-7.98.643-9.547 3.547-.897 1.66-1.021 3.09-.655 4.297.365 1.2 1.231 2.195 2.406 2.97 3.277 2.16 9.015 2.6 11.632 1.697a29.305 29.305 0 0 0 3.546-1.498c-.659 3.774-3.113 7.35-6.387 10.571C17.489 61.286 6.445 66.6.43 68.555a.645.645 0 0 0-.402.8c.1.338.444.527.767.422 6.134-1.993 17.393-7.42 24.651-14.562 3.75-3.689 6.421-7.84 6.878-12.206C40.8 38.28 47.76 29.697 53.712 22.475a.66.66 0 0 0-.065-.903.596.596 0 0 0-.864.068c-5.709 6.927-12.334 15.166-20.391 19.877Zm-1.233.686a11.191 11.191 0 0 0-.32-3.2c-.712-2.89-3.989-4.598-7.377-5.034-2.076-.267-4.212-.047-5.886.735-1.053.49-1.92 1.203-2.443 2.172-.687 1.27-.835 2.358-.554 3.28.282.928.98 1.674 1.891 2.273 2.986 1.97 8.21 2.387 10.593 1.565a28.833 28.833 0 0 0 4.096-1.79Z" clip-rule="evenodd"/><circle cx="182.602" cy="102.49" r="3.941" fill="#0052D9"/><path fill="#0052D9" fill-rule="evenodd" d="M33.752 129.68c.703-.264 1.443-.615 2.014-1.122.678-.603.954-1.379 1.139-2.196.237-1.05.332-2.169.62-3.22.107-.391.313-.538.4-.604a.946.946 0 0 1 .66-.193c.251.019.596.119.823.562.032.063.074.16.103.292.02.097.034.401.055.526.055.308.1.616.143.925.143 1.031.225 1.906.676 2.853.611 1.286 1.224 2.072 2.055 2.421.804.337 1.765.273 2.992.009.117-.03.233-.055.347-.076.541-.1 1.059.274 1.165.842.106.567-.238 1.119-.774 1.244-.112.026-.222.051-.331.073-1.66.432-3.58 1.975-4.696 3.326-.344.416-.847 1.58-1.361 2.323-.38.548-.805.909-1.163 1.037a1.03 1.03 0 0 1-1.207-.392 1.225 1.225 0 0 1-.2-.488 3.823 3.823 0 0 1-.019-.464c-.104-.38-.232-.75-.326-1.132-.223-.913-.66-1.49-1.179-2.253-.485-.715-1.007-1.163-1.77-1.522-.1-.025-.903-.232-1.186-.35a1.29 1.29 0 0 1-.683-.623 1.248 1.248 0 0 1-.11-.693c.036-.286.158-.531.375-.729.134-.123.335-.242.603-.301.207-.045.758-.072.835-.075Zm4.707-1.488c.037.088.077.175.119.264.895 1.883 1.897 2.934 3.114 3.444l.041.016a13.91 13.91 0 0 0-2.115 2.03c-.232.281-.54.864-.87 1.462-.302-1.032-.796-1.761-1.416-2.673-.473-.697-.97-1.221-1.58-1.648a6.917 6.917 0 0 0 1.318-.905 5.278 5.278 0 0 0 1.389-1.99Z" clip-rule="evenodd"/><defs><filter id="b" width="141.801" height="161.83" x="23.861" y="13.377" color-interpolation-filters="sRGB" filterUnits="userSpaceOnUse"><feFlood flood-opacity="0" result="BackgroundImageFix"/><feColorMatrix in="SourceAlpha" result="hardAlpha" values="0 0 0 0 0 0 0 0 0 0 0 0 0 0 0 0 0 0 127 0"/><feOffset dy="20"/><feGaussianBlur stdDeviation="15"/><feComposite in2="hardAlpha" operator="out"/><feColorMatrix values="0 0 0 0 0.570833 0 0 0 0 0.570833 0 0 0 0 0.570833 0 0 0 0.2 0"/><feBlend in2="BackgroundImageFix" result="effect1_dropShadow_653_5148"/><feBlend in="SourceGraphic" in2="effect1_dropShadow_653_5148" result="shape"/></filter><filter id="c" width="72.123" height="52.529" x="134.877" y="3.125" color-interpolation-filters="sRGB" filterUnits="userSpaceOnUse"><feFlood flood-opacity="0" result="BackgroundImageFix"/><feColorMatrix in="SourceAlpha" result="hardAlpha" values="0 0 0 0 0 0 0 0 0 0 0 0 0 0 0 0 0 0 127 0"/><feOffset dx="6" dy="4"/><feGaussianBlur stdDeviation="6.5"/><feComposite in2="hardAlpha" operator="out"/><feColorMatrix values="0 0 0 0 0.104618 0 0 0 0 0.465612 0 0 0 0 0.545833 0 0 0 0.09 0"/><feBlend in2="BackgroundImageFix" result="effect1_dropShadow_653_5148"/><feBlend in="SourceGraphic" in2="effect1_dropShadow_653_5148" result="shape"/></filter><filter id="d" width="87.596" height="86.939" x="73.448" y="45.227" color-interpolation-filters="sRGB" filterUnits="userSpaceOnUse"><feFlood flood-opacity="0" result="BackgroundImageFix"/><feGaussianBlur in="BackgroundImageFix" stdDeviation="4"/><feComposite in2="SourceAlpha" operator="in" result="effect1_backgroundBlur_653_5148"/><feBlend in="SourceGraphic" in2="effect1_backgroundBlur_653_5148" result="shape"/></filter><linearGradient id="a" x1="93.321" x2="94.935" y1="-24.986" y2="251.82" gradientUnits="userSpaceOnUse"><stop stop-color="#F2F2F2"/><stop offset="1" stop-color="#EFEFEF"/></linearGradient></defs></svg>